STARTFONT 2.1
COMMENT
COMMENT Converted from OpenType font "montserrat_regular.ttf" by "otf2bdf 3.0".
COMMENT
FONT -FreeType-Montserrat Thin-Medium-R-Normal--33-240-100-100-P-167-ISO10646-1
SIZE 24 100 100
FONTBOUNDINGBOX 57 43 -6 -9
STARTPROPERTIES 19
FOUNDRY "FreeType"
FAMILY_NAME "Montserrat Thin"
WEIGHT_NAME "Medium"
SLANT "R"
SETWIDTH_NAME "Normal"
ADD_STYLE_NAME ""
PIXEL_SIZE 33
POINT_SIZE 240
RESOLUTION_X 100
RESOLUTION_Y 100
SPACING "P"
AVERAGE_WIDTH 167
CHARSET_REGISTRY "ISO10646"
CHARSET_ENCODING "1"
FONT_ASCENT 31
FONT_DESCENT 8
COPYRIGHT "Copyright 2011 The Montserrat Project Authors (https://github.com/JulietaUla/Montserrat)"
_OTF_FONTFILE "montserrat_regular.ttf"
_OTF_PSNAME "Montserrat-Thin"
ENDPROPERTIES
CHARS 969
STARTCHAR 0000
ENCODING 0
SWIDTH 0 0
DWIDTH 0 0
BBX 0 0 0 0
BITMAP
ENDCHAR
STARTCHAR 000D
ENCODING 13
SWIDTH 240 0
DWIDTH 8 0
BBX 0 0 0 0
BITMAP
ENDCHAR
STARTCHAR 0020
ENCODING 32
SWIDTH 240 0
DWIDTH 8 0
BBX 0 0 0 0
BITMAP
ENDCHAR
STARTCHAR 0021
ENCODING 33
SWIDTH 240 0
DWIDTH 8 0
BBX 2 23 3 0
BITMAP
80
80
80
80
80
80
80
80
80
80
80
80
80
80
80
80
00
00
00
00
00
40
C0
ENDCHAR
STARTCHAR 0022
ENCODING 34
SWIDTH 330 0
DWIDTH 11 0
BBX 5 8 3 15
BITMAP
88
88
88
88
88
88
88
88
ENDCHAR
STARTCHAR 0023
ENCODING 35
SWIDTH 660 0
DWIDTH 22 0
BBX 20 23 1 0
BITMAP
010100
010100
020100
020100
020100
020100
020100
3FFFF0
020200
020200
040200
040200
040200
040200
040200
FFFFF0
040400
040400
040400
080400
080400
080400
080400
ENDCHAR
STARTCHAR 0024
ENCODING 36
SWIDTH 600 0
DWIDTH 20 0
BBX 16 31 2 -4
BITMAP
0100
0100
0100
0100
0FF8
3106
4100
4100
8100
8100
8100
4100
4100
3100
0D00
03C0
0138
0104
0102
0101
0101
0101
0101
8101
4102
2104
1FF8
0100
0100
0100
0100
ENDCHAR
STARTCHAR 0025
ENCODING 37
SWIDTH 780 0
DWIDTH 26 0
BBX 23 23 2 0
BITMAP
3E0020
410040
808040
808080
808100
804100
804200
808400
808400
808800
411000
3E11F8
002204
004404
004402
008402
010402
010402
020402
040402
080204
080204
1001F8
ENDCHAR
STARTCHAR 0026
ENCODING 38
SWIDTH 630 0
DWIDTH 21 0
BBX 19 23 2 0
BITMAP
07E000
081000
100800
100800
100800
101000
101000
082000
04C000
030000
050000
090000
308000
404000
802080
801080
800900
800500
800200
800300
400480
200840
1FF020
ENDCHAR
STARTCHAR 0027
ENCODING 39
SWIDTH 180 0
DWIDTH 6 0
BBX 1 8 3 15
BITMAP
80
80
80
80
80
80
80
80
ENDCHAR
STARTCHAR 0028
ENCODING 40
SWIDTH 300 0
DWIDTH 10 0
BBX 4 30 4 -5
BITMAP
10
20
20
40
40
40
40
80
80
80
80
80
80
80
80
80
80
80
80
80
80
80
80
40
40
40
20
20
20
10
ENDCHAR
STARTCHAR 0029
ENCODING 41
SWIDTH 300 0
DWIDTH 10 0
BBX 4 31 2 -6
BITMAP
80
80
40
40
20
20
20
20
10
10
10
10
10
10
10
10
10
10
10
10
10
10
10
10
20
20
20
40
40
40
80
ENDCHAR
STARTCHAR 002A
ENCODING 42
SWIDTH 330 0
DWIDTH 11 0
BBX 10 10 1 14
BITMAP
0800
0800
8840
6980
1E00
1E00
2900
C8C0
0800
0800
ENDCHAR
STARTCHAR 002B
ENCODING 43
SWIDTH 540 0
DWIDTH 18 0
BBX 14 13 2 5
BITMAP
0100
0100
0100
0100
0100
0100
FFFC
0100
0100
0100
0100
0100
0100
ENDCHAR
STARTCHAR 002C
ENCODING 44
SWIDTH 180 0
DWIDTH 6 0
BBX 2 6 2 -4
BITMAP
C0
40
80
80
80
80
ENDCHAR
STARTCHAR 002D
ENCODING 45
SWIDTH 360 0
DWIDTH 12 0
BBX 9 1 2 8
BITMAP
FF80
ENDCHAR
STARTCHAR 002E
ENCODING 46
SWIDTH 180 0
DWIDTH 6 0
BBX 2 2 2 0
BITMAP
40
C0
ENDCHAR
STARTCHAR 002F
ENCODING 47
SWIDTH 300 0
DWIDTH 10 0
BBX 12 31 -1 -3
BITMAP
0010
0020
0020
0020
0040
0040
0040
0080
0080
0080
0100
0100
0100
0200
0200
0200
0400
0400
0400
0800
0800
1000
1000
1000
2000
2000
2000
4000
4000
4000
8000
ENDCHAR
STARTCHAR 0030
ENCODING 48
SWIDTH 630 0
DWIDTH 21 0
BBX 18 23 2 0
BITMAP
07F800
080400
100200
200100
400100
400080
800080
800080
800040
800040
800040
800040
800040
800040
800040
800080
800080
400080
400100
200100
100200
080400
07F800
ENDCHAR
STARTCHAR 0031
ENCODING 49
SWIDTH 330 0
DWIDTH 11 0
BBX 6 23 1 0
BITMAP
FC
04
04
04
04
04
04
04
04
04
04
04
04
04
04
04
04
04
04
04
04
04
04
ENDCHAR
STARTCHAR 0032
ENCODING 50
SWIDTH 540 0
DWIDTH 18 0
BBX 16 23 1 0
BITMAP
1FF0
6008
8004
0004
0002
0002
0002
0004
0004
0004
0008
0010
0020
0040
0080
0100
0200
0400
0800
1000
2000
4000
FFFF
ENDCHAR
STARTCHAR 0033
ENCODING 51
SWIDTH 540 0
DWIDTH 18 0
BBX 15 23 1 0
BITMAP
7FFC
0008
0008
0010
0020
0040
0040
0080
0100
0200
03E0
0018
0004
0002
0002
0002
0002
0002
0002
0002
8004
6008
1FF0
ENDCHAR
STARTCHAR 0034
ENCODING 52
SWIDTH 630 0
DWIDTH 21 0
BBX 19 23 2 0
BITMAP
000800
001000
002000
004000
008000
008000
010000
020000
040000
080400
080400
100400
200400
400400
800400
FFFFE0
000400
000400
000400
000400
000400
000400
000400
ENDCHAR
STARTCHAR 0035
ENCODING 53
SWIDTH 540 0
DWIDTH 18 0
BBX 16 23 1 0
BITMAP
3FFC
2000
2000
2000
2000
2000
2000
2000
4000
4000
3FF0
0008
0006
0002
0001
0001
0001
0001
0002
8002
4004
200C
1FF0
ENDCHAR
STARTCHAR 0036
ENCODING 54
SWIDTH 570 0
DWIDTH 19 0
BBX 17 23 2 0
BITMAP
07FE00
080000
100000
200000
400000
400000
800000
800000
800000
800000
873800
980600
A00200
C00100
C00100
C00100
400080
400100
400100
200100
100200
080400
07F800
ENDCHAR
STARTCHAR 0037
ENCODING 55
SWIDTH 570 0
DWIDTH 19 0
BBX 16 23 1 0
BITMAP
FFFF
8001
8002
8002
8004
0004
0004
0008
0008
0010
0010
0020
0020
0040
0040
0080
0080
0100
0100
0100
0200
0200
0400
ENDCHAR
STARTCHAR 0038
ENCODING 56
SWIDTH 600 0
DWIDTH 20 0
BBX 17 23 2 0
BITMAP
0FF800
300400
400200
400100
800100
800100
800100
400100
200200
100400
0FF800
181800
200600
400100
800080
800080
800080
800080
800080
800100
400100
300600
0FF000
ENDCHAR
STARTCHAR 0039
ENCODING 57
SWIDTH 570 0
DWIDTH 19 0
BBX 17 23 1 0
BITMAP
0FF000
300800
400400
400200
800100
800100
800100
800100
800280
400280
400480
300880
0E7080
018080
000080
000100
000100
000100
000200
000200
000400
001800
3FE000
ENDCHAR
STARTCHAR 003A
ENCODING 58
SWIDTH 180 0
DWIDTH 6 0
BBX 2 17 2 0
BITMAP
C0
00
00
00
00
00
00
00
00
00
00
00
00
00
00
40
C0
ENDCHAR
STARTCHAR 003B
ENCODING 59
SWIDTH 180 0
DWIDTH 6 0
BBX 2 22 2 -5
BITMAP
C0
00
00
00
00
00
00
00
00
00
00
00
00
00
00
00
C0
40
80
80
80
80
ENDCHAR
STARTCHAR 003C
ENCODING 60
SWIDTH 540 0
DWIDTH 18 0
BBX 14 11 2 7
BITMAP
001C
0060
0380
0C00
3000
C000
3000
0E00
0180
0060
001C
ENDCHAR
STARTCHAR 003D
ENCODING 61
SWIDTH 540 0
DWIDTH 18 0
BBX 14 8 2 8
BITMAP
FFFC
0000
0000
0000
0000
0000
0000
7FFC
ENDCHAR
STARTCHAR 003E
ENCODING 62
SWIDTH 540 0
DWIDTH 18 0
BBX 14 12 2 6
BITMAP
8000
6000
1C00
0300
00E0
0018
0004
0018
00E0
0300
1C00
6000
ENDCHAR
STARTCHAR 003F
ENCODING 63
SWIDTH 540 0
DWIDTH 18 0
BBX 14 23 1 0
BITMAP
1FF0
6008
8004
0004
0004
0004
0004
0004
0004
0008
0010
0020
0040
0080
0100
0100
0100
0000
0000
0000
0000
0100
0100
ENDCHAR
STARTCHAR 0040
ENCODING 64
SWIDTH 1020 0
DWIDTH 34 0
BBX 30 30 2 -7
BITMAP
003FF800
01C00600
02000180
0C000040
10000020
10000010
201FE210
40201208
40400A08
80800604
81000204
81000204
81000204
82000204
82000204
82000204
81000204
81000204
81000604
80800604
40400A08
40201108
201FE0F0
20000000
10000000
08000000
06000000
01000000
00E03800
001BC000
ENDCHAR
STARTCHAR 0041
ENCODING 65
SWIDTH 660 0
DWIDTH 22 0
BBX 22 23 0 0
BITMAP
001000
002800
002800
004400
004400
008200
008200
010200
010100
020100
020080
040080
040040
080040
080020
0FFFE0
100010
100010
200008
200008
400008
400004
800004
ENDCHAR
STARTCHAR 0042
ENCODING 66
SWIDTH 720 0
DWIDTH 24 0
BBX 19 23 4 0
BITMAP
FFFC00
800300
800080
800080
800080
800080
800080
800080
800080
800100
800600
FFFE00
800180
800040
800040
800020
800020
800020
800020
800040
800040
800180
FFFE00
ENDCHAR
STARTCHAR 0043
ENCODING 67
SWIDTH 690 0
DWIDTH 23 0
BBX 20 23 2 0
BITMAP
01FF80
060060
080010
100000
200000
400000
400000
800000
800000
800000
800000
800000
800000
800000
800000
800000
400000
400000
200000
100000
080020
060040
01FF80
ENDCHAR
STARTCHAR 0044
ENCODING 68
SWIDTH 810 0
DWIDTH 27 0
BBX 22 23 4 0
BITMAP
FFFC00
800300
8000C0
800020
800020
800010
800008
800008
800008
800008
800004
800004
800004
800008
800008
800008
800010
800010
800020
800040
800080
800300
FFFC00
ENDCHAR
STARTCHAR 0045
ENCODING 69
SWIDTH 660 0
DWIDTH 22 0
BBX 16 23 4 0
BITMAP
FFFE
8000
8000
8000
8000
8000
8000
8000
8000
8000
8000
FFF8
8000
8000
8000
8000
8000
8000
8000
8000
8000
8000
FFFF
ENDCHAR
STARTCHAR 0046
ENCODING 70
SWIDTH 600 0
DWIDTH 20 0
BBX 15 23 4 0
BITMAP
FFFE
8000
8000
8000
8000
8000
8000
8000
8000
8000
8000
FFFC
8000
8000
8000
8000
8000
8000
8000
8000
8000
8000
8000
ENDCHAR
STARTCHAR 0047
ENCODING 71
SWIDTH 750 0
DWIDTH 25 0
BBX 20 23 2 0
BITMAP
01FF80
060060
080010
100000
200000
400000
400000
800000
800000
800000
800000
800000
800010
800010
800010
800010
400010
400010
200010
100010
080010
060060
01FF80
ENDCHAR
STARTCHAR 0048
ENCODING 72
SWIDTH 810 0
DWIDTH 27 0
BBX 19 23 4 0
BITMAP
800020
800020
800020
800020
800020
800020
800020
800020
800020
800020
800020
FFFFE0
800020
800020
800020
800020
800020
800020
800020
800020
800020
800020
800020
ENDCHAR
STARTCHAR 0049
ENCODING 73
SWIDTH 270 0
DWIDTH 9 0
BBX 1 23 4 0
BITMAP
80
80
80
80
80
80
80
80
80
80
80
80
80
80
80
80
80
80
80
80
80
80
80
ENDCHAR
STARTCHAR 004A
ENCODING 74
SWIDTH 450 0
DWIDTH 15 0
BBX 12 23 0 0
BITMAP
1FF0
0010
0010
0010
0010
0010
0010
0010
0010
0010
0010
0010
0010
0010
0010
0010
0010
0010
0010
8020
8020
6040
1F80
ENDCHAR
STARTCHAR 004B
ENCODING 75
SWIDTH 690 0
DWIDTH 23 0
BBX 18 23 4 0
BITMAP
800080
800100
800200
800400
800800
801000
802000
804000
808000
810000
830000
850000
888000
904000
A02000
C01000
800800
800400
800200
800200
800100
800080
800040
ENDCHAR
STARTCHAR 004C
ENCODING 76
SWIDTH 570 0
DWIDTH 19 0
BBX 15 23 4 0
BITMAP
8000
8000
8000
8000
8000
8000
8000
8000
8000
8000
8000
8000
8000
8000
8000
8000
8000
8000
8000
8000
8000
8000
FFFE
ENDCHAR
STARTCHAR 004D
ENCODING 77
SWIDTH 930 0
DWIDTH 31 0
BBX 23 23 4 0
BITMAP
800002
C00002
A00006
A0000A
90000A
900012
880012
880022
840022
820042
820082
810082
810102
808102
808202
804202
802402
802802
801802
800002
800002
800002
800002
ENDCHAR
STARTCHAR 004E
ENCODING 78
SWIDTH 810 0
DWIDTH 27 0
BBX 19 23 4 0
BITMAP
C00020
C00020
A00020
900020
880020
840020
840020
820020
810020
808020
808020
804020
802020
801020
801020
800820
800420
800220
800120
800120
8000A0
800060
800020
ENDCHAR
STARTCHAR 004F
ENCODING 79
SWIDTH 810 0
DWIDTH 27 0
BBX 24 23 2 0
BITMAP
01FF80
060060
080010
100008
200004
400004
400002
800002
800001
800001
800001
800001
800001
800001
800002
800002
400002
400004
200004
100008
080010
060060
01FF80
ENDCHAR
STARTCHAR 0050
ENCODING 80
SWIDTH 690 0
DWIDTH 23 0
BBX 18 23 4 0
BITMAP
FFF800
800600
800100
800080
800080
800080
800080
800040
800080
800080
800080
800100
800100
800600
FFF800
800000
800000
800000
800000
800000
800000
800000
800000
ENDCHAR
STARTCHAR 0051
ENCODING 81
SWIDTH 810 0
DWIDTH 27 0
BBX 25 27 2 -4
BITMAP
01FF8000
06006000
08001000
10000800
20000400
40000400
40000200
80000200
80000100
80000100
80000100
80000100
80000100
80000100
80000200
80000200
40000200
40000400
20000400
10000800
08003000
06004000
01FF8000
00040000
00020080
00010100
0000FC00
ENDCHAR
STARTCHAR 0052
ENCODING 82
SWIDTH 690 0
DWIDTH 23 0
BBX 18 23 4 0
BITMAP
FFF800
800600
800100
800080
800080
800080
800080
800040
800080
800080
800080
800100
800100
800600
FFF800
801000
800800
800400
800200
800200
800100
800080
800080
ENDCHAR
STARTCHAR 0053
ENCODING 83
SWIDTH 600 0
DWIDTH 20 0
BBX 16 23 2 0
BITMAP
0FF8
3006
4000
4000
8000
8000
8000
4000
4000
3000
0C00
03C0
0038
0004
0002
0001
0001
0001
0001
8001
4002
2004
1FF8
ENDCHAR
STARTCHAR 0054
ENCODING 84
SWIDTH 540 0
DWIDTH 18 0
BBX 17 23 1 0
BITMAP
FFFF80
010000
010000
010000
010000
010000
010000
010000
010000
010000
010000
010000
010000
010000
010000
010000
010000
010000
010000
010000
010000
010000
010000
ENDCHAR
STARTCHAR 0055
ENCODING 85
SWIDTH 780 0
DWIDTH 26 0
BBX 18 23 4 0
BITMAP
800040
800040
800040
800040
800040
800040
800040
800040
800040
800040
800040
800040
800040
800040
800040
800040
800040
400040
400080
200080
200100
180200
07FC00
ENDCHAR
STARTCHAR 0056
ENCODING 86
SWIDTH 660 0
DWIDTH 22 0
BBX 22 23 0 0
BITMAP
800004
400008
400008
200010
200010
100020
100020
080040
080040
040040
040080
040080
020100
020100
010200
010200
008400
008400
004400
004800
004800
003000
001000
ENDCHAR
STARTCHAR 0057
ENCODING 87
SWIDTH 1080 0
DWIDTH 36 0
BBX 32 23 2 0
BITMAP
80018001
80018001
80028001
40024002
40024002
40044002
20042004
20042004
20082008
10081008
10081008
10101010
08100810
08100810
08200420
04200420
04400420
04400240
02400240
02800240
02800180
01800180
01000080
ENDCHAR
STARTCHAR 0058
ENCODING 88
SWIDTH 600 0
DWIDTH 20 0
BBX 18 23 1 0
BITMAP
400040
200080
200100
100200
080200
040400
040800
021000
011000
00A000
004000
00C000
00A000
011000
021000
040800
040400
080200
100200
200100
200080
400040
800040
ENDCHAR
STARTCHAR 0059
ENCODING 89
SWIDTH 600 0
DWIDTH 20 0
BBX 19 23 1 0
BITMAP
800060
800040
400080
400080
200100
100200
100200
080400
040400
040800
021000
021000
012000
00C000
00C000
004000
004000
004000
004000
004000
004000
004000
004000
ENDCHAR
STARTCHAR 005A
ENCODING 90
SWIDTH 630 0
DWIDTH 21 0
BBX 18 23 2 0
BITMAP
FFFF80
000080
000100
000200
000400
000400
000800
001000
002000
002000
004000
008000
010000
020000
020000
040000
080000
100000
100000
200000
400000
800000
FFFFC0
ENDCHAR
STARTCHAR 005B
ENCODING 91
SWIDTH 270 0
DWIDTH 9 0
BBX 5 31 4 -6
BITMAP
F8
80
80
80
80
80
80
80
80
80
80
80
80
80
80
80
80
80
80
80
80
80
80
80
80
80
80
80
80
80
F0
ENDCHAR
STARTCHAR 005C
ENCODING 92
SWIDTH 300 0
DWIDTH 10 0
BBX 11 31 -1 -3
BITMAP
8000
8000
4000
4000
4000
2000
2000
2000
1000
1000
1000
0800
0800
0800
0400
0400
0400
0200
0200
0100
0100
0100
0080
0080
0080
0040
0040
0040
0020
0020
0020
ENDCHAR
STARTCHAR 005D
ENCODING 93
SWIDTH 270 0
DWIDTH 9 0
BBX 4 31 1 -6
BITMAP
F0
10
10
10
10
10
10
10
10
10
10
10
10
10
10
10
10
10
10
10
10
10
10
10
10
10
10
10
10
10
F0
ENDCHAR
STARTCHAR 005E
ENCODING 94
SWIDTH 540 0
DWIDTH 18 0
BBX 12 14 3 5
BITMAP
0200
0200
0500
0900
0900
0880
1080
1040
2040
2040
2020
4020
4010
8010
ENDCHAR
STARTCHAR 005F
ENCODING 95
SWIDTH 480 0
DWIDTH 16 0
BBX 17 1 0 -1
BITMAP
FFFF80
ENDCHAR
STARTCHAR 0060
ENCODING 96
SWIDTH 600 0
DWIDTH 20 0
BBX 5 4 6 20
BITMAP
80
60
10
08
ENDCHAR
STARTCHAR 0061
ENCODING 97
SWIDTH 570 0
DWIDTH 19 0
BBX 14 17 2 0
BITMAP
1FE0
2010
4008
0008
0008
0008
0004
0004
3FFC
4004
8004
8004
8004
800C
8014
6024
1F84
ENDCHAR
STARTCHAR 0062
ENCODING 98
SWIDTH 660 0
DWIDTH 22 0
BBX 17 25 4 0
BITMAP
800000
800000
800000
800000
800000
800000
800000
800000
87F000
980800
A00600
C00200
800100
800100
800100
800080
800080
800080
800100
800100
800100
C00200
A00400
900800
8FF000
ENDCHAR
STARTCHAR 0063
ENCODING 99
SWIDTH 540 0
DWIDTH 18 0
BBX 14 17 2 0
BITMAP
0FF0
100C
2000
4000
8000
8000
8000
8000
8000
8000
8000
8000
8000
4000
2004
1008
0FF0
ENDCHAR
STARTCHAR 0064
ENCODING 100
SWIDTH 660 0
DWIDTH 22 0
BBX 17 25 2 0
BITMAP
000080
000080
000080
000080
000080
000080
000080
000080
0FF080
100880
200480
400280
800180
800180
800080
800080
800080
800080
800080
800180
800180
400280
200480
100880
0FF080
ENDCHAR
STARTCHAR 0065
ENCODING 101
SWIDTH 570 0
DWIDTH 19 0
BBX 16 17 2 0
BITMAP
0FE0
1018
2004
4002
8002
8002
8001
8001
FFFE
8000
8000
8000
8000
4000
2002
100C
0FF0
ENDCHAR
STARTCHAR 0066
ENCODING 102
SWIDTH 300 0
DWIDTH 10 0
BBX 11 25 1 0
BITMAP
0780
0860
1000
1000
1000
1000
1000
1000
FF80
1000
1000
1000
1000
1000
1000
1000
1000
1000
1000
1000
1000
1000
1000
1000
1000
ENDCHAR
STARTCHAR 0067
ENCODING 103
SWIDTH 660 0
DWIDTH 22 0
BBX 17 24 2 -7
BITMAP
0FF080
100C80
200280
400280
800180
800080
800080
800080
800080
800080
800080
800180
400280
200280
100480
0C1880
03E080
000080
000100
000100
400100
200200
1C0C00
02F000
ENDCHAR
STARTCHAR 0068
ENCODING 104
SWIDTH 660 0
DWIDTH 22 0
BBX 15 25 4 0
BITMAP
8000
8000
8000
8000
8000
8000
8000
8000
8FE0
B018
C004
C004
8004
8002
8002
8002
8002
8002
8002
8002
8002
8002
8002
8002
8002
ENDCHAR
STARTCHAR 0069
ENCODING 105
SWIDTH 240 0
DWIDTH 8 0
BBX 2 24 3 0
BITMAP
40
C0
00
00
00
00
00
40
40
40
40
40
40
40
40
40
40
40
40
40
40
40
40
40
ENDCHAR
STARTCHAR 006A
ENCODING 106
SWIDTH 240 0
DWIDTH 8 0
BBX 8 31 -3 -7
BITMAP
01
01
00
00
00
00
00
01
01
01
01
01
01
01
01
01
01
01
01
01
01
01
01
01
01
01
01
01
02
C6
38
ENDCHAR
STARTCHAR 006B
ENCODING 107
SWIDTH 570 0
DWIDTH 19 0
BBX 14 25 4 0
BITMAP
8000
8000
8000
8000
8000
8000
8000
8000
8008
8010
8020
8040
8180
8200
8400
8A00
9100
A100
C080
8040
8020
8010
8010
8008
8004
ENDCHAR
STARTCHAR 006C
ENCODING 108
SWIDTH 240 0
DWIDTH 8 0
BBX 1 25 4 0
BITMAP
80
80
80
80
80
80
80
80
80
80
80
80
80
80
80
80
80
80
80
80
80
80
80
80
80
ENDCHAR
STARTCHAR 006D
ENCODING 109
SWIDTH 1050 0
DWIDTH 35 0
BBX 28 17 4 0
BITMAP
8FE03F80
B010C040
C0090020
C0060020
80060010
80040010
80040010
80040010
80040010
80040010
80040010
80040010
80040010
80040010
80040010
80040010
80040010
ENDCHAR
STARTCHAR 006E
ENCODING 110
SWIDTH 660 0
DWIDTH 22 0
BBX 15 17 4 0
BITMAP
8FE0
B018
C004
C004
8004
8002
8002
8002
8002
8002
8002
8002
8002
8002
8002
8002
8002
ENDCHAR
STARTCHAR 006F
ENCODING 111
SWIDTH 600 0
DWIDTH 20 0
BBX 17 17 2 0
BITMAP
0FF000
100800
200600
400200
800100
800100
800100
800100
800080
800100
800100
800100
800100
400200
200400
100800
0FF000
ENDCHAR
STARTCHAR 0070
ENCODING 112
SWIDTH 660 0
DWIDTH 22 0
BBX 17 23 4 -6
BITMAP
87F000
980800
A00600
C00200
800100
800100
800100
800080
800080
800080
800100
800100
800100
C00200
A00400
900800
8FF000
800000
800000
800000
800000
800000
800000
ENDCHAR
STARTCHAR 0071
ENCODING 113
SWIDTH 660 0
DWIDTH 22 0
BBX 17 23 2 -6
BITMAP
0FF080
100880
200480
400280
800180
800180
800080
800080
800080
800080
800080
800180
800180
400280
200480
100880
0FF080
000080
000080
000080
000080
000080
000080
ENDCHAR
STARTCHAR 0072
ENCODING 114
SWIDTH 360 0
DWIDTH 12 0
BBX 7 17 4 0
BITMAP
8E
B0
C0
80
80
80
80
80
80
80
80
80
80
80
80
80
80
ENDCHAR
STARTCHAR 0073
ENCODING 115
SWIDTH 450 0
DWIDTH 15 0
BBX 13 17 1 0
BITMAP
1FE0
2010
4000
4000
8000
4000
4000
3000
0B80
0070
0008
0008
0008
0008
8008
4010
3FE0
ENDCHAR
STARTCHAR 0074
ENCODING 116
SWIDTH 360 0
DWIDTH 12 0
BBX 10 21 1 0
BITMAP
1000
1000
1000
1000
FF80
1000
1000
1000
1000
1000
1000
1000
1000
1000
1000
1000
1000
1000
1000
0800
07C0
ENDCHAR
STARTCHAR 0075
ENCODING 117
SWIDTH 660 0
DWIDTH 22 0
BBX 14 17 4 0
BITMAP
8004
8004
8004
8004
8004
8004
8004
8004
8004
8004
8004
8004
8004
800C
4014
2024
1FC4
ENDCHAR
STARTCHAR 0076
ENCODING 118
SWIDTH 480 0
DWIDTH 16 0
BBX 16 17 0 0
BITMAP
8001
4001
4002
2002
2002
1004
1004
1008
0808
0810
0410
0420
0220
0240
0140
0180
0080
ENDCHAR
STARTCHAR 0077
ENCODING 119
SWIDTH 810 0
DWIDTH 27 0
BBX 27 17 0 0
BITMAP
80060020
40060020
400A0040
40090040
20110040
20110080
10108080
10208080
10204100
08204100
08404200
04402200
04802200
04801400
02801400
03001800
01000800
ENDCHAR
STARTCHAR 0078
ENCODING 120
SWIDTH 480 0
DWIDTH 16 0
BBX 14 17 1 0
BITMAP
4004
2008
2010
1020
0840
0440
0480
0300
0100
0280
0440
0840
1020
2010
2008
400C
8004
ENDCHAR
STARTCHAR 0079
ENCODING 121
SWIDTH 480 0
DWIDTH 16 0
BBX 17 24 -1 -7
BITMAP
400080
200080
200100
100100
100100
080200
080200
080400
040400
040800
020800
021000
011000
012000
00A000
00A000
004000
004000
008000
008000
010000
010000
C20000
3C0000
ENDCHAR
STARTCHAR 007A
ENCODING 122
SWIDTH 480 0
DWIDTH 16 0
BBX 13 17 2 0
BITMAP
FFF0
0010
0020
0040
0080
0080
0100
0200
0400
0400
0800
1000
2000
2000
4000
8000
FFF8
ENDCHAR
STARTCHAR 007B
ENCODING 123
SWIDTH 300 0
DWIDTH 10 0
BBX 6 31 3 -6
BITMAP
0C
30
20
20
20
20
20
20
20
20
20
20
20
20
40
C0
40
40
20
20
20
20
20
20
20
20
20
20
20
20
1C
ENDCHAR
STARTCHAR 007C
ENCODING 124
SWIDTH 270 0
DWIDTH 9 0
BBX 1 31 4 -6
BITMAP
80
80
80
80
80
80
80
80
80
80
80
80
80
80
80
80
80
80
80
80
80
80
80
80
80
80
80
80
80
80
80
ENDCHAR
STARTCHAR 007D
ENCODING 125
SWIDTH 300 0
DWIDTH 10 0
BBX 6 31 1 -6
BITMAP
C0
30
10
10
10
10
10
10
10
10
10
10
10
10
10
0C
08
10
10
10
10
10
10
10
10
10
10
10
10
10
E0
ENDCHAR
STARTCHAR 007E
ENCODING 126
SWIDTH 540 0
DWIDTH 18 0
BBX 14 4 2 10
BITMAP
3800
4604
8104
80F8
ENDCHAR
STARTCHAR 00A0
ENCODING 160
SWIDTH 240 0
DWIDTH 8 0
BBX 0 0 0 0
BITMAP
ENDCHAR
STARTCHAR 00A1
ENCODING 161
SWIDTH 240 0
DWIDTH 8 0
BBX 2 22 3 -5
BITMAP
C0
00
00
00
00
00
00
80
80
80
80
80
80
80
80
80
80
80
80
80
80
80
ENDCHAR
STARTCHAR 00A2
ENCODING 162
SWIDTH 540 0
DWIDTH 18 0
BBX 14 25 2 -4
BITMAP
0100
0100
0100
0100
0FF0
110C
2100
4100
8100
8100
8100
8100
8100
8100
8100
8100
8100
4100
2104
1108
0FF0
0100
0100
0100
0100
ENDCHAR
STARTCHAR 00A3
ENCODING 163
SWIDTH 600 0
DWIDTH 20 0
BBX 19 23 1 0
BITMAP
00FF80
030060
040000
080000
080000
080000
080000
080000
080000
080000
080000
FFFE00
080000
080000
080000
080000
080000
080000
080000
080000
080000
080000
FFFFE0
ENDCHAR
STARTCHAR 00A4
ENCODING 164
SWIDTH 690 0
DWIDTH 23 0
BBX 21 21 1 0
BITMAP
800008
407010
238E20
1401C0
080040
100020
200020
200010
400010
400010
400010
400010
400010
200010
200020
100040
080040
1401C0
230620
40F810
800008
ENDCHAR
STARTCHAR 00A5
ENCODING 165
SWIDTH 660 0
DWIDTH 22 0
BBX 21 23 1 0
BITMAP
800018
400010
400020
200040
100080
080100
080100
040200
020400
010800
008800
009000
006000
3FBFC0
002000
002000
002000
3FFFE0
002000
002000
002000
002000
002000
ENDCHAR
STARTCHAR 00A6
ENCODING 166
SWIDTH 270 0
DWIDTH 9 0
BBX 1 31 4 -6
BITMAP
80
80
80
80
80
80
80
80
80
80
80
80
00
00
00
00
00
00
00
00
80
80
80
80
80
80
80
80
80
80
80
ENDCHAR
STARTCHAR 00A7
ENCODING 167
SWIDTH 450 0
DWIDTH 15 0
BBX 13 26 1 -3
BITMAP
1FF0
2008
4000
4000
4000
4000
2000
1000
1E00
21C0
4030
8008
8008
8008
4008
2008
1810
07E0
0020
0010
0010
0008
0010
0010
4010
3FE0
ENDCHAR
STARTCHAR 00A8
ENCODING 168
SWIDTH 600 0
DWIDTH 20 0
BBX 8 2 6 21
BITMAP
C3
42
ENDCHAR
STARTCHAR 00A9
ENCODING 169
SWIDTH 810 0
DWIDTH 27 0
BBX 24 23 2 0
BITMAP
01FF00
0600C0
080030
100008
203C08
40C304
410082
820002
840002
840002
840002
840001
840002
840002
840002
820002
410084
40C304
203C08
100010
080020
0600C0
01FE00
ENDCHAR
STARTCHAR 00AA
ENCODING 170
SWIDTH 390 0
DWIDTH 13 0
BBX 8 11 2 14
BITMAP
1C
C3
01
01
01
7F
81
81
81
83
54
ENDCHAR
STARTCHAR 00AB
ENCODING 171
SWIDTH 420 0
DWIDTH 14 0
BBX 11 12 2 3
BITMAP
0840
1080
2100
4200
8400
8400
4200
4200
2100
1080
0840
0420
ENDCHAR
STARTCHAR 00AC
ENCODING 172
SWIDTH 540 0
DWIDTH 18 0
BBX 14 7 2 5
BITMAP
FFFC
0004
0004
0004
0004
0004
0004
ENDCHAR
STARTCHAR 00AD
ENCODING 173
SWIDTH 360 0
DWIDTH 12 0
BBX 9 1 2 8
BITMAP
FF80
ENDCHAR
STARTCHAR 00AE
ENCODING 174
SWIDTH 810 0
DWIDTH 27 0
BBX 24 23 2 0
BITMAP
01FF00
0600C0
080030
100008
21F808
410304
410082
810082
810042
810082
810082
810081
810702
81FC02
810202
810102
410104
410084
200008
100010
080020
0600C0
01FE00
ENDCHAR
STARTCHAR 00AF
ENCODING 175
SWIDTH 600 0
DWIDTH 20 0
BBX 8 1 6 22
BITMAP
FF
ENDCHAR
STARTCHAR 00B0
ENCODING 176
SWIDTH 420 0
DWIDTH 14 0
BBX 10 10 2 13
BITMAP
3F00
4080
8040
8040
8040
8040
8040
4080
2100
1A00
ENDCHAR
STARTCHAR 00B1
ENCODING 177
SWIDTH 540 0
DWIDTH 18 0
BBX 14 18 2 0
BITMAP
0100
0100
0100
0100
0100
0100
FFFC
0100
0100
0100
0100
0100
0100
0000
0000
0000
0000
FFFC
ENDCHAR
STARTCHAR 00B2
ENCODING 178
SWIDTH 420 0
DWIDTH 14 0
BBX 10 14 2 11
BITMAP
1E00
C180
0080
0080
0080
0080
0100
0200
0400
0800
1000
2000
4000
FFC0
ENDCHAR
STARTCHAR 00B3
ENCODING 179
SWIDTH 420 0
DWIDTH 14 0
BBX 11 14 1 11
BITMAP
FFC0
0040
0080
0100
0200
0400
0600
01C0
0020
0020
0020
0020
4040
3F80
ENDCHAR
STARTCHAR 00B4
ENCODING 180
SWIDTH 600 0
DWIDTH 20 0
BBX 5 4 9 20
BITMAP
08
30
40
80
ENDCHAR
STARTCHAR 00B5
ENCODING 181
SWIDTH 660 0
DWIDTH 22 0
BBX 15 23 4 -6
BITMAP
8002
8002
8002
8002
8002
8002
8002
8002
8002
8002
8002
8002
8006
800A
C00A
A012
9FE2
8000
8000
8000
8000
8000
8000
ENDCHAR
STARTCHAR 00B6
ENCODING 182
SWIDTH 600 0
DWIDTH 20 0
BBX 15 28 1 -3
BITMAP
0FFE
3E02
7E02
FE02
FE02
FE02
FE02
FE02
7E02
3E02
1E02
0202
0202
0202
0202
0202
0202
0202
0202
0202
0202
0202
0202
0202
0202
0202
0202
0202
ENDCHAR
STARTCHAR 00B7
ENCODING 183
SWIDTH 210 0
DWIDTH 7 0
BBX 2 2 3 8
BITMAP
80
C0
ENDCHAR
STARTCHAR 00B8
ENCODING 184
SWIDTH 600 0
DWIDTH 20 0
BBX 6 7 7 -7
BITMAP
20
20
18
08
04
08
F0
ENDCHAR
STARTCHAR 00B9
ENCODING 185
SWIDTH 420 0
DWIDTH 14 0
BBX 9 14 3 11
BITMAP
F800
0800
0800
0800
0800
0800
0800
0800
0800
0800
0800
0800
0800
FF80
ENDCHAR
STARTCHAR 00BA
ENCODING 186
SWIDTH 390 0
DWIDTH 13 0
BBX 11 11 1 14
BITMAP
0F00
3080
4040
8020
8020
8020
8020
8020
4040
3080
0F00
ENDCHAR
STARTCHAR 00BB
ENCODING 187
SWIDTH 420 0
DWIDTH 14 0
BBX 10 12 2 2
BITMAP
8400
8400
4200
2100
1080
1080
0840
1080
2100
2100
4200
8400
ENDCHAR
STARTCHAR 00BC
ENCODING 188
SWIDTH 1020 0
DWIDTH 34 0
BBX 30 23 3 0
BITMAP
78000400
08000800
08001000
08001000
08002000
08004000
08004000
08008000
08010000
08010040
08020080
08040100
08040200
FF880200
00100400
00100840
00201040
00402040
00803FFC
00800040
01000040
02000040
02000040
ENDCHAR
STARTCHAR 00BD
ENCODING 189
SWIDTH 1020 0
DWIDTH 34 0
BBX 29 23 3 0
BITMAP
78000400
08000800
08001000
08001000
08002000
08004000
08004000
08008000
08010000
080107C0
08023020
08040010
08040010
FF880010
00100010
00100020
00200040
00400080
00800100
00800200
01000400
02001800
02003FF8
ENDCHAR
STARTCHAR 00BE
ENCODING 190
SWIDTH 1020 0
DWIDTH 34 0
BBX 32 23 1 0
BITMAP
7FC00100
00800200
01000400
01000400
02000800
04001000
03801000
00402000
00204000
00204010
00208020
80210040
60410080
17820080
00040100
00040210
00080410
00100810
00200FFF
00200010
00400010
00800010
00800010
ENDCHAR
STARTCHAR 00BF
ENCODING 191
SWIDTH 540 0
DWIDTH 18 0
BBX 15 22 3 -5
BITMAP
0300
0000
0000
0000
0000
0000
0200
0200
0200
0400
0800
1000
2000
4000
8000
8000
8000
8000
8000
4002
200C
1FF0
ENDCHAR
STARTCHAR 00C0
ENCODING 192
SWIDTH 660 0
DWIDTH 22 0
BBX 22 29 0 0
BITMAP
018000
004000
002000
001800
000000
000000
001000
002800
002800
004400
004400
008200
008200
010200
010100
020100
020080
040080
040040
080040
080020
0FFFE0
100010
100010
200008
200008
400008
400004
800004
ENDCHAR
STARTCHAR 00C1
ENCODING 193
SWIDTH 660 0
DWIDTH 22 0
BBX 22 29 0 0
BITMAP
000200
000400
000800
003000
000000
000000
001000
002800
002800
004400
004400
008200
008200
010200
010100
020100
020080
040080
040040
080040
080020
0FFFE0
100010
100010
200008
200008
400008
400004
800004
ENDCHAR
STARTCHAR 00C2
ENCODING 194
SWIDTH 660 0
DWIDTH 22 0
BBX 22 29 0 0
BITMAP
003000
004C00
008200
010100
000000
000000
001000
002800
002800
004400
004400
008200
008200
010200
010100
020100
020080
040080
040040
080040
080020
0FFFE0
100010
100010
200008
200008
400008
400004
800004
ENDCHAR
STARTCHAR 00C3
ENCODING 195
SWIDTH 660 0
DWIDTH 22 0
BBX 22 29 0 0
BITMAP
004000
01B100
010A00
000400
000000
000000
001000
002800
002800
004400
004400
008200
008200
010200
010100
020100
020080
040080
040040
080040
080020
0FFFE0
100010
100010
200008
200008
400008
400004
800004
ENDCHAR
STARTCHAR 00C4
ENCODING 196
SWIDTH 660 0
DWIDTH 22 0
BBX 22 28 0 0
BITMAP
00C600
008200
000000
000000
000000
001000
002800
002800
004400
004400
008200
008200
010200
010100
020100
020080
040080
040040
080040
080020
0FFFE0
100010
100010
200008
200008
400008
400004
800004
ENDCHAR
STARTCHAR 00C5
ENCODING 197
SWIDTH 660 0
DWIDTH 22 0
BBX 22 32 0 0
BITMAP
003800
004400
008400
008400
004400
003800
000000
000000
000000
001000
002800
002800
004400
004400
008200
008200
010200
010100
020100
020080
040080
040040
080040
080020
0FFFE0
100010
100010
200008
200008
400008
400004
800004
ENDCHAR
STARTCHAR 00C6
ENCODING 198
SWIDTH 990 0
DWIDTH 33 0
BBX 31 23 0 0
BITMAP
0003FFFC
00030000
00050000
00090000
00090000
00110000
00110000
00210000
00410000
00410000
00810000
01017FF8
01010000
02010000
04010000
07FF0000
08010000
08010000
10010000
20010000
20010000
40010000
8000FFFE
ENDCHAR
STARTCHAR 00C7
ENCODING 199
SWIDTH 690 0
DWIDTH 23 0
BBX 20 30 2 -7
BITMAP
01FF80
060060
080010
100000
200000
400000
400000
800000
800000
800000
800000
800000
800000
800000
800000
800000
400000
400000
200000
100000
080020
060040
01FF80
001000
002000
001800
000400
000400
000400
007800
ENDCHAR
STARTCHAR 00C8
ENCODING 200
SWIDTH 660 0
DWIDTH 22 0
BBX 16 29 4 0
BITMAP
0800
0600
0100
0080
0000
0000
FFFE
8000
8000
8000
8000
8000
8000
8000
8000
8000
8000
FFF8
8000
8000
8000
8000
8000
8000
8000
8000
8000
8000
FFFF
ENDCHAR
STARTCHAR 00C9
ENCODING 201
SWIDTH 660 0
DWIDTH 22 0
BBX 16 29 4 0
BITMAP
0010
0060
0080
0100
0000
0000
FFFE
8000
8000
8000
8000
8000
8000
8000
8000
8000
8000
FFF8
8000
8000
8000
8000
8000
8000
8000
8000
8000
8000
FFFF
ENDCHAR
STARTCHAR 00CA
ENCODING 202
SWIDTH 660 0
DWIDTH 22 0
BBX 16 29 4 0
BITMAP
0180
0240
0420
0810
0000
0000
FFFE
8000
8000
8000
8000
8000
8000
8000
8000
8000
8000
FFF8
8000
8000
8000
8000
8000
8000
8000
8000
8000
8000
FFFF
ENDCHAR
STARTCHAR 00CB
ENCODING 203
SWIDTH 660 0
DWIDTH 22 0
BBX 16 28 4 0
BITMAP
0C30
0420
0000
0000
0000
FFFE
8000
8000
8000
8000
8000
8000
8000
8000
8000
8000
FFF8
8000
8000
8000
8000
8000
8000
8000
8000
8000
8000
FFFF
ENDCHAR
STARTCHAR 00CC
ENCODING 204
SWIDTH 270 0
DWIDTH 9 0
BBX 5 29 1 0
BITMAP
80
40
30
08
00
00
10
10
10
10
10
10
10
10
10
10
10
10
10
10
10
10
10
10
10
10
10
10
10
ENDCHAR
STARTCHAR 00CD
ENCODING 205
SWIDTH 270 0
DWIDTH 9 0
BBX 5 29 4 0
BITMAP
18
20
40
80
00
00
80
80
80
80
80
80
80
80
80
80
80
80
80
80
80
80
80
80
80
80
80
80
80
ENDCHAR
STARTCHAR 00CE
ENCODING 206
SWIDTH 270 0
DWIDTH 9 0
BBX 9 29 0 0
BITMAP
0C00
1200
2100
C080
0000
0000
0800
0800
0800
0800
0800
0800
0800
0800
0800
0800
0800
0800
0800
0800
0800
0800
0800
0800
0800
0800
0800
0800
0800
ENDCHAR
STARTCHAR 00CF
ENCODING 207
SWIDTH 270 0
DWIDTH 9 0
BBX 7 28 1 0
BITMAP
C2
02
00
00
00
10
10
10
10
10
10
10
10
10
10
10
10
10
10
10
10
10
10
10
10
10
10
10
ENDCHAR
STARTCHAR 00D0
ENCODING 208
SWIDTH 810 0
DWIDTH 27 0
BBX 25 23 1 0
BITMAP
1FFF8000
10006000
10001800
10000400
10000400
10000200
10000100
10000100
10000100
10000100
10000080
FFE00080
10000080
10000100
10000100
10000100
10000200
10000200
10000400
10000800
10001000
10006000
1FFF8000
ENDCHAR
STARTCHAR 00D1
ENCODING 209
SWIDTH 810 0
DWIDTH 27 0
BBX 19 29 4 0
BITMAP
010000
06C400
042800
001000
000000
000000
C00020
C00020
A00020
900020
880020
840020
840020
820020
810020
808020
808020
804020
802020
801020
801020
800820
800420
800220
800120
800120
8000A0
800060
800020
ENDCHAR
STARTCHAR 00D2
ENCODING 210
SWIDTH 810 0
DWIDTH 27 0
BBX 24 29 2 0
BITMAP
008000
006000
001000
000800
000000
000000
01FF80
060060
080010
100008
200004
400004
400002
800002
800001
800001
800001
800001
800001
800001
800002
800002
400002
400004
200004
100008
080010
060060
01FF80
ENDCHAR
STARTCHAR 00D3
ENCODING 211
SWIDTH 810 0
DWIDTH 27 0
BBX 24 29 2 0
BITMAP
000100
000600
000800
001000
000000
000000
01FF80
060060
080010
100008
200004
400004
400002
800002
800001
800001
800001
800001
800001
800001
800002
800002
400002
400004
200004
100008
080010
060060
01FF80
ENDCHAR
STARTCHAR 00D4
ENCODING 212
SWIDTH 810 0
DWIDTH 27 0
BBX 24 29 2 0
BITMAP
001800
002400
004200
008100
000000
000000
01FF80
060060
080010
100008
200004
400004
400002
800002
800001
800001
800001
800001
800001
800001
800002
800002
400002
400004
200004
100008
080010
060060
01FF80
ENDCHAR
STARTCHAR 00D5
ENCODING 213
SWIDTH 810 0
DWIDTH 27 0
BBX 24 28 2 1
BITMAP
00B100
010900
000600
000000
000000
01FF80
060060
080010
100008
200004
400004
400002
800002
800001
800001
800001
800001
800001
800001
800002
800002
400002
400004
200004
100008
080010
060060
01FF80
ENDCHAR
STARTCHAR 00D6
ENCODING 214
SWIDTH 810 0
DWIDTH 27 0
BBX 24 28 2 0
BITMAP
00C200
004200
000000
000000
000000
01FF80
060060
080010
100008
200004
400004
400002
800002
800001
800001
800001
800001
800001
800001
800002
800002
400002
400004
200004
100008
080010
060060
01FF80
ENDCHAR
STARTCHAR 00D7
ENCODING 215
SWIDTH 540 0
DWIDTH 18 0
BBX 10 10 4 7
BITMAP
8000
4040
2080
1100
0A00
0400
0A00
1100
2080
4040
ENDCHAR
STARTCHAR 00D8
ENCODING 216
SWIDTH 810 0
DWIDTH 27 0
BBX 24 27 2 -1
BITMAP
000004
000008
01FF90
060070
080030
100048
200084
400084
400102
800202
800401
800401
800801
801001
802001
802001
804002
808002
408002
410004
220004
140008
0C0010
0A0060
11FF80
200000
200000
ENDCHAR
STARTCHAR 00D9
ENCODING 217
SWIDTH 780 0
DWIDTH 26 0
BBX 18 29 4 0
BITMAP
060000
010000
008000
004000
000000
000000
800040
800040
800040
800040
800040
800040
800040
800040
800040
800040
800040
800040
800040
800040
800040
800040
800040
400040
400080
200080
200100
180200
07FC00
ENDCHAR
STARTCHAR 00DA
ENCODING 218
SWIDTH 780 0
DWIDTH 26 0
BBX 18 29 4 0
BITMAP
000800
001000
006000
008000
000000
000000
800040
800040
800040
800040
800040
800040
800040
800040
800040
800040
800040
800040
800040
800040
800040
800040
800040
400040
400080
200080
200100
180200
07FC00
ENDCHAR
STARTCHAR 00DB
ENCODING 219
SWIDTH 780 0
DWIDTH 26 0
BBX 18 29 4 0
BITMAP
00C000
012000
021000
040C00
000000
000000
800040
800040
800040
800040
800040
800040
800040
800040
800040
800040
800040
800040
800040
800040
800040
800040
800040
400040
400080
200080
200100
180200
07FC00
ENDCHAR
STARTCHAR 00DC
ENCODING 220
SWIDTH 780 0
DWIDTH 26 0
BBX 18 28 4 0
BITMAP
021800
020000
000000
000000
000000
800040
800040
800040
800040
800040
800040
800040
800040
800040
800040
800040
800040
800040
800040
800040
800040
800040
400040
400080
200080
200100
180200
07FC00
ENDCHAR
STARTCHAR 00DD
ENCODING 221
SWIDTH 600 0
DWIDTH 20 0
BBX 19 29 1 0
BITMAP
000800
001000
006000
008000
000000
000000
800060
800040
400080
400080
200100
100200
100200
080400
040400
040800
021000
021000
012000
00C000
00C000
004000
004000
004000
004000
004000
004000
004000
004000
ENDCHAR
STARTCHAR 00DE
ENCODING 222
SWIDTH 690 0
DWIDTH 23 0
BBX 17 23 4 0
BITMAP
800000
800000
800000
FFF000
800C00
800300
800100
800080
800080
800080
800080
800080
800080
800080
800080
800100
800200
803C00
FFC000
800000
800000
800000
800000
ENDCHAR
STARTCHAR 00DF
ENCODING 223
SWIDTH 630 0
DWIDTH 21 0
BBX 16 25 4 0
BITMAP
07C0
1830
6008
4008
8004
8004
8004
8004
8004
8008
8010
8020
83E0
8018
8006
8002
8001
8001
8001
8001
8001
8002
8002
8008
87F0
ENDCHAR
STARTCHAR 00E0
ENCODING 224
SWIDTH 570 0
DWIDTH 19 0
BBX 14 24 2 0
BITMAP
1000
0C00
0200
0100
0000
0000
0000
1FE0
2010
4008
0008
0008
0008
0004
0004
3FFC
4004
8004
8004
8004
800C
8014
6024
1F84
ENDCHAR
STARTCHAR 00E1
ENCODING 225
SWIDTH 570 0
DWIDTH 19 0
BBX 14 24 2 0
BITMAP
0020
00C0
0100
0200
0000
0000
0000
1FE0
2010
4008
0008
0008
0008
0004
0004
3FFC
4004
8004
8004
8004
800C
8014
6024
1F84
ENDCHAR
STARTCHAR 00E2
ENCODING 226
SWIDTH 570 0
DWIDTH 19 0
BBX 14 24 2 0
BITMAP
0300
0480
0840
1020
0000
0000
0000
1FE0
2010
4008
0008
0008
0008
0004
0004
3FFC
4004
8004
8004
8004
800C
8014
6024
1F84
ENDCHAR
STARTCHAR 00E3
ENCODING 227
SWIDTH 570 0
DWIDTH 19 0
BBX 14 24 2 0
BITMAP
0C00
1220
2120
00C0
0000
0000
0000
1FE0
2010
4008
0008
0008
0008
0004
0004
3FFC
4004
8004
8004
8004
800C
8014
6024
1F84
ENDCHAR
STARTCHAR 00E4
ENCODING 228
SWIDTH 570 0
DWIDTH 19 0
BBX 14 23 2 0
BITMAP
0860
0800
0000
0000
0000
0000
1FE0
2010
4008
0008
0008
0008
0004
0004
3FFC
4004
8004
8004
8004
800C
8014
6024
1F84
ENDCHAR
STARTCHAR 00E5
ENCODING 229
SWIDTH 570 0
DWIDTH 19 0
BBX 14 26 2 0
BITMAP
0780
0840
0840
0840
0840
0780
0000
0000
0000
1FE0
2010
4008
0008
0008
0008
0004
0004
3FFC
4004
8004
8004
8004
800C
8014
6024
1F84
ENDCHAR
STARTCHAR 00E6
ENCODING 230
SWIDTH 960 0
DWIDTH 32 0
BBX 29 17 2 0
BITMAP
1FE07F00
201080C0
40090020
000A0010
000C0010
00040010
00040008
00040008
3FFFFFF0
40040000
80040000
80040000
800E0000
800A0000
80110010
60208060
1FC07F80
ENDCHAR
STARTCHAR 00E7
ENCODING 231
SWIDTH 540 0
DWIDTH 18 0
BBX 14 24 2 -7
BITMAP
0FF0
100C
2000
4000
8000
8000
8000
8000
8000
8000
8000
8000
8000
4000
2004
1008
0FF0
0100
0100
0180
0040
0040
0040
0780
ENDCHAR
STARTCHAR 00E8
ENCODING 232
SWIDTH 570 0
DWIDTH 19 0
BBX 16 24 2 0
BITMAP
0800
0400
0300
0080
0000
0000
0000
0FE0
1018
2004
4002
8002
8002
8001
8001
FFFE
8000
8000
8000
8000
4000
2002
100C
0FF0
ENDCHAR
STARTCHAR 00E9
ENCODING 233
SWIDTH 570 0
DWIDTH 19 0
BBX 16 24 2 0
BITMAP
0030
0040
0080
0100
0000
0000
0000
0FE0
1018
2004
4002
8002
8002
8001
8001
FFFE
8000
8000
8000
8000
4000
2002
100C
0FF0
ENDCHAR
STARTCHAR 00EA
ENCODING 234
SWIDTH 570 0
DWIDTH 19 0
BBX 16 24 2 0
BITMAP
0180
0240
0420
1810
0000
0000
0000
0FE0
1018
2004
4002
8002
8002
8001
8001
FFFE
8000
8000
8000
8000
4000
2002
100C
0FF0
ENDCHAR
STARTCHAR 00EB
ENCODING 235
SWIDTH 570 0
DWIDTH 19 0
BBX 16 23 2 0
BITMAP
0C20
0420
0000
0000
0000
0000
0FE0
1018
2004
4002
8002
8002
8001
8001
FFFE
8000
8000
8000
8000
4000
2002
100C
0FF0
ENDCHAR
STARTCHAR 00EC
ENCODING 236
SWIDTH 240 0
DWIDTH 8 0
BBX 5 24 0 0
BITMAP
C0
20
10
08
00
00
00
08
08
08
08
08
08
08
08
08
08
08
08
08
08
08
08
08
ENDCHAR
STARTCHAR 00ED
ENCODING 237
SWIDTH 240 0
DWIDTH 8 0
BBX 5 24 3 0
BITMAP
08
10
60
80
00
00
00
40
40
40
40
40
40
40
40
40
40
40
40
40
40
40
40
40
ENDCHAR
STARTCHAR 00EE
ENCODING 238
SWIDTH 240 0
DWIDTH 8 0
BBX 7 24 1 0
BITMAP
30
48
84
82
00
00
00
10
10
10
10
10
10
10
10
10
10
10
10
10
10
10
10
10
ENDCHAR
STARTCHAR 00EF
ENCODING 239
SWIDTH 240 0
DWIDTH 8 0
BBX 5 23 2 0
BITMAP
98
80
00
00
00
00
20
20
20
20
20
20
20
20
20
20
20
20
20
20
20
20
20
ENDCHAR
STARTCHAR 00F0
ENCODING 240
SWIDTH 600 0
DWIDTH 20 0
BBX 17 23 2 0
BITMAP
7FE600
001800
00E400
030200
0C0200
100100
000100
000100
000080
0FF080
300880
400480
800280
800280
800180
800100
800100
800100
800200
800200
400400
300800
0FF000
ENDCHAR
STARTCHAR 00F1
ENCODING 241
SWIDTH 660 0
DWIDTH 22 0
BBX 15 23 4 1
BITMAP
1A10
21A0
0040
0000
0000
0000
8FE0
B018
C004
C004
8004
8002
8002
8002
8002
8002
8002
8002
8002
8002
8002
8002
8002
ENDCHAR
STARTCHAR 00F2
ENCODING 242
SWIDTH 600 0
DWIDTH 20 0
BBX 17 24 2 0
BITMAP
0C0000
020000
010000
008000
000000
000000
000000
0FF000
100800
200600
400200
800100
800100
800100
800100
800080
800100
800100
800100
800100
400200
200400
100800
0FF000
ENDCHAR
STARTCHAR 00F3
ENCODING 243
SWIDTH 600 0
DWIDTH 20 0
BBX 17 24 2 0
BITMAP
001000
002000
00C000
010000
000000
000000
000000
0FF000
100800
200600
400200
800100
800100
800100
800100
800080
800100
800100
800100
800100
400200
200400
100800
0FF000
ENDCHAR
STARTCHAR 00F4
ENCODING 244
SWIDTH 600 0
DWIDTH 20 0
BBX 17 24 2 0
BITMAP
018000
024000
042000
081000
000000
000000
000000
0FF000
100800
200600
400200
800100
800100
800100
800100
800080
800100
800100
800100
800100
400200
200400
100800
0FF000
ENDCHAR
STARTCHAR 00F5
ENCODING 245
SWIDTH 600 0
DWIDTH 20 0
BBX 17 23 2 1
BITMAP
0D0800
10D000
002000
000000
000000
000000
0FF000
100800
200600
400200
800100
800100
800100
800100
800080
800100
800100
800100
800100
400200
200400
100800
0FF000
ENDCHAR
STARTCHAR 00F6
ENCODING 246
SWIDTH 600 0
DWIDTH 20 0
BBX 17 23 2 0
BITMAP
043000
040000
000000
000000
000000
000000
0FF000
100800
200600
400200
800100
800100
800100
800100
800080
800100
800100
800100
800100
400200
200400
100800
0FF000
ENDCHAR
STARTCHAR 00F7
ENCODING 247
SWIDTH 540 0
DWIDTH 18 0
BBX 14 14 2 5
BITMAP
0100
0300
0000
0000
0000
0000
0000
FFFC
0000
0000
0000
0000
0100
0100
ENDCHAR
STARTCHAR 00F8
ENCODING 248
SWIDTH 600 0
DWIDTH 20 0
BBX 17 22 2 -2
BITMAP
000100
000200
000200
0FF400
100800
200E00
401200
802100
804100
804100
808100
810080
810100
820100
840100
840100
480200
300400
100800
2FF000
400000
400000
ENDCHAR
STARTCHAR 00F9
ENCODING 249
SWIDTH 660 0
DWIDTH 22 0
BBX 14 24 4 0
BITMAP
1000
0C00
0200
0100
0000
0000
0000
8004
8004
8004
8004
8004
8004
8004
8004
8004
8004
8004
8004
8004
800C
4014
2024
1FC4
ENDCHAR
STARTCHAR 00FA
ENCODING 250
SWIDTH 660 0
DWIDTH 22 0
BBX 14 24 4 0
BITMAP
0020
00C0
0100
0200
0000
0000
0000
8004
8004
8004
8004
8004
8004
8004
8004
8004
8004
8004
8004
8004
800C
4014
2024
1FC4
ENDCHAR
STARTCHAR 00FB
ENCODING 251
SWIDTH 660 0
DWIDTH 22 0
BBX 14 24 4 0
BITMAP
0300
0480
0840
1020
0000
0000
0000
8004
8004
8004
8004
8004
8004
8004
8004
8004
8004
8004
8004
8004
800C
4014
2024
1FC4
ENDCHAR
STARTCHAR 00FC
ENCODING 252
SWIDTH 660 0
DWIDTH 22 0
BBX 14 23 4 0
BITMAP
1860
0840
0000
0000
0000
0000
8004
8004
8004
8004
8004
8004
8004
8004
8004
8004
8004
8004
8004
800C
4014
2024
1FC4
ENDCHAR
STARTCHAR 00FD
ENCODING 253
SWIDTH 480 0
DWIDTH 16 0
BBX 17 31 -1 -7
BITMAP
000800
003000
004000
008000
000000
000000
000000
400080
200080
200100
100100
100100
080200
080200
080400
040400
040800
020800
021000
011000
012000
00A000
00A000
004000
004000
008000
008000
010000
010000
C20000
3C0000
ENDCHAR
STARTCHAR 00FE
ENCODING 254
SWIDTH 660 0
DWIDTH 22 0
BBX 17 31 4 -6
BITMAP
800000
800000
800000
800000
800000
800000
800000
800000
87F000
980800
A00600
C00200
800100
800100
800100
800080
800080
800080
800100
800100
800100
C00200
A00400
900800
8FF000
800000
800000
800000
800000
800000
800000
ENDCHAR
STARTCHAR 00FF
ENCODING 255
SWIDTH 480 0
DWIDTH 16 0
BBX 17 30 -1 -7
BITMAP
061800
021000
000000
000000
000000
000000
400080
200080
200100
100100
100100
080200
080200
080400
040400
040800
020800
021000
011000
012000
00A000
00A000
004000
004000
008000
008000
010000
010000
C20000
3C0000
ENDCHAR
STARTCHAR 0100
ENCODING 256
SWIDTH 660 0
DWIDTH 22 0
BBX 22 27 0 0
BITMAP
01FF00
000000
000000
000000
001000
002800
002800
004400
004400
008200
008200
010200
010100
020100
020080
040080
040040
080040
080020
0FFFE0
100010
100010
200008
200008
400008
400004
800004
ENDCHAR
STARTCHAR 0101
ENCODING 257
SWIDTH 570 0
DWIDTH 19 0
BBX 14 22 2 0
BITMAP
1FE0
0000
0000
0000
0000
1FE0
2010
4008
0008
0008
0008
0004
0004
3FFC
4004
8004
8004
8004
800C
8014
6024
1F84
ENDCHAR
STARTCHAR 0102
ENCODING 258
SWIDTH 660 0
DWIDTH 22 0
BBX 22 29 0 0
BITMAP
010100
010100
008200
003C00
000000
000000
001000
002800
002800
004400
004400
008200
008200
010200
010100
020100
020080
040080
040040
080040
080020
0FFFE0
100010
100010
200008
200008
400008
400004
800004
ENDCHAR
STARTCHAR 0103
ENCODING 259
SWIDTH 570 0
DWIDTH 19 0
BBX 14 23 2 1
BITMAP
1020
0820
07C0
0000
0000
0000
1FE0
2010
4008
0008
0008
0008
0004
0004
3FFC
4004
8004
8004
8004
800C
8014
6024
1F84
ENDCHAR
STARTCHAR 0104
ENCODING 260
SWIDTH 660 0
DWIDTH 22 0
BBX 23 30 0 -7
BITMAP
001000
002800
002800
004400
004400
008200
008200
010200
010100
020100
020080
040080
040040
080040
080020
0FFFE0
100010
100010
200008
200008
400008
400004
800004
00000C
000010
000020
000020
000040
000020
00001E
ENDCHAR
STARTCHAR 0105
ENCODING 261
SWIDTH 570 0
DWIDTH 19 0
BBX 14 24 2 -7
BITMAP
1FE0
2010
4008
0008
0008
0008
0004
0004
3FFC
4004
8004
8004
8004
800C
8014
6024
1F84
0018
0020
0040
0080
0080
0040
003C
ENDCHAR
STARTCHAR 0106
ENCODING 262
SWIDTH 690 0
DWIDTH 23 0
BBX 20 29 2 0
BITMAP
000300
000400
000800
003000
000000
000000
01FF80
060060
080010
100000
200000
400000
400000
800000
800000
800000
800000
800000
800000
800000
800000
800000
400000
400000
200000
100000
080020
060040
01FF80
ENDCHAR
STARTCHAR 0107
ENCODING 263
SWIDTH 540 0
DWIDTH 18 0
BBX 14 24 2 0
BITMAP
0030
0040
0080
0100
0000
0000
0000
0FF0
100C
2000
4000
8000
8000
8000
8000
8000
8000
8000
8000
8000
4000
2004
1008
0FF0
ENDCHAR
STARTCHAR 0108
ENCODING 264
SWIDTH 690 0
DWIDTH 23 0
BBX 20 29 2 0
BITMAP
001800
002400
00C200
010100
000000
000000
01FF80
060060
080010
100000
200000
400000
400000
800000
800000
800000
800000
800000
800000
800000
800000
800000
400000
400000
200000
100000
080020
060040
01FF80
ENDCHAR
STARTCHAR 0109
ENCODING 265
SWIDTH 540 0
DWIDTH 18 0
BBX 14 24 2 0
BITMAP
0180
0240
0420
1810
0000
0000
0000
0FF0
100C
2000
4000
8000
8000
8000
8000
8000
8000
8000
8000
8000
4000
2004
1008
0FF0
ENDCHAR
STARTCHAR 010A
ENCODING 266
SWIDTH 690 0
DWIDTH 23 0
BBX 20 28 2 0
BITMAP
001000
001000
000000
000000
000000
01FF80
060060
080010
100000
200000
400000
400000
800000
800000
800000
800000
800000
800000
800000
800000
800000
400000
400000
200000
100000
080020
060040
01FF80
ENDCHAR
STARTCHAR 010B
ENCODING 267
SWIDTH 540 0
DWIDTH 18 0
BBX 14 23 2 0
BITMAP
0180
0100
0000
0000
0000
0000
0FF0
100C
2000
4000
8000
8000
8000
8000
8000
8000
8000
8000
8000
4000
2004
1008
0FF0
ENDCHAR
STARTCHAR 010C
ENCODING 268
SWIDTH 690 0
DWIDTH 23 0
BBX 20 29 2 0
BITMAP
010100
00C200
002C00
001000
000000
000000
01FF80
060060
080010
100000
200000
400000
400000
800000
800000
800000
800000
800000
800000
800000
800000
800000
400000
400000
200000
100000
080020
060040
01FF80
ENDCHAR
STARTCHAR 010D
ENCODING 269
SWIDTH 540 0
DWIDTH 18 0
BBX 14 24 2 0
BITMAP
0010
0C20
0240
0180
0000
0000
0000
0FF0
100C
2000
4000
8000
8000
8000
8000
8000
8000
8000
8000
8000
4000
2004
1008
0FF0
ENDCHAR
STARTCHAR 010E
ENCODING 270
SWIDTH 810 0
DWIDTH 27 0
BBX 22 29 4 0
BITMAP
040800
021000
012000
00C000
000000
000000
FFFC00
800300
8000C0
800020
800020
800010
800008
800008
800008
800008
800004
800004
800004
800008
800008
800008
800010
800010
800020
800040
800080
800300
FFFC00
ENDCHAR
STARTCHAR 010F
ENCODING 271
SWIDTH 660 0
DWIDTH 22 0
BBX 21 25 2 0
BITMAP
000088
000088
000088
000090
000090
000080
000080
000080
0FF080
100880
200480
400280
800180
800180
800080
800080
800080
800080
800080
800180
800180
400280
200480
100880
0FF080
ENDCHAR
STARTCHAR 0110
ENCODING 272
SWIDTH 810 0
DWIDTH 27 0
BBX 25 23 1 0
BITMAP
1FFF8000
10006000
10001800
10000400
10000400
10000200
10000100
10000100
10000100
10000100
10000080
FFE00080
10000080
10000100
10000100
10000100
10000200
10000200
10000400
10000800
10001000
10006000
1FFF8000
ENDCHAR
STARTCHAR 0111
ENCODING 273
SWIDTH 660 0
DWIDTH 22 0
BBX 20 25 2 0
BITMAP
000080
000080
000080
000080
00FFF0
000080
000080
000080
0FF080
100880
200480
400280
800180
800180
800080
800080
800080
800080
800080
800180
800180
400280
200480
100880
0FF080
ENDCHAR
STARTCHAR 0112
ENCODING 274
SWIDTH 660 0
DWIDTH 22 0
BBX 16 27 4 0
BITMAP
0FF0
0000
0000
0000
FFFE
8000
8000
8000
8000
8000
8000
8000
8000
8000
8000
FFF8
8000
8000
8000
8000
8000
8000
8000
8000
8000
8000
FFFF
ENDCHAR
STARTCHAR 0113
ENCODING 275
SWIDTH 570 0
DWIDTH 19 0
BBX 16 22 2 0
BITMAP
0FF0
0000
0000
0000
0000
0FE0
1018
2004
4002
8002
8002
8001
8001
FFFE
8000
8000
8000
8000
4000
2002
100C
0FF0
ENDCHAR
STARTCHAR 0114
ENCODING 276
SWIDTH 660 0
DWIDTH 22 0
BBX 16 28 4 1
BITMAP
0810
0420
03C0
0000
0000
FFFE
8000
8000
8000
8000
8000
8000
8000
8000
8000
8000
FFF8
8000
8000
8000
8000
8000
8000
8000
8000
8000
8000
FFFF
ENDCHAR
STARTCHAR 0115
ENCODING 277
SWIDTH 570 0
DWIDTH 19 0
BBX 16 24 2 0
BITMAP
1000
1010
0820
07C0
0000
0000
0000
0FE0
1018
2004
4002
8002
8002
8001
8001
FFFE
8000
8000
8000
8000
4000
2002
100C
0FF0
ENDCHAR
STARTCHAR 0116
ENCODING 278
SWIDTH 660 0
DWIDTH 22 0
BBX 16 28 4 0
BITMAP
0180
0000
0000
0000
0000
FFFE
8000
8000
8000
8000
8000
8000
8000
8000
8000
8000
FFF8
8000
8000
8000
8000
8000
8000
8000
8000
8000
8000
FFFF
ENDCHAR
STARTCHAR 0117
ENCODING 279
SWIDTH 570 0
DWIDTH 19 0
BBX 16 23 2 0
BITMAP
0180
0100
0000
0000
0000
0000
0FE0
1018
2004
4002
8002
8002
8001
8001
FFFE
8000
8000
8000
8000
4000
2002
100C
0FF0
ENDCHAR
STARTCHAR 0118
ENCODING 280
SWIDTH 660 0
DWIDTH 22 0
BBX 16 30 4 -7
BITMAP
FFFE
8000
8000
8000
8000
8000
8000
8000
8000
8000
8000
FFF8
8000
8000
8000
8000
8000
8000
8000
8000
8000
8000
FFFF
0002
000C
0010
0010
0010
0010
000F
ENDCHAR
STARTCHAR 0119
ENCODING 281
SWIDTH 570 0
DWIDTH 19 0
BBX 16 24 2 -7
BITMAP
0FE0
1018
2004
4002
8002
8002
8001
8001
FFFE
8000
8000
8000
8000
4000
2002
100C
0FF0
0020
0020
0040
0040
0040
0040
003C
ENDCHAR
STARTCHAR 011A
ENCODING 282
SWIDTH 660 0
DWIDTH 22 0
BBX 16 29 4 0
BITMAP
0810
0420
0240
0180
0000
0000
FFFE
8000
8000
8000
8000
8000
8000
8000
8000
8000
8000
FFF8
8000
8000
8000
8000
8000
8000
8000
8000
8000
8000
FFFF
ENDCHAR
STARTCHAR 011B
ENCODING 283
SWIDTH 570 0
DWIDTH 19 0
BBX 16 24 2 0
BITMAP
0810
0420
0240
0180
0000
0000
0000
0FE0
1018
2004
4002
8002
8002
8001
8001
FFFE
8000
8000
8000
8000
4000
2002
100C
0FF0
ENDCHAR
STARTCHAR 011C
ENCODING 284
SWIDTH 750 0
DWIDTH 25 0
BBX 20 29 2 0
BITMAP
003000
004800
008600
010100
000000
000000
01FF80
060060
080010
100000
200000
400000
400000
800000
800000
800000
800000
800000
800010
800010
800010
800010
400010
400010
200010
100010
080010
060060
01FF80
ENDCHAR
STARTCHAR 011D
ENCODING 285
SWIDTH 660 0
DWIDTH 22 0
BBX 17 31 2 -7
BITMAP
008000
036000
041000
080800
000000
000000
000000
0FF080
100C80
200280
400280
800180
800080
800080
800080
800080
800080
800080
800180
400280
200280
100480
0C1880
03E080
000080
000100
000100
400100
200200
1C0C00
02F000
ENDCHAR
STARTCHAR 011E
ENCODING 286
SWIDTH 750 0
DWIDTH 25 0
BBX 20 29 2 0
BITMAP
010100
010100
008200
007C00
000000
000000
01FF80
060060
080010
100000
200000
400000
400000
800000
800000
800000
800000
800000
800010
800010
800010
800010
400010
400010
200010
100010
080010
060060
01FF80
ENDCHAR
STARTCHAR 011F
ENCODING 287
SWIDTH 660 0
DWIDTH 22 0
BBX 17 31 2 -7
BITMAP
080800
080800
041000
03E000
000000
000000
000000
0FF080
100C80
200280
400280
800180
800080
800080
800080
800080
800080
800080
800180
400280
200280
100480
0C1880
03E080
000080
000100
000100
400100
200200
1C0C00
02F000
ENDCHAR
STARTCHAR 0120
ENCODING 288
SWIDTH 750 0
DWIDTH 25 0
BBX 20 28 2 0
BITMAP
001000
001000
000000
000000
000000
01FF80
060060
080010
100000
200000
400000
400000
800000
800000
800000
800000
800000
800010
800010
800010
800010
400010
400010
200010
100010
080010
060060
01FF80
ENDCHAR
STARTCHAR 0121
ENCODING 289
SWIDTH 660 0
DWIDTH 22 0
BBX 17 30 2 -7
BITMAP
008000
008000
000000
000000
000000
000000
0FF080
100C80
200280
400280
800180
800080
800080
800080
800080
800080
800080
800180
400280
200280
100480
0C1880
03E080
000080
000100
000100
400100
200200
1C0C00
02F000
ENDCHAR
STARTCHAR 0122
ENCODING 290
SWIDTH 750 0
DWIDTH 25 0
BBX 20 31 2 -9
BITMAP
01FF80
060060
080010
100000
200000
400000
400000
800000
800000
800000
800000
800000
800010
800010
800010
800010
400010
400010
200010
100010
080010
060060
01FF80
000000
000000
000000
000000
001000
001000
001000
001000
ENDCHAR
STARTCHAR 0123
ENCODING 291
SWIDTH 660 0
DWIDTH 22 0
BBX 17 32 2 -7
BITMAP
008000
008000
008000
008000
008000
000000
000000
000000
0FF080
100C80
200280
400280
800180
800080
800080
800080
800080
800080
800080
800180
400280
200280
100480
0C1880
03E080
000080
000100
000100
400100
200200
1C0C00
02F000
ENDCHAR
STARTCHAR 0124
ENCODING 292
SWIDTH 810 0
DWIDTH 27 0
BBX 19 29 4 0
BITMAP
006000
009000
030800
040400
000000
000000
800020
800020
800020
800020
800020
800020
800020
800020
800020
800020
800020
FFFFE0
800020
800020
800020
800020
800020
800020
800020
800020
800020
800020
800020
ENDCHAR
STARTCHAR 0125
ENCODING 293
SWIDTH 660 0
DWIDTH 22 0
BBX 19 30 0 0
BITMAP
1C0000
220000
410000
800000
000000
080000
080000
080000
080000
080000
080000
080000
080000
08FE00
0B0180
0C0040
0C0040
080040
080020
080020
080020
080020
080020
080020
080020
080020
080020
080020
080020
080020
ENDCHAR
STARTCHAR 0126
ENCODING 294
SWIDTH 810 0
DWIDTH 27 0
BBX 25 23 1 0
BITMAP
10000400
10000400
10000400
10000400
10000400
FFFFFF80
10000400
10000400
10000400
10000400
10000400
1FFFFC00
10000400
10000400
10000400
10000400
10000400
10000400
10000400
10000400
10000400
10000400
10000400
ENDCHAR
STARTCHAR 0127
ENCODING 295
SWIDTH 660 0
DWIDTH 22 0
BBX 19 25 0 0
BITMAP
080000
080000
080000
080000
FFF000
080000
080000
080000
08FE00
0B0180
0C0040
0C0040
080040
080020
080020
080020
080020
080020
080020
080020
080020
080020
080020
080020
080020
ENDCHAR
STARTCHAR 0128
ENCODING 296
SWIDTH 270 0
DWIDTH 9 0
BBX 9 29 0 0
BITMAP
2000
5880
8480
0300
0000
0000
0800
0800
0800
0800
0800
0800
0800
0800
0800
0800
0800
0800
0800
0800
0800
0800
0800
0800
0800
0800
0800
0800
0800
ENDCHAR
STARTCHAR 0129
ENCODING 297
SWIDTH 240 0
DWIDTH 8 0
BBX 8 24 0 0
BITMAP
20
51
8A
04
00
00
00
08
08
08
08
08
08
08
08
08
08
08
08
08
08
08
08
08
ENDCHAR
STARTCHAR 012A
ENCODING 298
SWIDTH 270 0
DWIDTH 9 0
BBX 6 27 2 0
BITMAP
FC
00
00
00
20
20
20
20
20
20
20
20
20
20
20
20
20
20
20
20
20
20
20
20
20
20
20
ENDCHAR
STARTCHAR 012B
ENCODING 299
SWIDTH 240 0
DWIDTH 8 0
BBX 6 22 1 0
BITMAP
FC
00
00
00
00
10
10
10
10
10
10
10
10
10
10
10
10
10
10
10
10
10
ENDCHAR
STARTCHAR 012C
ENCODING 300
SWIDTH 270 0
DWIDTH 9 0
BBX 9 29 0 0
BITMAP
8080
8080
4100
3E00
0000
0000
0800
0800
0800
0800
0800
0800
0800
0800
0800
0800
0800
0800
0800
0800
0800
0800
0800
0800
0800
0800
0800
0800
0800
ENDCHAR
STARTCHAR 012D
ENCODING 301
SWIDTH 240 0
DWIDTH 8 0
BBX 7 24 1 0
BITMAP
02
82
84
78
00
00
00
10
10
10
10
10
10
10
10
10
10
10
10
10
10
10
10
10
ENDCHAR
STARTCHAR 012E
ENCODING 302
SWIDTH 270 0
DWIDTH 9 0
BBX 3 30 3 -7
BITMAP
40
40
40
40
40
40
40
40
40
40
40
40
40
40
40
40
40
40
40
40
40
40
40
40
80
80
80
80
80
E0
ENDCHAR
STARTCHAR 012F
ENCODING 303
SWIDTH 240 0
DWIDTH 8 0
BBX 4 31 2 -7
BITMAP
20
60
00
00
00
00
00
20
20
20
20
20
20
20
20
20
20
20
20
20
20
20
20
20
40
80
80
80
80
80
70
ENDCHAR
STARTCHAR 0130
ENCODING 304
SWIDTH 270 0
DWIDTH 9 0
BBX 2 28 4 0
BITMAP
C0
80
00
00
00
80
80
80
80
80
80
80
80
80
80
80
80
80
80
80
80
80
80
80
80
80
80
80
ENDCHAR
STARTCHAR 0131
ENCODING 305
SWIDTH 240 0
DWIDTH 8 0
BBX 1 17 4 0
BITMAP
80
80
80
80
80
80
80
80
80
80
80
80
80
80
80
80
80
ENDCHAR
STARTCHAR 0132
ENCODING 306
SWIDTH 690 0
DWIDTH 23 0
BBX 16 23 4 0
BITMAP
8001
8001
8001
8001
8001
8001
8001
8001
8001
8001
8001
8001
8001
0001
0001
0002
0002
0002
0002
0004
8008
4010
3FE0
ENDCHAR
STARTCHAR 0133
ENCODING 307
SWIDTH 480 0
DWIDTH 16 0
BBX 10 31 3 -7
BITMAP
4040
C040
0000
0000
0000
0000
0000
4040
4040
4040
4040
4040
4040
4040
4040
4040
4040
4040
4040
4040
4040
4040
4040
4040
0040
0040
0040
0040
0040
1080
0900
ENDCHAR
STARTCHAR 0134
ENCODING 308
SWIDTH 450 0
DWIDTH 15 0
BBX 12 29 0 0
BITMAP
0300
0480
0840
1020
0000
0000
1FF0
0010
0010
0010
0010
0010
0010
0010
0010
0010
0010
0010
0010
0010
0010
0010
0010
0010
0010
8020
8020
6040
1F80
ENDCHAR
STARTCHAR 0135
ENCODING 309
SWIDTH 240 0
DWIDTH 8 0
BBX 11 31 -3 -7
BITMAP
0300
0280
0440
0820
0000
0000
0000
0100
0100
0100
0100
0100
0100
0100
0100
0100
0100
0100
0100
0100
0100
0100
0100
0100
0100
0100
0100
0100
0200
C600
3800
ENDCHAR
STARTCHAR 0136
ENCODING 310
SWIDTH 690 0
DWIDTH 23 0
BBX 18 31 4 -9
BITMAP
800080
800100
800200
800400
800800
801000
802000
804000
808000
810000
830000
850000
888000
904000
A02000
C01000
800800
800400
800200
800200
800100
800080
800040
000000
000000
000000
000000
008000
008000
008000
008000
ENDCHAR
STARTCHAR 0137
ENCODING 311
SWIDTH 570 0
DWIDTH 19 0
BBX 14 33 4 -9
BITMAP
8000
8000
8000
8000
8000
8000
8000
8000
8008
8010
8020
8040
8180
8200
8400
8A00
9100
A100
C080
8040
8020
8010
8010
8008
8004
0000
0000
0000
0000
0200
0200
0200
0400
ENDCHAR
STARTCHAR 0138
ENCODING 312
SWIDTH 540 0
DWIDTH 18 0
BBX 14 17 4 0
BITMAP
8008
8010
8020
8040
8180
8200
8400
8A00
9100
A100
C080
8040
8020
8010
8010
8008
8004
ENDCHAR
STARTCHAR 0139
ENCODING 313
SWIDTH 570 0
DWIDTH 19 0
BBX 15 29 4 0
BITMAP
1800
2000
4000
8000
0000
0000
8000
8000
8000
8000
8000
8000
8000
8000
8000
8000
8000
8000
8000
8000
8000
8000
8000
8000
8000
8000
8000
8000
FFFE
ENDCHAR
STARTCHAR 013A
ENCODING 314
SWIDTH 240 0
DWIDTH 8 0
BBX 5 31 3 0
BITMAP
18
20
40
80
00
00
40
40
40
40
40
40
40
40
40
40
40
40
40
40
40
40
40
40
40
40
40
40
40
40
40
ENDCHAR
STARTCHAR 013B
ENCODING 315
SWIDTH 570 0
DWIDTH 19 0
BBX 15 32 4 -9
BITMAP
8000
8000
8000
8000
8000
8000
8000
8000
8000
8000
8000
8000
8000
8000
8000
8000
8000
8000
8000
8000
8000
8000
FFFE
0000
0000
0000
0000
0180
0180
0080
0100
0100
ENDCHAR
STARTCHAR 013C
ENCODING 316
SWIDTH 240 0
DWIDTH 8 0
BBX 2 34 3 -9
BITMAP
40
40
40
40
40
40
40
40
40
40
40
40
40
40
40
40
40
40
40
40
40
40
40
40
40
00
00
00
00
C0
C0
40
80
80
ENDCHAR
STARTCHAR 013D
ENCODING 317
SWIDTH 570 0
DWIDTH 19 0
BBX 15 24 4 0
BITMAP
0010
8010
8010
8010
8020
8020
8000
8000
8000
8000
8000
8000
8000
8000
8000
8000
8000
8000
8000
8000
8000
8000
8000
FFFE
ENDCHAR
STARTCHAR 013E
ENCODING 318
SWIDTH 240 0
DWIDTH 8 0
BBX 4 25 4 0
BITMAP
90
90
90
90
90
80
80
80
80
80
80
80
80
80
80
80
80
80
80
80
80
80
80
80
80
ENDCHAR
STARTCHAR 013F
ENCODING 319
SWIDTH 570 0
DWIDTH 19 0
BBX 15 23 4 0
BITMAP
8000
8000
8000
8000
8000
8000
8000
8000
8000
8000
8020
8020
8000
8000
8000
8000
8000
8000
8000
8000
8000
8000
FFFE
ENDCHAR
STARTCHAR 0140
ENCODING 320
SWIDTH 240 0
DWIDTH 8 0
BBX 5 25 4 0
BITMAP
80
80
80
80
80
80
80
80
80
80
80
80
80
98
80
80
80
80
80
80
80
80
80
80
80
ENDCHAR
STARTCHAR 0141
ENCODING 321
SWIDTH 570 0
DWIDTH 19 0
BBX 17 23 2 0
BITMAP
200000
200000
200000
200000
200000
200000
200000
210000
220000
2C0000
300000
200000
E00000
200000
200000
200000
200000
200000
200000
200000
200000
200000
3FFF80
ENDCHAR
STARTCHAR 0142
ENCODING 322
SWIDTH 240 0
DWIDTH 8 0
BBX 6 25 1 0
BITMAP
10
10
10
10
10
10
10
10
10
10
10
14
18
30
50
90
10
10
10
10
10
10
10
10
10
ENDCHAR
STARTCHAR 0143
ENCODING 323
SWIDTH 810 0
DWIDTH 27 0
BBX 19 29 4 0
BITMAP
000C00
001000
002000
00C000
000000
000000
C00020
C00020
A00020
900020
880020
840020
840020
820020
810020
808020
808020
804020
802020
801020
801020
800820
800420
800220
800120
800120
8000A0
800060
800020
ENDCHAR
STARTCHAR 0144
ENCODING 324
SWIDTH 660 0
DWIDTH 22 0
BBX 15 24 4 0
BITMAP
0020
0040
0180
0200
0000
0000
0000
8FE0
B018
C004
C004
8004
8002
8002
8002
8002
8002
8002
8002
8002
8002
8002
8002
8002
ENDCHAR
STARTCHAR 0145
ENCODING 325
SWIDTH 810 0
DWIDTH 27 0
BBX 19 32 4 -9
BITMAP
C00020
C00020
A00020
900020
880020
840020
840020
820020
810020
808020
808020
804020
802020
801020
801020
800820
800420
800220
800120
800120
8000A0
800060
800020
000000
000000
000000
000000
004000
004000
004000
004000
004000
ENDCHAR
STARTCHAR 0146
ENCODING 326
SWIDTH 660 0
DWIDTH 22 0
BBX 15 26 4 -9
BITMAP
8FE0
B018
C004
C004
8004
8002
8002
8002
8002
8002
8002
8002
8002
8002
8002
8002
8002
0000
0000
0000
0000
0300
0300
0100
0200
0200
ENDCHAR
STARTCHAR 0147
ENCODING 327
SWIDTH 810 0
DWIDTH 27 0
BBX 19 29 4 0
BITMAP
040400
030800
00B000
004000
000000
000000
C00020
C00020
A00020
900020
880020
840020
840020
820020
810020
808020
808020
804020
802020
801020
801020
800820
800420
800220
800120
800120
8000A0
800060
800020
ENDCHAR
STARTCHAR 0148
ENCODING 328
SWIDTH 660 0
DWIDTH 22 0
BBX 15 24 4 0
BITMAP
1020
0840
0480
0300
0000
0000
0000
8FE0
B018
C004
C004
8004
8002
8002
8002
8002
8002
8002
8002
8002
8002
8002
8002
8002
ENDCHAR
STARTCHAR 0149
ENCODING 329
SWIDTH 690 0
DWIDTH 23 0
BBX 18 25 2 0
BITMAP
C00000
C00000
400000
800000
800000
800000
000000
000000
11FE00
120100
140080
180080
100040
100040
100040
100040
100040
100040
100040
100040
100040
100040
100040
100040
100040
ENDCHAR
STARTCHAR 014A
ENCODING 330
SWIDTH 810 0
DWIDTH 27 0
BBX 19 30 4 -7
BITMAP
C00020
C00020
A00020
900020
880020
840020
840020
820020
810020
808020
808020
804020
802020
801020
801020
800820
800420
800220
800120
800120
8000A0
800060
800020
000020
000020
000040
010040
008040
006180
001200
ENDCHAR
STARTCHAR 014B
ENCODING 331
SWIDTH 660 0
DWIDTH 22 0
BBX 15 24 4 -7
BITMAP
8FE0
B018
C004
C004
8004
8002
8002
8002
8002
8002
8002
8002
8002
8002
8002
8002
8002
0002
0002
0002
0002
0004
0188
0070
ENDCHAR
STARTCHAR 014C
ENCODING 332
SWIDTH 810 0
DWIDTH 27 0
BBX 24 27 2 0
BITMAP
00FF00
000000
000000
000000
01FF80
060060
080010
100008
200004
400004
400002
800002
800001
800001
800001
800001
800001
800001
800002
800002
400002
400004
200004
100008
080010
060060
01FF80
ENDCHAR
STARTCHAR 014D
ENCODING 333
SWIDTH 600 0
DWIDTH 20 0
BBX 17 22 2 0
BITMAP
0FF000
000000
000000
000000
000000
0FF000
100800
200600
400200
800100
800100
800100
800100
800080
800100
800100
800100
800100
400200
200400
100800
0FF000
ENDCHAR
STARTCHAR 014E
ENCODING 334
SWIDTH 810 0
DWIDTH 27 0
BBX 24 28 2 1
BITMAP
008100
008200
007C00
000000
000000
01FF80
060060
080010
100008
200004
400004
400002
800002
800001
800001
800001
800001
800001
800001
800002
800002
400002
400004
200004
100008
080010
060060
01FF80
ENDCHAR
STARTCHAR 014F
ENCODING 335
SWIDTH 600 0
DWIDTH 20 0
BBX 17 24 2 0
BITMAP
000800
081000
041000
03E000
000000
000000
000000
0FF000
100800
200600
400200
800100
800100
800100
800100
800080
800100
800100
800100
800100
400200
200400
100800
0FF000
ENDCHAR
STARTCHAR 0150
ENCODING 336
SWIDTH 810 0
DWIDTH 27 0
BBX 24 29 2 0
BITMAP
000C40
001880
002100
004200
000000
000000
01FF80
060060
080010
100008
200004
400004
400002
800002
800001
800001
800001
800001
800001
800001
800002
800002
400002
400004
200004
100008
080010
060060
01FF80
ENDCHAR
STARTCHAR 0151
ENCODING 337
SWIDTH 600 0
DWIDTH 20 0
BBX 17 24 2 0
BITMAP
004400
008800
011000
022000
000000
000000
000000
0FF000
100800
200600
400200
800100
800100
800100
800100
800080
800100
800100
800100
800100
400200
200400
100800
0FF000
ENDCHAR
STARTCHAR 0152
ENCODING 338
SWIDTH 1110 0
DWIDTH 37 0
BBX 33 23 2 0
BITMAP
01FFFFFF00
0600400000
0800400000
1000400000
2000400000
4000400000
4000400000
8000400000
8000400000
8000400000
8000400000
80007FFC00
8000400000
8000400000
8000400000
8000400000
4000400000
4000400000
2000400000
1000400000
0800400000
0600400000
01FFFFFF80
ENDCHAR
STARTCHAR 0153
ENCODING 339
SWIDTH 1050 0
DWIDTH 35 0
BBX 32 17 2 0
BITMAP
0FF00FE0
10081018
20042004
40024002
80018002
80018002
80008001
80008001
8000FFFE
80008000
80008000
80018000
80014000
40024000
20042002
1008180C
0FF007F0
ENDCHAR
STARTCHAR 0154
ENCODING 340
SWIDTH 690 0
DWIDTH 23 0
BBX 18 29 4 0
BITMAP
001000
002000
00C000
010000
000000
000000
FFF800
800600
800100
800080
800080
800080
800080
800040
800080
800080
800080
800100
800100
800600
FFF800
801000
800800
800400
800200
800200
800100
800080
800080
ENDCHAR
STARTCHAR 0155
ENCODING 341
SWIDTH 360 0
DWIDTH 12 0
BBX 8 24 4 0
BITMAP
03
04
08
30
00
00
00
8E
B0
C0
80
80
80
80
80
80
80
80
80
80
80
80
80
80
ENDCHAR
STARTCHAR 0156
ENCODING 342
SWIDTH 690 0
DWIDTH 23 0
BBX 18 31 4 -9
BITMAP
FFF800
800600
800100
800080
800080
800080
800080
800040
800080
800080
800080
800100
800100
800600
FFF800
801000
800800
800400
800200
800200
800100
800080
800080
000000
000000
000000
000000
018000
008000
008000
010000
ENDCHAR
STARTCHAR 0157
ENCODING 343
SWIDTH 360 0
DWIDTH 12 0
BBX 8 26 3 -9
BITMAP
47
58
60
40
40
40
40
40
40
40
40
40
40
40
40
40
40
00
00
00
00
C0
C0
40
80
80
ENDCHAR
STARTCHAR 0158
ENCODING 344
SWIDTH 690 0
DWIDTH 23 0
BBX 18 29 4 0
BITMAP
081000
042000
024000
018000
000000
000000
FFF800
800600
800100
800080
800080
800080
800080
800040
800080
800080
800080
800100
800100
800600
FFF800
801000
800800
800400
800200
800200
800100
800080
800080
ENDCHAR
STARTCHAR 0159
ENCODING 345
SWIDTH 360 0
DWIDTH 12 0
BBX 9 24 3 0
BITMAP
8080
6100
1600
0800
0000
0000
0000
4700
5800
6000
4000
4000
4000
4000
4000
4000
4000
4000
4000
4000
4000
4000
4000
4000
ENDCHAR
STARTCHAR 015A
ENCODING 346
SWIDTH 600 0
DWIDTH 20 0
BBX 16 29 2 0
BITMAP
0018
0020
0040
0180
0000
0000
0FF8
3006
4000
4000
8000
8000
8000
4000
4000
3000
0C00
03C0
0038
0004
0002
0001
0001
0001
0001
8001
4002
2004
1FF8
ENDCHAR
STARTCHAR 015B
ENCODING 347
SWIDTH 450 0
DWIDTH 15 0
BBX 13 24 1 0
BITMAP
0060
0080
0100
0200
0000
0000
0000
1FE0
2010
4000
4000
8000
4000
4000
3000
0B80
0070
0008
0008
0008
0008
8008
4010
3FE0
ENDCHAR
STARTCHAR 015C
ENCODING 348
SWIDTH 600 0
DWIDTH 20 0
BBX 16 29 2 0
BITMAP
00C0
0120
0610
0808
0000
0000
0FF8
3006
4000
4000
8000
8000
8000
4000
4000
3000
0C00
03C0
0038
0004
0002
0001
0001
0001
0001
8001
4002
2004
1FF8
ENDCHAR
STARTCHAR 015D
ENCODING 349
SWIDTH 450 0
DWIDTH 15 0
BBX 13 24 1 0
BITMAP
0300
0480
0840
3020
0000
0000
0000
1FE0
2010
4000
4000
8000
4000
4000
3000
0B80
0070
0008
0008
0008
0008
8008
4010
3FE0
ENDCHAR
STARTCHAR 015E
ENCODING 350
SWIDTH 600 0
DWIDTH 20 0
BBX 16 30 2 -7
BITMAP
0FF8
3006
4000
4000
8000
8000
8000
4000
4000
3000
0C00
03C0
0038
0004
0002
0001
0001
0001
0001
8001
4002
2004
1FF8
0080
0100
00C0
0020
0020
0020
03C0
ENDCHAR
STARTCHAR 015F
ENCODING 351
SWIDTH 450 0
DWIDTH 15 0
BBX 13 24 1 -7
BITMAP
1FE0
2010
4000
4000
8000
4000
4000
3000
0B80
0070
0008
0008
0008
0008
8008
4010
3FE0
0200
0200
0300
0080
0080
0080
0F00
ENDCHAR
STARTCHAR 0160
ENCODING 352
SWIDTH 600 0
DWIDTH 20 0
BBX 16 29 2 0
BITMAP
0808
0610
0160
0080
0000
0000
0FF8
3006
4000
4000
8000
8000
8000
4000
4000
3000
0C00
03C0
0038
0004
0002
0001
0001
0001
0001
8001
4002
2004
1FF8
ENDCHAR
STARTCHAR 0161
ENCODING 353
SWIDTH 450 0
DWIDTH 15 0
BBX 13 24 1 0
BITMAP
1020
0840
0480
0300
0000
0000
0000
1FE0
2010
4000
4000
8000
4000
4000
3000
0B80
0070
0008
0008
0008
0008
8008
4010
3FE0
ENDCHAR
STARTCHAR 0162
ENCODING 354
SWIDTH 540 0
DWIDTH 18 0
BBX 17 30 1 -7
BITMAP
FFFF80
010000
010000
010000
010000
010000
010000
010000
010000
010000
010000
010000
010000
010000
010000
010000
010000
010000
010000
010000
010000
010000
010000
010000
010000
00C000
004000
002000
004000
03C000
ENDCHAR
STARTCHAR 0163
ENCODING 355
SWIDTH 360 0
DWIDTH 12 0
BBX 10 28 1 -7
BITMAP
1000
1000
1000
1000
FF80
1000
1000
1000
1000
1000
1000
1000
1000
1000
1000
1000
1000
1000
1000
0800
07C0
0200
0200
0180
0080
0040
0080
0F00
ENDCHAR
STARTCHAR 0164
ENCODING 356
SWIDTH 540 0
DWIDTH 18 0
BBX 17 29 1 0
BITMAP
081000
042000
024000
018000
000000
000000
FFFF80
010000
010000
010000
010000
010000
010000
010000
010000
010000
010000
010000
010000
010000
010000
010000
010000
010000
010000
010000
010000
010000
010000
ENDCHAR
STARTCHAR 0165
ENCODING 357
SWIDTH 360 0
DWIDTH 12 0
BBX 10 25 1 0
BITMAP
0100
0100
0100
0100
1100
1000
1000
1000
FF80
1000
1000
1000
1000
1000
1000
1000
1000
1000
1000
1000
1000
1000
1000
0800
07C0
ENDCHAR
STARTCHAR 0166
ENCODING 358
SWIDTH 540 0
DWIDTH 18 0
BBX 17 23 1 0
BITMAP
FFFF80
010000
010000
010000
010000
010000
010000
010000
010000
010000
010000
1FFC00
010000
010000
010000
010000
010000
010000
010000
010000
010000
010000
010000
ENDCHAR
STARTCHAR 0167
ENCODING 359
SWIDTH 390 0
DWIDTH 13 0
BBX 10 21 1 0
BITMAP
1000
1000
1000
1000
FF80
1000
1000
1000
1000
1000
FF80
1000
1000
1000
1000
1000
1000
1000
1000
0800
07C0
ENDCHAR
STARTCHAR 0168
ENCODING 360
SWIDTH 780 0
DWIDTH 26 0
BBX 18 28 4 1
BITMAP
068400
086800
001000
000000
000000
800040
800040
800040
800040
800040
800040
800040
800040
800040
800040
800040
800040
800040
800040
800040
800040
800040
400040
400080
200080
200100
180200
07FC00
ENDCHAR
STARTCHAR 0169
ENCODING 361
SWIDTH 660 0
DWIDTH 22 0
BBX 14 23 4 1
BITMAP
1620
2120
00C0
0000
0000
0000
8004
8004
8004
8004
8004
8004
8004
8004
8004
8004
8004
8004
8004
800C
4014
2024
1FC4
ENDCHAR
STARTCHAR 016A
ENCODING 362
SWIDTH 780 0
DWIDTH 26 0
BBX 18 27 4 0
BITMAP
07F800
000000
000000
000000
800040
800040
800040
800040
800040
800040
800040
800040
800040
800040
800040
800040
800040
800040
800040
800040
800040
400040
400080
200080
200100
180200
07FC00
ENDCHAR
STARTCHAR 016B
ENCODING 363
SWIDTH 660 0
DWIDTH 22 0
BBX 14 22 4 0
BITMAP
1FE0
0000
0000
0000
0000
8004
8004
8004
8004
8004
8004
8004
8004
8004
8004
8004
8004
8004
800C
4014
2024
1FC4
ENDCHAR
STARTCHAR 016C
ENCODING 364
SWIDTH 780 0
DWIDTH 26 0
BBX 18 29 4 0
BITMAP
040400
040800
020800
01F000
000000
000000
800040
800040
800040
800040
800040
800040
800040
800040
800040
800040
800040
800040
800040
800040
800040
800040
800040
400040
400080
200080
200100
180200
07FC00
ENDCHAR
STARTCHAR 016D
ENCODING 365
SWIDTH 660 0
DWIDTH 22 0
BBX 14 23 4 1
BITMAP
1020
0840
0780
0000
0000
0000
8004
8004
8004
8004
8004
8004
8004
8004
8004
8004
8004
8004
8004
800C
4014
2024
1FC4
ENDCHAR
STARTCHAR 016E
ENCODING 366
SWIDTH 780 0
DWIDTH 26 0
BBX 18 32 4 0
BITMAP
01E000
021000
021000
021000
021000
01E000
000000
000000
000000
800040
800040
800040
800040
800040
800040
800040
800040
800040
800040
800040
800040
800040
800040
800040
800040
800040
400040
400080
200080
200100
180200
07FC00
ENDCHAR
STARTCHAR 016F
ENCODING 367
SWIDTH 660 0
DWIDTH 22 0
BBX 14 26 4 0
BITMAP
0780
0840
0840
0840
0840
0780
0000
0000
0000
8004
8004
8004
8004
8004
8004
8004
8004
8004
8004
8004
8004
8004
800C
4014
2024
1FC4
ENDCHAR
STARTCHAR 0170
ENCODING 368
SWIDTH 780 0
DWIDTH 26 0
BBX 18 29 4 0
BITMAP
002300
004400
008800
011000
000000
000000
800040
800040
800040
800040
800040
800040
800040
800040
800040
800040
800040
800040
800040
800040
800040
800040
800040
400040
400080
200080
200100
180200
07FC00
ENDCHAR
STARTCHAR 0171
ENCODING 369
SWIDTH 660 0
DWIDTH 22 0
BBX 14 24 4 0
BITMAP
0188
0310
0420
0840
0000
0000
0000
8004
8004
8004
8004
8004
8004
8004
8004
8004
8004
8004
8004
8004
800C
4014
2024
1FC4
ENDCHAR
STARTCHAR 0172
ENCODING 370
SWIDTH 780 0
DWIDTH 26 0
BBX 18 30 4 -7
BITMAP
800040
800040
800040
800040
800040
800040
800040
800040
800040
800040
800040
800040
800040
800040
800040
800040
800040
400040
400080
200080
200100
180200
07FC00
004000
008000
010000
020000
020000
020000
01F000
ENDCHAR
STARTCHAR 0173
ENCODING 371
SWIDTH 660 0
DWIDTH 22 0
BBX 15 24 4 -7
BITMAP
8004
8004
8004
8004
8004
8004
8004
8004
8004
8004
8004
8004
8004
800C
4014
2024
1FC4
0008
0010
0020
0040
0040
0040
003E
ENDCHAR
STARTCHAR 0174
ENCODING 372
SWIDTH 1080 0
DWIDTH 36 0
BBX 32 29 2 0
BITMAP
00018000
00024000
00042000
00081000
00000000
00000000
80018001
80018001
80028001
40024002
40024002
40044002
20042004
20042004
20082008
10081008
10081008
10101010
08100810
08100810
08200420
04200420
04400420
04400240
02400240
02800240
02800180
01800180
01000080
ENDCHAR
STARTCHAR 0175
ENCODING 373
SWIDTH 810 0
DWIDTH 27 0
BBX 27 24 0 0
BITMAP
00060000
00090000
00108000
00204000
00000000
00000000
00000000
80060020
40060020
400A0040
40090040
20110040
20110080
10108080
10208080
10204100
08204100
08404200
04402200
04802200
04801400
02801400
03001800
01000800
ENDCHAR
STARTCHAR 0176
ENCODING 374
SWIDTH 600 0
DWIDTH 20 0
BBX 19 29 1 0
BITMAP
00C000
012000
021000
040800
000000
000000
800060
800040
400080
400080
200100
100200
100200
080400
040400
040800
021000
021000
012000
00C000
00C000
004000
004000
004000
004000
004000
004000
004000
004000
ENDCHAR
STARTCHAR 0177
ENCODING 375
SWIDTH 480 0
DWIDTH 16 0
BBX 17 31 -1 -7
BITMAP
00C000
012000
021000
040800
000000
000000
000000
400080
200080
200100
100100
100100
080200
080200
080400
040400
040800
020800
021000
011000
012000
00A000
00A000
004000
004000
008000
008000
010000
010000
C20000
3C0000
ENDCHAR
STARTCHAR 0178
ENCODING 376
SWIDTH 600 0
DWIDTH 20 0
BBX 19 28 1 0
BITMAP
021800
020000
000000
000000
000000
800060
800040
400080
400080
200100
100200
100200
080400
040400
040800
021000
021000
012000
00C000
00C000
004000
004000
004000
004000
004000
004000
004000
004000
ENDCHAR
STARTCHAR 0179
ENCODING 377
SWIDTH 630 0
DWIDTH 21 0
BBX 18 29 2 0
BITMAP
001800
002000
004000
008000
000000
000000
FFFF80
000080
000100
000200
000400
000400
000800
001000
002000
002000
004000
008000
010000
020000
020000
040000
080000
100000
100000
200000
400000
800000
FFFFC0
ENDCHAR
STARTCHAR 017A
ENCODING 378
SWIDTH 480 0
DWIDTH 16 0
BBX 13 24 2 0
BITMAP
0040
0080
0300
0400
0000
0000
0000
FFF0
0010
0020
0040
0080
0080
0100
0200
0400
0400
0800
1000
2000
2000
4000
8000
FFF8
ENDCHAR
STARTCHAR 017B
ENCODING 379
SWIDTH 630 0
DWIDTH 21 0
BBX 18 28 2 0
BITMAP
00C000
000000
000000
000000
000000
FFFF80
000080
000100
000200
000400
000400
000800
001000
002000
002000
004000
008000
010000
020000
020000
040000
080000
100000
100000
200000
400000
800000
FFFFC0
ENDCHAR
STARTCHAR 017C
ENCODING 380
SWIDTH 480 0
DWIDTH 16 0
BBX 13 23 2 0
BITMAP
0600
0200
0000
0000
0000
0000
FFF0
0010
0020
0040
0080
0080
0100
0200
0400
0400
0800
1000
2000
2000
4000
8000
FFF8
ENDCHAR
STARTCHAR 017D
ENCODING 381
SWIDTH 630 0
DWIDTH 21 0
BBX 18 29 2 0
BITMAP
040800
021000
012000
00C000
000000
000000
FFFF80
000080
000100
000200
000400
000400
000800
001000
002000
002000
004000
008000
010000
020000
020000
040000
080000
100000
100000
200000
400000
800000
FFFFC0
ENDCHAR
STARTCHAR 017E
ENCODING 382
SWIDTH 480 0
DWIDTH 16 0
BBX 13 24 2 0
BITMAP
2040
1080
0900
0600
0000
0000
0000
FFF0
0010
0020
0040
0080
0080
0100
0200
0400
0400
0800
1000
2000
2000
4000
8000
FFF8
ENDCHAR
STARTCHAR 017F
ENCODING 383
SWIDTH 270 0
DWIDTH 9 0
BBX 10 25 2 0
BITMAP
0780
1840
1000
2000
2000
2000
2000
2000
E000
2000
2000
2000
2000
2000
2000
2000
2000
2000
2000
2000
2000
2000
2000
2000
2000
ENDCHAR
STARTCHAR 018F
ENCODING 399
SWIDTH 810 0
DWIDTH 27 0
BBX 23 23 2 0
BITMAP
03FF00
0C00C0
100020
000010
000008
000004
000004
000002
000002
000002
000002
FFFFFE
800002
800002
800002
800004
400004
400008
200008
100010
080020
0600C0
01FF00
ENDCHAR
STARTCHAR 0192
ENCODING 402
SWIDTH 390 0
DWIDTH 13 0
BBX 18 32 -3 -7
BITMAP
000780
001840
001000
002000
002000
002000
002000
004000
01FF00
004000
004000
004000
004000
004000
004000
008000
008000
008000
008000
008000
008000
008000
008000
008000
010000
010000
010000
010000
010000
020000
C40000
180000
ENDCHAR
STARTCHAR 01A0
ENCODING 416
SWIDTH 810 0
DWIDTH 27 0
BBX 24 28 2 0
BITMAP
000002
000002
000002
000002
000006
01FFF8
060060
080010
100008
200004
400004
400002
800002
800001
800001
800001
800001
800001
800001
800002
800002
400002
400004
200004
100008
080030
060040
01FF80
ENDCHAR
STARTCHAR 01A1
ENCODING 417
SWIDTH 600 0
DWIDTH 20 0
BBX 17 22 2 0
BITMAP
000100
000100
000100
000100
000200
0FFC00
100800
200400
400200
800100
800100
800100
800100
800080
800100
800100
800100
800100
400200
200400
100800
0FF000
ENDCHAR
STARTCHAR 01AF
ENCODING 431
SWIDTH 780 0
DWIDTH 26 0
BBX 21 28 4 0
BITMAP
000008
000008
000008
000008
000018
800040
800040
800040
800040
800040
800040
800040
800040
800040
800040
800040
800040
800040
800040
800040
800040
800040
400040
400080
200080
200100
180200
07FC00
ENDCHAR
STARTCHAR 01B0
ENCODING 432
SWIDTH 660 0
DWIDTH 22 0
BBX 17 22 4 0
BITMAP
000080
000080
000080
000080
000100
800600
800400
800400
800400
800400
800400
800400
800400
800400
800400
800400
800400
800400
800C00
401400
202400
1FC400
ENDCHAR
STARTCHAR 01B7
ENCODING 439
SWIDTH 570 0
DWIDTH 19 0
BBX 17 23 1 0
BITMAP
7FFF00
000200
000400
000800
001000
001000
002000
004000
008000
010000
01F000
000C00
000200
000100
000100
000080
000080
000080
000080
800100
400200
300400
0FF000
ENDCHAR
STARTCHAR 01C4
ENCODING 452
SWIDTH 1440 0
DWIDTH 48 0
BBX 43 29 4 0
BITMAP
000000020400
000000010800
000000009000
000000006000
000000000000
000000000000
FFFC007FFFC0
800300000040
8000C0000080
800020000100
800020000200
800010000200
800008000400
800008000800
800008001000
800008001000
800004002000
800004004000
800004008000
800008010000
800008010000
800008020000
800010040000
800010080000
800020080000
800040100000
800080200000
800300400000
FFFC007FFFE0
ENDCHAR
STARTCHAR 01C5
ENCODING 453
SWIDTH 1290 0
DWIDTH 43 0
BBX 38 24 4 0
BITMAP
0000000010
FFFC000C20
8003000240
8000C00180
8000200000
8000200000
8000100000
8000083FFC
8000080008
8000080010
8000080010
8000040020
8000040040
8000040080
8000080080
8000080100
8000080200
8000100400
8000100400
8000200800
8000401000
8000802000
8003002000
FFFC007FFC
ENDCHAR
STARTCHAR 01C6
ENCODING 454
SWIDTH 1170 0
DWIDTH 39 0
BBX 35 25 2 0
BITMAP
0000800000
0000808080
0000806100
0000801600
0000800800
0000800000
0000800000
0000800000
0FF081FFE0
1008800040
2004800080
4002800080
8001800100
8001800200
8000800400
8000800400
8000800800
8000801000
8000802000
8001802000
8001804000
4002808000
2004810000
1008810000
0FF083FFE0
ENDCHAR
STARTCHAR 01C7
ENCODING 455
SWIDTH 1050 0
DWIDTH 35 0
BBX 27 23 4 0
BITMAP
80003FE0
80000020
80000020
80000020
80000020
80000020
80000020
80000020
80000020
80000020
80000020
80000020
80000020
80000020
80000020
80000020
80000020
80000020
80000020
80000020
80008040
800040C0
FFFE3F00
ENDCHAR
STARTCHAR 01C8
ENCODING 456
SWIDTH 810 0
DWIDTH 27 0
BBX 20 31 4 -7
BITMAP
000010
800010
800000
800000
800000
800000
800000
800010
800010
800010
800010
800010
800010
800010
800010
800010
800010
800010
800010
800010
800010
800010
800010
FFFE10
000010
000010
000010
000010
000010
000420
000240
ENDCHAR
STARTCHAR 01C9
ENCODING 457
SWIDTH 480 0
DWIDTH 16 0
BBX 9 32 4 -7
BITMAP
8000
8080
8080
8000
8000
8000
8000
8000
8080
8080
8080
8080
8080
8080
8080
8080
8080
8080
8080
8080
8080
8080
8080
8080
8080
0080
0080
0080
0080
0080
2100
1200
ENDCHAR
STARTCHAR 01CA
ENCODING 458
SWIDTH 1290 0
DWIDTH 43 0
BBX 35 23 4 0
BITMAP
C000203FE0
C000200020
A000200020
9000200020
8800200020
8400200020
8400200020
8200200020
8100200020
8080200020
8080200020
8040200020
8020200020
8010200020
8010200020
8008200020
8004200020
8002200020
8001200020
8001200040
8000A08040
8000604080
8000203F00
ENDCHAR
STARTCHAR 01CB
ENCODING 459
SWIDTH 1050 0
DWIDTH 35 0
BBX 28 31 4 -7
BITMAP
00000010
C0002010
C0002000
A0002000
90002000
88002000
84002000
84002010
82002010
81002010
80802010
80802010
80402010
80202010
80102010
80102010
80082010
80042010
80022010
80012010
80012010
8000A010
80006010
80002010
00000010
00000010
00000010
00000010
00000020
00000420
00000340
ENDCHAR
STARTCHAR 01CC
ENCODING 460
SWIDTH 900 0
DWIDTH 30 0
BBX 23 31 4 -7
BITMAP
000002
000002
000000
000000
000000
000000
000000
8FE002
B01802
C00402
C00402
800402
800202
800202
800202
800202
800202
800202
800202
800202
800202
800202
800202
800202
000002
000002
000002
000002
000004
000084
000068
ENDCHAR
STARTCHAR 01CD
ENCODING 461
SWIDTH 660 0
DWIDTH 22 0
BBX 22 29 0 0
BITMAP
010100
008600
006800
001000
000000
000000
001000
002800
002800
004400
004400
008200
008200
010200
010100
020100
020080
040080
040040
080040
080020
0FFFE0
100010
100010
200008
200008
400008
400004
800004
ENDCHAR
STARTCHAR 01CE
ENCODING 462
SWIDTH 570 0
DWIDTH 19 0
BBX 14 24 2 0
BITMAP
1020
0840
0480
0300
0000
0000
0000
1FE0
2010
4008
0008
0008
0008
0004
0004
3FFC
4004
8004
8004
8004
800C
8014
6024
1F84
ENDCHAR
STARTCHAR 01D3
ENCODING 467
SWIDTH 780 0
DWIDTH 26 0
BBX 18 29 4 0
BITMAP
040800
021000
012000
00C000
000000
000000
800040
800040
800040
800040
800040
800040
800040
800040
800040
800040
800040
800040
800040
800040
800040
800040
800040
400040
400080
200080
200100
180200
07FC00
ENDCHAR
STARTCHAR 01D4
ENCODING 468
SWIDTH 660 0
DWIDTH 22 0
BBX 14 24 4 0
BITMAP
1020
0840
0480
0300
0000
0000
0000
8004
8004
8004
8004
8004
8004
8004
8004
8004
8004
8004
8004
8004
800C
4014
2024
1FC4
ENDCHAR
STARTCHAR 01E4
ENCODING 484
SWIDTH 780 0
DWIDTH 26 0
BBX 24 23 2 0
BITMAP
01FF80
060060
080010
100000
200000
400000
400000
800000
800000
800000
800000
800000
800010
800010
800010
800FFF
400010
400010
200010
100010
080010
060060
01FF80
ENDCHAR
STARTCHAR 01E5
ENCODING 485
SWIDTH 660 0
DWIDTH 22 0
BBX 18 24 2 -7
BITMAP
0FF080
100C80
200280
400280
800180
800080
800080
800080
800080
800080
800080
800180
400280
200280
100480
0C1880
03E080
000080
000100
00FFC0
400100
200200
1C0C00
02F000
ENDCHAR
STARTCHAR 01E6
ENCODING 486
SWIDTH 750 0
DWIDTH 25 0
BBX 20 29 2 0
BITMAP
010100
008600
006800
001000
000000
000000
01FF80
060060
080010
100000
200000
400000
400000
800000
800000
800000
800000
800000
800010
800010
800010
800010
400010
400010
200010
100010
080010
060060
01FF80
ENDCHAR
STARTCHAR 01E7
ENCODING 487
SWIDTH 660 0
DWIDTH 22 0
BBX 17 31 2 -7
BITMAP
080800
041000
036000
008000
000000
000000
000000
0FF080
100C80
200280
400280
800180
800080
800080
800080
800080
800080
800080
800180
400280
200280
100480
0C1880
03E080
000080
000100
000100
400100
200200
1C0C00
02F000
ENDCHAR
STARTCHAR 01E8
ENCODING 488
SWIDTH 690 0
DWIDTH 23 0
BBX 18 29 4 0
BITMAP
080000
043000
024000
018000
000000
000000
800080
800100
800200
800400
800800
801000
802000
804000
808000
810000
830000
850000
888000
904000
A02000
C01000
800800
800400
800200
800200
800100
800080
800040
ENDCHAR
STARTCHAR 01E9
ENCODING 489
SWIDTH 570 0
DWIDTH 19 0
BBX 18 31 0 0
BITMAP
C10000
220000
1C0000
000000
000000
000000
080000
080000
080000
080000
080000
080000
080000
080000
080080
080100
080200
080400
081800
082000
084000
08A000
091000
0A1000
0C0800
080400
080200
080100
080100
080080
080040
ENDCHAR
STARTCHAR 01EA
ENCODING 490
SWIDTH 810 0
DWIDTH 27 0
BBX 24 30 2 -7
BITMAP
01FF80
060060
080010
100008
200004
400004
400002
800002
800001
800001
800001
800001
800001
800001
800001
800002
400002
400004
200004
100008
080010
060060
01FF80
001800
002000
004000
004000
008000
004000
003C00
ENDCHAR
STARTCHAR 01EB
ENCODING 491
SWIDTH 600 0
DWIDTH 20 0
BBX 17 24 2 -7
BITMAP
0FF000
100800
200600
400200
800100
800100
800100
800100
800080
800100
800100
800100
800100
400200
200400
100800
0FF000
004000
018000
020000
020000
020000
020000
01E000
ENDCHAR
STARTCHAR 01EE
ENCODING 494
SWIDTH 570 0
DWIDTH 19 0
BBX 17 29 1 0
BITMAP
080800
061000
016000
008000
000000
000000
7FFF00
000200
000400
000800
001000
001000
002000
004000
008000
010000
01F000
000C00
000200
000100
000100
000080
000080
000080
000080
800100
400200
300400
0FF000
ENDCHAR
STARTCHAR 01EF
ENCODING 495
SWIDTH 480 0
DWIDTH 16 0
BBX 16 31 -1 -7
BITMAP
0810
0420
0240
0180
0000
0000
0000
7FFE
0004
0008
0008
0010
0020
0040
0040
0080
0100
0100
0078
0004
0002
0002
0001
0001
0001
0001
0002
8002
6004
1818
05A0
ENDCHAR
STARTCHAR 01FA
ENCODING 506
SWIDTH 660 0
DWIDTH 22 0
BBX 22 34 0 0
BITMAP
000100
000200
003C00
004400
008400
008400
004400
003800
000000
000000
000000
001000
002800
002800
004400
004400
008200
008200
010200
010100
020100
020080
040080
040040
080040
080020
0FFFE0
100010
100010
200008
200008
400008
400004
800004
ENDCHAR
STARTCHAR 01FB
ENCODING 507
SWIDTH 570 0
DWIDTH 19 0
BBX 14 28 2 0
BITMAP
0010
0020
07C0
0840
0840
0840
0840
0780
0000
0000
0000
1FE0
2010
4008
0008
0008
0008
0004
0004
3FFC
4004
8004
8004
8004
800C
8014
6024
1F84
ENDCHAR
STARTCHAR 01FC
ENCODING 508
SWIDTH 990 0
DWIDTH 33 0
BBX 31 29 0 0
BITMAP
00001000
00006000
00008000
00010000
00000000
00000000
0003FFFC
00030000
00050000
00090000
00090000
00110000
00110000
00210000
00410000
00410000
00810000
01017FF8
01010000
02010000
04010000
07FF0000
08010000
08010000
10010000
20010000
20010000
40010000
8000FFFE
ENDCHAR
STARTCHAR 01FD
ENCODING 509
SWIDTH 960 0
DWIDTH 32 0
BBX 29 24 2 0
BITMAP
00008000
00010000
00060000
00080000
00000000
00000000
00000000
1FE07F00
201080C0
40090020
000A0010
000C0010
00040010
00040008
00040008
3FFFFFF0
40040000
80040000
80040000
800E0000
800A0000
80110010
60208060
1FC07F80
ENDCHAR
STARTCHAR 01FE
ENCODING 510
SWIDTH 810 0
DWIDTH 27 0
BBX 24 31 2 -2
BITMAP
000100
000600
000800
001000
000004
000008
01FF90
060070
080030
100048
200084
400084
400102
800202
800401
800401
800801
801001
802001
802001
804002
808002
408002
410004
220004
140008
0C0010
0A0060
11FF80
200000
200000
ENDCHAR
STARTCHAR 01FF
ENCODING 511
SWIDTH 600 0
DWIDTH 20 0
BBX 17 26 2 -2
BITMAP
001000
002000
00C000
010000
000100
000200
000200
0FF400
100800
200E00
401200
802100
804100
804100
808100
810080
810100
820100
840100
840100
480200
300400
100800
2FF000
400000
400000
ENDCHAR
STARTCHAR 0200
ENCODING 512
SWIDTH 660 0
DWIDTH 22 0
BBX 22 29 0 0
BITMAP
042000
021000
010800
008400
000000
000000
001000
002800
002800
004400
004400
008200
008200
010200
010100
020100
020080
040080
040040
080040
080020
0FFFE0
100010
100010
200008
200008
400008
400004
800004
ENDCHAR
STARTCHAR 0201
ENCODING 513
SWIDTH 570 0
DWIDTH 19 0
BBX 14 24 2 0
BITMAP
4600
2100
1080
0840
0000
0000
0000
1FE0
2010
4008
0008
0008
0008
0004
0004
3FFC
4004
8004
8004
8004
800C
8014
6024
1F84
ENDCHAR
STARTCHAR 0202
ENCODING 514
SWIDTH 660 0
DWIDTH 22 0
BBX 22 29 0 0
BITMAP
007C00
008200
010100
010100
000000
000000
001000
002800
002800
004400
004400
008200
008200
010200
010100
020100
020080
040080
040040
080040
080020
0FFFE0
100010
100010
200008
200008
400008
400004
800004
ENDCHAR
STARTCHAR 0203
ENCODING 515
SWIDTH 570 0
DWIDTH 19 0
BBX 14 24 2 0
BITMAP
0780
1860
1020
0000
0000
0000
0000
1FE0
2010
4008
0008
0008
0008
0004
0004
3FFC
4004
8004
8004
8004
800C
8014
6024
1F84
ENDCHAR
STARTCHAR 0204
ENCODING 516
SWIDTH 660 0
DWIDTH 22 0
BBX 16 29 4 0
BITMAP
2200
1100
0880
0440
0000
0000
FFFE
8000
8000
8000
8000
8000
8000
8000
8000
8000
8000
FFF8
8000
8000
8000
8000
8000
8000
8000
8000
8000
8000
FFFF
ENDCHAR
STARTCHAR 0205
ENCODING 517
SWIDTH 570 0
DWIDTH 19 0
BBX 16 24 2 0
BITMAP
2200
1100
0880
0440
0000
0000
0000
0FE0
1018
2004
4002
8002
8002
8001
8001
FFFE
8000
8000
8000
8000
4000
2002
100C
0FF0
ENDCHAR
STARTCHAR 0206
ENCODING 518
SWIDTH 660 0
DWIDTH 22 0
BBX 16 29 4 0
BITMAP
03C0
0C30
0810
0000
0000
0000
FFFE
8000
8000
8000
8000
8000
8000
8000
8000
8000
8000
FFF8
8000
8000
8000
8000
8000
8000
8000
8000
8000
8000
FFFF
ENDCHAR
STARTCHAR 0207
ENCODING 519
SWIDTH 570 0
DWIDTH 19 0
BBX 16 24 2 0
BITMAP
03C0
0C20
1010
1010
0000
0000
0000
0FE0
1018
2004
4002
8002
8002
8001
8001
FFFE
8000
8000
8000
8000
4000
2002
100C
0FF0
ENDCHAR
STARTCHAR 0208
ENCODING 520
SWIDTH 270 0
DWIDTH 9 0
BBX 9 29 -2 0
BITMAP
C400
2200
1100
0880
0000
0000
0200
0200
0200
0200
0200
0200
0200
0200
0200
0200
0200
0200
0200
0200
0200
0200
0200
0200
0200
0200
0200
0200
0200
ENDCHAR
STARTCHAR 0209
ENCODING 521
SWIDTH 240 0
DWIDTH 8 0
BBX 9 24 -2 0
BITMAP
8400
4200
2100
1080
0000
0000
0000
0200
0200
0200
0200
0200
0200
0200
0200
0200
0200
0200
0200
0200
0200
0200
0200
0200
ENDCHAR
STARTCHAR 020A
ENCODING 522
SWIDTH 270 0
DWIDTH 9 0
BBX 9 29 0 0
BITMAP
3E00
4100
8080
8000
0000
0000
0800
0800
0800
0800
0800
0800
0800
0800
0800
0800
0800
0800
0800
0800
0800
0800
0800
0800
0800
0800
0800
0800
0800
ENDCHAR
STARTCHAR 020B
ENCODING 523
SWIDTH 240 0
DWIDTH 8 0
BBX 7 24 1 0
BITMAP
78
84
82
02
00
00
00
10
10
10
10
10
10
10
10
10
10
10
10
10
10
10
10
10
ENDCHAR
STARTCHAR 020C
ENCODING 524
SWIDTH 810 0
DWIDTH 27 0
BBX 24 29 2 0
BITMAP
022000
011000
008800
004400
000000
000000
01FF80
060060
080010
100008
200004
400004
400002
800002
800001
800001
800001
800001
800001
800001
800002
800002
400002
400004
200004
100008
080010
060060
01FF80
ENDCHAR
STARTCHAR 020D
ENCODING 525
SWIDTH 600 0
DWIDTH 20 0
BBX 17 24 2 0
BITMAP
210000
108000
084000
042000
000000
000000
000000
0FF000
100800
200600
400200
800100
800100
800100
800100
800080
800100
800100
800100
800100
400200
200400
100800
0FF000
ENDCHAR
STARTCHAR 020E
ENCODING 526
SWIDTH 810 0
DWIDTH 27 0
BBX 24 29 2 0
BITMAP
003C00
00C300
010100
000000
000000
000000
01FF80
060060
080010
100008
200004
400004
400002
800002
800001
800001
800001
800001
800001
800001
800002
800002
400002
400004
200004
100008
080010
060060
01FF80
ENDCHAR
STARTCHAR 020F
ENCODING 527
SWIDTH 600 0
DWIDTH 20 0
BBX 17 24 2 0
BITMAP
03C000
043000
081000
000800
000000
000000
000000
0FF000
100800
200600
400200
800100
800100
800100
800100
800080
800100
800100
800100
800100
400200
200400
100800
0FF000
ENDCHAR
STARTCHAR 0210
ENCODING 528
SWIDTH 690 0
DWIDTH 23 0
BBX 18 29 4 0
BITMAP
210000
108000
084000
042000
000000
000000
FFF800
800600
800100
800080
800080
800080
800080
800040
800080
800080
800080
800100
800100
800600
FFF800
801000
800800
800400
800200
800200
800100
800080
800080
ENDCHAR
STARTCHAR 0211
ENCODING 529
SWIDTH 360 0
DWIDTH 12 0
BBX 10 24 1 0
BITMAP
8400
4200
2100
1080
0000
0000
0000
11C0
1600
1800
1000
1000
1000
1000
1000
1000
1000
1000
1000
1000
1000
1000
1000
1000
ENDCHAR
STARTCHAR 0212
ENCODING 530
SWIDTH 690 0
DWIDTH 23 0
BBX 18 29 4 0
BITMAP
03C000
043000
081000
000800
000000
000000
FFF800
800600
800100
800080
800080
800080
800080
800040
800080
800080
800080
800100
800100
800600
FFF800
801000
800800
800400
800200
800200
800100
800080
800080
ENDCHAR
STARTCHAR 0213
ENCODING 531
SWIDTH 360 0
DWIDTH 12 0
BBX 9 24 3 0
BITMAP
3E00
4100
8080
8080
0000
0000
0000
4700
5800
6000
4000
4000
4000
4000
4000
4000
4000
4000
4000
4000
4000
4000
4000
4000
ENDCHAR
STARTCHAR 0214
ENCODING 532
SWIDTH 780 0
DWIDTH 26 0
BBX 18 29 4 0
BITMAP
108000
084000
042000
021000
000000
000000
800040
800040
800040
800040
800040
800040
800040
800040
800040
800040
800040
800040
800040
800040
800040
800040
800040
400040
400080
200080
200100
180200
07FC00
ENDCHAR
STARTCHAR 0215
ENCODING 533
SWIDTH 660 0
DWIDTH 22 0
BBX 14 24 4 0
BITMAP
4400
2200
1100
0880
0000
0000
0000
8004
8004
8004
8004
8004
8004
8004
8004
8004
8004
8004
8004
8004
800C
4014
2024
1FC4
ENDCHAR
STARTCHAR 0216
ENCODING 534
SWIDTH 780 0
DWIDTH 26 0
BBX 18 29 4 0
BITMAP
01F000
020800
040800
040400
000000
000000
800040
800040
800040
800040
800040
800040
800040
800040
800040
800040
800040
800040
800040
800040
800040
800040
800040
400040
400080
200080
200100
180200
07FC00
ENDCHAR
STARTCHAR 0217
ENCODING 535
SWIDTH 660 0
DWIDTH 22 0
BBX 14 24 4 0
BITMAP
0780
1860
1020
0000
0000
0000
0000
8004
8004
8004
8004
8004
8004
8004
8004
8004
8004
8004
8004
8004
800C
4014
2024
1FC4
ENDCHAR
STARTCHAR 0218
ENCODING 536
SWIDTH 600 0
DWIDTH 20 0
BBX 16 32 2 -9
BITMAP
0FF8
3006
4000
4000
8000
8000
8000
4000
4000
3000
0C00
03C0
0038
0004
0002
0001
0001
0001
0001
8001
4002
2004
1FF8
0000
0000
0000
0000
0080
0080
0080
0080
0080
ENDCHAR
STARTCHAR 0219
ENCODING 537
SWIDTH 450 0
DWIDTH 15 0
BBX 13 26 1 -9
BITMAP
1FE0
2010
4000
4000
8000
4000
4000
3000
0B80
0070
0008
0008
0008
0008
8008
4010
3FE0
0000
0000
0000
0000
0200
0300
0200
0200
0200
ENDCHAR
STARTCHAR 021A
ENCODING 538
SWIDTH 540 0
DWIDTH 18 0
BBX 17 32 1 -9
BITMAP
FFFF80
010000
010000
010000
010000
010000
010000
010000
010000
010000
010000
010000
010000
010000
010000
010000
010000
010000
010000
010000
010000
010000
010000
000000
000000
000000
000000
018000
018000
008000
010000
010000
ENDCHAR
STARTCHAR 021B
ENCODING 539
SWIDTH 360 0
DWIDTH 12 0
BBX 10 30 1 -9
BITMAP
1000
1000
1000
1000
FF80
1000
1000
1000
1000
1000
1000
1000
1000
1000
1000
1000
1000
1000
1000
0800
07C0
0000
0000
0000
0000
0300
0300
0100
0200
0200
ENDCHAR
STARTCHAR 021E
ENCODING 542
SWIDTH 810 0
DWIDTH 27 0
BBX 19 29 4 0
BITMAP
040400
030800
00B000
004000
000000
000000
800020
800020
800020
800020
800020
800020
800020
800020
800020
800020
800020
FFFFE0
800020
800020
800020
800020
800020
800020
800020
800020
800020
800020
800020
ENDCHAR
STARTCHAR 021F
ENCODING 543
SWIDTH 660 0
DWIDTH 22 0
BBX 19 31 0 0
BITMAP
C10000
220000
1C0000
000000
000000
000000
080000
080000
080000
080000
080000
080000
080000
080000
08FE00
0B0180
0C0040
0C0040
080040
080020
080020
080020
080020
080020
080020
080020
080020
080020
080020
080020
080020
ENDCHAR
STARTCHAR 022A
ENCODING 554
SWIDTH 810 0
DWIDTH 27 0
BBX 24 31 2 0
BITMAP
01FF00
000000
000000
00C200
004200
000000
000000
000000
01FF80
060060
080010
100008
200004
400004
400002
800002
800001
800001
800001
800001
800001
800001
800002
800002
400002
400004
200004
100008
080010
060060
01FF80
ENDCHAR
STARTCHAR 022B
ENCODING 555
SWIDTH 600 0
DWIDTH 20 0
BBX 17 26 2 0
BITMAP
0FF800
000000
000000
043000
040000
000000
000000
000000
000000
0FF000
100800
200600
400200
800100
800100
800100
800100
800080
800100
800100
800100
800100
400200
200400
100800
0FF000
ENDCHAR
STARTCHAR 022C
ENCODING 556
SWIDTH 810 0
DWIDTH 27 0
BBX 24 31 2 0
BITMAP
01FF00
000000
000000
00F100
010F00
000000
000000
000000
01FF80
060060
080010
100008
200004
400004
400002
800002
800001
800001
800001
800001
800001
800001
800002
800002
400002
400004
200004
100008
080010
060060
01FF80
ENDCHAR
STARTCHAR 022D
ENCODING 557
SWIDTH 600 0
DWIDTH 20 0
BBX 17 26 2 0
BITMAP
0FF800
000000
000000
0F0800
10D000
002000
000000
000000
000000
0FF000
100800
200600
400200
800100
800100
800100
800100
800080
800100
800100
800100
800100
400200
200400
100800
0FF000
ENDCHAR
STARTCHAR 0230
ENCODING 560
SWIDTH 810 0
DWIDTH 27 0
BBX 24 31 2 0
BITMAP
01FF00
000000
000000
001800
001000
000000
000000
000000
01FF80
060060
080010
100008
200004
400004
400002
800002
800001
800001
800001
800001
800001
800001
800002
800002
400002
400004
200004
100008
080010
060060
01FF80
ENDCHAR
STARTCHAR 0231
ENCODING 561
SWIDTH 600 0
DWIDTH 20 0
BBX 17 26 2 0
BITMAP
0FF800
000000
000000
018000
008000
000000
000000
000000
000000
0FF000
100800
200600
400200
800100
800100
800100
800100
800080
800100
800100
800100
800100
400200
200400
100800
0FF000
ENDCHAR
STARTCHAR 0232
ENCODING 562
SWIDTH 600 0
DWIDTH 20 0
BBX 19 27 1 0
BITMAP
07F800
000000
000000
000000
800060
800040
400080
400080
200100
100200
100200
080400
040400
040800
021000
021000
012000
00C000
00C000
004000
004000
004000
004000
004000
004000
004000
004000
ENDCHAR
STARTCHAR 0233
ENCODING 563
SWIDTH 480 0
DWIDTH 16 0
BBX 17 29 -1 -7
BITMAP
07F800
000000
000000
000000
000000
400080
200080
200100
100100
100100
080200
080200
080400
040400
040800
020800
021000
011000
012000
00A000
00A000
004000
004000
008000
008000
010000
010000
C20000
3C0000
ENDCHAR
STARTCHAR 0237
ENCODING 567
SWIDTH 240 0
DWIDTH 8 0
BBX 8 24 -3 -7
BITMAP
01
01
01
01
01
01
01
01
01
01
01
01
01
01
01
01
01
01
01
01
01
02
C6
38
ENDCHAR
STARTCHAR 0259
ENCODING 601
SWIDTH 570 0
DWIDTH 19 0
BBX 16 17 2 0
BITMAP
1FE0
2018
4004
0004
0002
0002
0001
0001
FFFF
8001
8001
8002
8002
4004
2004
1018
0FE0
ENDCHAR
STARTCHAR 0292
ENCODING 658
SWIDTH 480 0
DWIDTH 16 0
BBX 16 24 -1 -7
BITMAP
7FFE
0004
0008
0008
0010
0020
0040
0040
0080
0100
0100
0078
0004
0002
0002
0001
0001
0001
0001
0002
8002
6004
1818
05A0
ENDCHAR
STARTCHAR 02B9
ENCODING 697
SWIDTH 180 0
DWIDTH 6 0
BBX 1 8 3 15
BITMAP
80
80
80
80
80
80
80
80
ENDCHAR
STARTCHAR 02BA
ENCODING 698
SWIDTH 330 0
DWIDTH 11 0
BBX 5 8 3 15
BITMAP
88
88
88
88
88
88
88
88
ENDCHAR
STARTCHAR 02BB
ENCODING 699
SWIDTH 240 0
DWIDTH 8 0
BBX 2 7 3 20
BITMAP
40
40
40
80
80
C0
40
ENDCHAR
STARTCHAR 02BC
ENCODING 700
SWIDTH 180 0
DWIDTH 6 0
BBX 2 6 2 19
BITMAP
40
40
40
40
80
80
ENDCHAR
STARTCHAR 02BE
ENCODING 702
SWIDTH 600 0
DWIDTH 20 0
BBX 3 6 10 20
BITMAP
C0
20
20
20
20
C0
ENDCHAR
STARTCHAR 02BF
ENCODING 703
SWIDTH 600 0
DWIDTH 20 0
BBX 3 6 7 20
BITMAP
60
80
80
80
80
60
ENDCHAR
STARTCHAR 02C6
ENCODING 710
SWIDTH 600 0
DWIDTH 20 0
BBX 8 4 6 20
BITMAP
18
24
42
81
ENDCHAR
STARTCHAR 02C7
ENCODING 711
SWIDTH 600 0
DWIDTH 20 0
BBX 8 4 6 20
BITMAP
81
42
24
18
ENDCHAR
STARTCHAR 02C8
ENCODING 712
SWIDTH 150 0
DWIDTH 5 0
BBX 1 6 2 17
BITMAP
80
80
80
80
80
80
ENDCHAR
STARTCHAR 02C9
ENCODING 713
SWIDTH 600 0
DWIDTH 20 0
BBX 8 1 6 22
BITMAP
FF
ENDCHAR
STARTCHAR 02CA
ENCODING 714
SWIDTH 600 0
DWIDTH 20 0
BBX 5 4 9 20
BITMAP
08
30
40
80
ENDCHAR
STARTCHAR 02CB
ENCODING 715
SWIDTH 600 0
DWIDTH 20 0
BBX 5 4 6 20
BITMAP
80
60
10
08
ENDCHAR
STARTCHAR 02CC
ENCODING 716
SWIDTH 150 0
DWIDTH 5 0
BBX 1 6 2 -7
BITMAP
80
80
80
80
80
80
ENDCHAR
STARTCHAR 02D8
ENCODING 728
SWIDTH 600 0
DWIDTH 20 0
BBX 8 3 6 21
BITMAP
81
42
3C
ENDCHAR
STARTCHAR 02D9
ENCODING 729
SWIDTH 600 0
DWIDTH 20 0
BBX 2 1 9 21
BITMAP
C0
ENDCHAR
STARTCHAR 02DA
ENCODING 730
SWIDTH 600 0
DWIDTH 20 0
BBX 6 6 7 20
BITMAP
78
84
84
84
84
78
ENDCHAR
STARTCHAR 02DB
ENCODING 731
SWIDTH 600 0
DWIDTH 20 0
BBX 5 7 5 -6
BITMAP
18
60
80
80
80
80
78
ENDCHAR
STARTCHAR 02DC
ENCODING 732
SWIDTH 600 0
DWIDTH 20 0
BBX 9 2 5 22
BITMAP
5880
8780
ENDCHAR
STARTCHAR 02DD
ENCODING 733
SWIDTH 600 0
DWIDTH 20 0
BBX 9 4 7 20
BITMAP
0880
1100
6200
8400
ENDCHAR
STARTCHAR 0300
ENCODING 768
SWIDTH 0 0
DWIDTH 0 0
BBX 5 4 6 20
BITMAP
80
60
10
08
ENDCHAR
STARTCHAR 0301
ENCODING 769
SWIDTH 0 0
DWIDTH 0 0
BBX 5 4 9 20
BITMAP
08
30
40
80
ENDCHAR
STARTCHAR 0302
ENCODING 770
SWIDTH 0 0
DWIDTH 0 0
BBX 8 4 6 20
BITMAP
18
24
42
81
ENDCHAR
STARTCHAR 0303
ENCODING 771
SWIDTH 0 0
DWIDTH 0 0
BBX 9 2 5 22
BITMAP
5880
8780
ENDCHAR
STARTCHAR 0304
ENCODING 772
SWIDTH 0 0
DWIDTH 0 0
BBX 8 1 6 22
BITMAP
FF
ENDCHAR
STARTCHAR 0306
ENCODING 774
SWIDTH 0 0
DWIDTH 0 0
BBX 8 3 6 21
BITMAP
81
42
3C
ENDCHAR
STARTCHAR 0307
ENCODING 775
SWIDTH 0 0
DWIDTH 0 0
BBX 2 1 9 21
BITMAP
C0
ENDCHAR
STARTCHAR 0308
ENCODING 776
SWIDTH 0 0
DWIDTH 0 0
BBX 8 2 6 21
BITMAP
C3
42
ENDCHAR
STARTCHAR 0309
ENCODING 777
SWIDTH 0 0
DWIDTH 0 0
BBX 4 6 8 20
BITMAP
60
90
10
10
10
20
ENDCHAR
STARTCHAR 030A
ENCODING 778
SWIDTH 0 0
DWIDTH 0 0
BBX 6 6 7 20
BITMAP
78
84
84
84
84
78
ENDCHAR
STARTCHAR 030B
ENCODING 779
SWIDTH 0 0
DWIDTH 0 0
BBX 9 4 7 20
BITMAP
0880
1100
6200
8400
ENDCHAR
STARTCHAR 030C
ENCODING 780
SWIDTH 0 0
DWIDTH 0 0
BBX 8 4 6 20
BITMAP
81
42
24
18
ENDCHAR
STARTCHAR 030F
ENCODING 783
SWIDTH 0 0
DWIDTH 0 0
BBX 9 4 4 20
BITMAP
8800
4400
2200
1180
ENDCHAR
STARTCHAR 0311
ENCODING 785
SWIDTH 0 0
DWIDTH 0 0
BBX 8 3 6 20
BITMAP
3C
C3
81
ENDCHAR
STARTCHAR 0312
ENCODING 786
SWIDTH 0 0
DWIDTH 0 0
BBX 2 5 9 20
BITMAP
40
80
80
C0
C0
ENDCHAR
STARTCHAR 031B
ENCODING 795
SWIDTH 0 0
DWIDTH 0 0
BBX 3 5 10 17
BITMAP
20
20
20
20
C0
ENDCHAR
STARTCHAR 0323
ENCODING 803
SWIDTH 0 0
DWIDTH 0 0
BBX 2 2 9 -6
BITMAP
C0
C0
ENDCHAR
STARTCHAR 0324
ENCODING 804
SWIDTH 0 0
DWIDTH 0 0
BBX 6 2 7 -6
BITMAP
84
84
ENDCHAR
STARTCHAR 0326
ENCODING 806
SWIDTH 0 0
DWIDTH 0 0
BBX 2 5 9 -9
BITMAP
C0
C0
40
80
80
ENDCHAR
STARTCHAR 0327
ENCODING 807
SWIDTH 0 0
DWIDTH 0 0
BBX 6 7 7 -7
BITMAP
20
20
18
08
04
08
F0
ENDCHAR
STARTCHAR 0328
ENCODING 808
SWIDTH 0 0
DWIDTH 0 0
BBX 5 7 5 -6
BITMAP
18
60
80
80
80
80
78
ENDCHAR
STARTCHAR 032E
ENCODING 814
SWIDTH 0 0
DWIDTH 0 0
BBX 8 4 6 -7
BITMAP
81
81
42
3C
ENDCHAR
STARTCHAR 0331
ENCODING 817
SWIDTH 0 0
DWIDTH 0 0
BBX 8 1 6 -5
BITMAP
FF
ENDCHAR
STARTCHAR 0335
ENCODING 821
SWIDTH 0 0
DWIDTH 0 0
BBX 12 1 4 14
BITMAP
FFF0
ENDCHAR
STARTCHAR 0336
ENCODING 822
SWIDTH 0 0
DWIDTH 0 0
BBX 26 1 0 14
BITMAP
FFFFFFC0
ENDCHAR
STARTCHAR 0337
ENCODING 823
SWIDTH 0 0
DWIDTH 0 0
BBX 6 5 2 10
BITMAP
04
08
30
40
80
ENDCHAR
STARTCHAR 0338
ENCODING 824
SWIDTH 0 0
DWIDTH 0 0
BBX 15 22 3 -2
BITMAP
0002
0004
0004
0008
0010
0020
0020
0040
0080
0080
0100
0200
0200
0400
0800
0800
1000
2000
2000
4000
8000
8000
ENDCHAR
STARTCHAR 0394
ENCODING 916
SWIDTH 660 0
DWIDTH 22 0
BBX 21 23 1 0
BITMAP
002000
005000
005000
008800
008800
010400
010400
020400
020200
040200
040100
080100
080080
100080
100040
100040
200020
200020
400010
400010
800010
800008
FFFFF8
ENDCHAR
STARTCHAR 03A9
ENCODING 937
SWIDTH 900 0
DWIDTH 30 0
BBX 30 23 0 0
BITMAP
003FF000
00C00C00
01000200
02000100
04000080
08000040
08000040
18000020
10000020
10000020
10000020
10000020
10000020
10000020
10000020
08000040
08000040
04000040
04000080
02000100
01000200
00C00400
FFE01FFC
ENDCHAR
STARTCHAR 03BC
ENCODING 956
SWIDTH 660 0
DWIDTH 22 0
BBX 15 23 4 -6
BITMAP
8002
8002
8002
8002
8002
8002
8002
8002
8002
8002
8002
8002
8006
800A
C00A
A012
9FE2
8000
8000
8000
8000
8000
8000
ENDCHAR
STARTCHAR 03C0
ENCODING 960
SWIDTH 690 0
DWIDTH 23 0
BBX 23 17 0 0
BITMAP
3FFFFE
408040
808040
808040
810040
810040
810040
410040
010040
010040
010040
010040
010040
020040
020040
020040
020040
ENDCHAR
STARTCHAR 0400
ENCODING 1024
SWIDTH 630 0
DWIDTH 21 0
BBX 15 29 5 0
BITMAP
1000
0C00
0200
0100
0000
0000
FFFC
8000
8000
8000
8000
8000
8000
8000
8000
8000
8000
FFF8
8000
8000
8000
8000
8000
8000
8000
8000
8000
8000
FFFE
ENDCHAR
STARTCHAR 0401
ENCODING 1025
SWIDTH 630 0
DWIDTH 21 0
BBX 15 28 5 0
BITMAP
0860
0800
0000
0000
0000
FFFC
8000
8000
8000
8000
8000
8000
8000
8000
8000
8000
FFF8
8000
8000
8000
8000
8000
8000
8000
8000
8000
8000
FFFE
ENDCHAR
STARTCHAR 0402
ENCODING 1026
SWIDTH 810 0
DWIDTH 27 0
BBX 24 23 1 0
BITMAP
FFFF80
008000
008000
008000
008000
008000
008000
008000
008000
0087E0
00B81C
00C002
008002
008001
008001
008001
008001
008001
008001
008001
008002
008004
0083F8
ENDCHAR
STARTCHAR 0403
ENCODING 1027
SWIDTH 540 0
DWIDTH 18 0
BBX 13 29 5 0
BITMAP
0040
0080
0300
0400
0000
0000
FFF8
8000
8000
8000
8000
8000
8000
8000
8000
8000
8000
8000
8000
8000
8000
8000
8000
8000
8000
8000
8000
8000
8000
ENDCHAR
STARTCHAR 0404
ENCODING 1028
SWIDTH 690 0
DWIDTH 23 0
BBX 20 23 2 0
BITMAP
01FF80
060060
080010
100000
200000
200000
400000
400000
800000
800000
800000
FFFE00
800000
800000
800000
400000
400000
200000
200000
100000
0C0030
020040
01FF80
ENDCHAR
STARTCHAR 0405
ENCODING 1029
SWIDTH 600 0
DWIDTH 20 0
BBX 16 23 2 0
BITMAP
0FF8
3006
4000
4000
4000
8000
8000
4000
4000
3000
0C00
03C0
0038
0006
0001
0001
0001
0001
0001
8001
4002
3004
0FF8
ENDCHAR
STARTCHAR 0406
ENCODING 1030
SWIDTH 270 0
DWIDTH 9 0
BBX 1 23 4 0
BITMAP
80
80
80
80
80
80
80
80
80
80
80
80
80
80
80
80
80
80
80
80
80
80
80
ENDCHAR
STARTCHAR 0407
ENCODING 1031
SWIDTH 270 0
DWIDTH 9 0
BBX 7 28 1 0
BITMAP
C2
02
00
00
00
10
10
10
10
10
10
10
10
10
10
10
10
10
10
10
10
10
10
10
10
10
10
10
ENDCHAR
STARTCHAR 0408
ENCODING 1032
SWIDTH 480 0
DWIDTH 16 0
BBX 11 23 1 0
BITMAP
1FE0
0020
0020
0020
0020
0020
0020
0020
0020
0020
0020
0020
0020
0020
0020
0020
0020
0020
0020
0020
8020
4040
3F80
ENDCHAR
STARTCHAR 0409
ENCODING 1033
SWIDTH 1170 0
DWIDTH 39 0
BBX 38 23 0 0
BITMAP
03FFF80000
0200080000
0200080000
0200080000
0200080000
0200080000
0200080000
0200080000
020007FE00
02000801C0
0200080030
0200080008
0200080008
0200080008
0200080004
0200080004
0400080004
0400080004
0400080008
0400080008
0800080010
0800080020
F00007FFC0
ENDCHAR
STARTCHAR 040A
ENCODING 1034
SWIDTH 1170 0
DWIDTH 39 0
BBX 33 23 5 0
BITMAP
8000800000
8000800000
8000800000
8000800000
8000800000
8000800000
8000800000
8000800000
8000800000
8000800000
FFFFBFF800
8000800600
8000800100
8000800080
8000800080
8000800080
8000800080
8000800080
8000800080
8000800100
8000800100
8000800600
80007FF800
ENDCHAR
STARTCHAR 040B
ENCODING 1035
SWIDTH 810 0
DWIDTH 27 0
BBX 24 23 1 0
BITMAP
FFFF80
008000
008000
008000
008000
008000
008000
008000
008000
0087E0
00B81C
00C002
008002
008001
008001
008001
008001
008001
008001
008001
008001
008001
008001
ENDCHAR
STARTCHAR 040C
ENCODING 1036
SWIDTH 660 0
DWIDTH 22 0
BBX 16 29 5 0
BITMAP
0040
0080
0300
0400
0000
0000
8001
8002
8004
8008
8010
8020
8020
8040
8080
8100
8200
FE00
8100
8080
8040
8020
8020
8010
8008
8004
8002
8001
8001
ENDCHAR
STARTCHAR 040D
ENCODING 1037
SWIDTH 810 0
DWIDTH 27 0
BBX 18 29 5 0
BITMAP
040000
020000
018000
004000
000000
000000
800040
8000C0
800140
800240
800240
800440
800840
801040
802040
802040
804040
808040
810040
810040
820040
840040
880040
900040
900040
A00040
C00040
800040
800040
ENDCHAR
STARTCHAR 040E
ENCODING 1038
SWIDTH 630 0
DWIDTH 21 0
BBX 20 29 1 0
BITMAP
040000
040400
020800
01F000
000000
000000
800010
400020
400020
200040
200040
100080
100080
080100
080200
040200
040400
020400
020800
010800
009000
009000
006000
006000
004000
008000
008000
010000
3E0000
ENDCHAR
STARTCHAR 040F
ENCODING 1039
SWIDTH 780 0
DWIDTH 26 0
BBX 17 29 5 -6
BITMAP
800080
800080
800080
800080
800080
800080
800080
800080
800080
800080
800080
800080
800080
800080
800080
800080
800080
800080
800080
800080
800080
800080
FFFF80
008000
008000
008000
008000
008000
008000
ENDCHAR
STARTCHAR 0410
ENCODING 1040
SWIDTH 690 0
DWIDTH 23 0
BBX 22 23 1 0
BITMAP
003000
003000
004800
004800
008400
008400
010400
010200
020200
020100
040100
040080
080080
080040
100040
1FFFE0
100020
200010
200010
400010
400008
800008
800004
ENDCHAR
STARTCHAR 0411
ENCODING 1041
SWIDTH 690 0
DWIDTH 23 0
BBX 17 23 5 0
BITMAP
FFFE00
800000
800000
800000
800000
800000
800000
800000
800000
800000
FFF800
800600
800100
800100
800080
800080
800080
800080
800080
800100
800200
800400
FFF800
ENDCHAR
STARTCHAR 0412
ENCODING 1042
SWIDTH 750 0
DWIDTH 25 0
BBX 17 23 5 0
BITMAP
FFF800
800400
800200
800100
800100
800100
800100
800100
800200
800200
801C00
FFFC00
800200
800100
800080
800080
800080
800080
800080
800080
800100
800200
FFFC00
ENDCHAR
STARTCHAR 0413
ENCODING 1043
SWIDTH 540 0
DWIDTH 18 0
BBX 13 23 5 0
BITMAP
FFF8
8000
8000
8000
8000
8000
8000
8000
8000
8000
8000
8000
8000
8000
8000
8000
8000
8000
8000
8000
8000
8000
8000
ENDCHAR
STARTCHAR 0414
ENCODING 1044
SWIDTH 750 0
DWIDTH 25 0
BBX 24 29 0 -6
BITMAP
03FFF8
020008
020008
020008
020008
020008
020008
020008
020008
020008
020008
020008
040008
040008
040008
040008
040008
040008
040008
080008
080008
100008
FFFFFF
800001
800001
800001
800001
800001
800000
ENDCHAR
STARTCHAR 0415
ENCODING 1045
SWIDTH 630 0
DWIDTH 21 0
BBX 15 23 5 0
BITMAP
FFFC
8000
8000
8000
8000
8000
8000
8000
8000
8000
8000
FFF8
8000
8000
8000
8000
8000
8000
8000
8000
8000
8000
FFFE
ENDCHAR
STARTCHAR 0416
ENCODING 1046
SWIDTH 960 0
DWIDTH 32 0
BBX 30 23 1 0
BITMAP
40010008
20010010
10010010
10010020
08010040
04010040
04010080
02010100
01010100
01010200
00810400
00FFFC00
00810200
01010200
02010100
04010080
04010040
08010040
10010020
20010010
20010008
40010008
80010004
ENDCHAR
STARTCHAR 0417
ENCODING 1047
SWIDTH 600 0
DWIDTH 20 0
BBX 16 23 2 1
BITMAP
1FF0
6008
0004
0002
0002
0002
0002
0002
0004
0008
1FE0
0018
0004
0002
0001
0001
0001
0001
0001
0002
8004
6008
1FF0
ENDCHAR
STARTCHAR 0418
ENCODING 1048
SWIDTH 810 0
DWIDTH 27 0
BBX 18 23 5 0
BITMAP
800040
8000C0
800140
800240
800240
800440
800840
801040
802040
802040
804040
808040
810040
810040
820040
840040
880040
900040
900040
A00040
C00040
800040
800040
ENDCHAR
STARTCHAR 0419
ENCODING 1049
SWIDTH 810 0
DWIDTH 27 0
BBX 18 29 5 0
BITMAP
080000
080800
041000
03E000
000000
000000
800040
8000C0
800140
800240
800240
800440
800840
801040
802040
802040
804040
808040
810040
810040
820040
840040
880040
900040
900040
A00040
C00040
800040
800040
ENDCHAR
STARTCHAR 041A
ENCODING 1050
SWIDTH 660 0
DWIDTH 22 0
BBX 16 23 5 0
BITMAP
8001
8002
8004
8008
8010
8020
8020
8040
8080
8100
8200
FE00
8100
8080
8040
8020
8020
8010
8008
8004
8002
8001
8001
ENDCHAR
STARTCHAR 041B
ENCODING 1051
SWIDTH 750 0
DWIDTH 25 0
BBX 21 23 0 0
BITMAP
03FFF8
020008
020008
020008
020008
020008
020008
020008
020008
020008
020008
020008
020008
020008
020008
020008
040008
040008
040008
040008
080008
080008
F00008
ENDCHAR
STARTCHAR 041C
ENCODING 1052
SWIDTH 960 0
DWIDTH 32 0
BBX 23 23 5 0
BITMAP
800002
800006
C0000A
C0000A
A00012
A00022
900022
880042
880042
840082
840082
820102
820202
810202
808402
808402
804802
804802
803002
800002
800002
800002
800002
ENDCHAR
STARTCHAR 041D
ENCODING 1053
SWIDTH 810 0
DWIDTH 27 0
BBX 18 23 5 0
BITMAP
800040
800040
800040
800040
800040
800040
800040
800040
800040
800040
800040
FFFFC0
800040
800040
800040
800040
800040
800040
800040
800040
800040
800040
800040
ENDCHAR
STARTCHAR 041E
ENCODING 1054
SWIDTH 840 0
DWIDTH 28 0
BBX 24 23 2 0
BITMAP
01FF80
060060
080010
100008
200004
200002
400002
400001
800001
800001
800001
800001
800001
800001
800001
400001
400002
200002
200004
100008
0C0010
020060
01FF80
ENDCHAR
STARTCHAR 041F
ENCODING 1055
SWIDTH 810 0
DWIDTH 27 0
BBX 18 23 5 0
BITMAP
FFFFC0
800040
800040
800040
800040
800040
800040
800040
800040
800040
800040
800040
800040
800040
800040
800040
800040
800040
800040
800040
800040
800040
800040
ENDCHAR
STARTCHAR 0420
ENCODING 1056
SWIDTH 690 0
DWIDTH 23 0
BBX 17 23 5 0
BITMAP
FFF000
800C00
800200
800100
800100
800100
800080
800080
800080
800100
800100
800100
800200
800C00
FFF000
800000
800000
800000
800000
800000
800000
800000
800000
ENDCHAR
STARTCHAR 0421
ENCODING 1057
SWIDTH 690 0
DWIDTH 23 0
BBX 20 23 2 0
BITMAP
01FF80
060060
080010
100000
200000
200000
400000
400000
800000
800000
800000
800000
800000
800000
800000
400000
400000
200000
200000
100000
0C0010
030060
00FF80
ENDCHAR
STARTCHAR 0422
ENCODING 1058
SWIDTH 540 0
DWIDTH 18 0
BBX 17 23 1 0
BITMAP
FFFF80
008000
008000
008000
008000
008000
008000
008000
008000
008000
008000
008000
008000
008000
008000
008000
008000
008000
008000
008000
008000
008000
008000
ENDCHAR
STARTCHAR 0423
ENCODING 1059
SWIDTH 630 0
DWIDTH 21 0
BBX 20 23 1 0
BITMAP
800010
400020
400020
200040
200040
100080
100080
080100
080200
040200
040400
020400
020800
010800
009000
009000
006000
006000
004000
008000
008000
010000
3E0000
ENDCHAR
STARTCHAR 0424
ENCODING 1060
SWIDTH 870 0
DWIDTH 29 0
BBX 26 24 2 -1
BITMAP
00080000
00080000
001E0000
03C8F000
08080C00
10080200
20080100
40080080
80080080
80080040
80080040
80080040
80080040
80080040
80080040
80080080
40080080
40080180
20080100
10080200
0C080C00
03C9F000
003E0000
00080000
ENDCHAR
STARTCHAR 0425
ENCODING 1061
SWIDTH 600 0
DWIDTH 20 0
BBX 18 23 1 0
BITMAP
400080
200100
100100
100200
080400
040400
040800
021000
012000
00A000
00C000
00C000
012000
012000
021000
040800
040400
080400
100200
200100
200080
400080
800040
ENDCHAR
STARTCHAR 0426
ENCODING 1062
SWIDTH 810 0
DWIDTH 27 0
BBX 21 29 5 -6
BITMAP
800080
800080
800080
800080
800080
800080
800080
800080
800080
800080
800080
800080
800080
800080
800080
800080
800080
800080
800080
800080
800080
800080
FFFFF8
000008
000008
000008
000008
000008
000008
ENDCHAR
STARTCHAR 0427
ENCODING 1063
SWIDTH 720 0
DWIDTH 24 0
BBX 17 23 2 0
BITMAP
800080
800080
800080
800080
800080
800080
800080
800080
800080
800080
400080
400080
200180
1C0E80
03F080
000080
000080
000080
000080
000080
000080
000080
000080
ENDCHAR
STARTCHAR 0428
ENCODING 1064
SWIDTH 1080 0
DWIDTH 36 0
BBX 27 23 5 0
BITMAP
80040020
80040020
80040020
80040020
80040020
80040020
80040020
80040020
80040020
80040020
80040020
80040020
80040020
80040020
80040020
80040020
80040020
80040020
80040020
80040020
80040020
80040020
FFFFFFE0
ENDCHAR
STARTCHAR 0429
ENCODING 1065
SWIDTH 1080 0
DWIDTH 36 0
BBX 31 29 5 -6
BITMAP
80040020
80040020
80040020
80040020
80040020
80040020
80040020
80040020
80040020
80040020
80040020
80040020
80040020
80040020
80040020
80040020
80040020
80040020
80040020
80040020
80040020
80040020
FFFFFFFE
00000002
00000002
00000002
00000002
00000002
00000002
ENDCHAR
STARTCHAR 042A
ENCODING 1066
SWIDTH 780 0
DWIDTH 26 0
BBX 24 23 1 0
BITMAP
FF0000
010000
010000
010000
010000
010000
010000
010000
01FF80
010078
010004
010002
010001
010001
010001
010001
010001
010001
010001
010002
010004
010008
01FFF0
ENDCHAR
STARTCHAR 042B
ENCODING 1067
SWIDTH 930 0
DWIDTH 31 0
BBX 22 23 5 0
BITMAP
800004
800004
800004
800004
800004
800004
800004
800004
FFC004
803804
800604
800104
800104
800104
800084
800084
800084
800084
800104
800104
800204
800404
FFF804
ENDCHAR
STARTCHAR 042C
ENCODING 1068
SWIDTH 690 0
DWIDTH 23 0
BBX 17 23 5 0
BITMAP
800000
800000
800000
800000
800000
800000
800000
800000
FFC000
803800
800600
800100
800100
800100
800080
800080
800080
800080
800100
800100
800200
800400
FFF800
ENDCHAR
STARTCHAR 042D
ENCODING 1069
SWIDTH 690 0
DWIDTH 23 0
BBX 19 23 2 0
BITMAP
1FF000
600C00
800200
000100
000080
000040
000040
000020
000020
000020
000020
07FFE0
000020
000020
000020
000040
000040
000040
000080
000100
800200
600C00
1FE000
ENDCHAR
STARTCHAR 042E
ENCODING 1070
SWIDTH 1080 0
DWIDTH 36 0
BBX 29 23 5 0
BITMAP
8007FC00
80180300
80200080
80400040
80800020
81000020
81000010
82000010
82000010
82000010
82000008
FE000008
82000008
82000010
82000010
82000010
81000010
81000020
80800040
80400040
80200080
80180300
8007FC00
ENDCHAR
STARTCHAR 042F
ENCODING 1071
SWIDTH 720 0
DWIDTH 24 0
BBX 17 23 3 0
BITMAP
0FFF80
200080
400080
800080
800080
800080
800080
800080
800080
800080
800080
800080
400080
200080
1E0080
05FF80
080080
100080
100080
200080
400080
400080
800080
ENDCHAR
STARTCHAR 0430
ENCODING 1072
SWIDTH 540 0
DWIDTH 18 0
BBX 14 17 2 0
BITMAP
1FE0
2010
4008
0008
0008
0008
0004
0004
3FFC
4004
8004
8004
8004
800C
8014
6024
1F84
ENDCHAR
STARTCHAR 0431
ENCODING 1073
SWIDTH 630 0
DWIDTH 21 0
BBX 17 25 3 0
BITMAP
000E00
00F000
070000
080000
300000
200000
400000
800000
83E000
8C1800
B00400
C00200
C00100
800100
800100
800080
800080
800080
800100
800100
400100
400200
200400
180800
07E000
ENDCHAR
STARTCHAR 0432
ENCODING 1074
SWIDTH 570 0
DWIDTH 19 0
BBX 13 17 4 0
BITMAP
FFC0
8030
8010
8008
8008
8010
8010
8060
FFC0
8010
8008
8008
8008
8008
8008
8010
FFE0
ENDCHAR
STARTCHAR 0433
ENCODING 1075
SWIDTH 420 0
DWIDTH 14 0
BBX 11 17 4 0
BITMAP
FFE0
8000
8000
8000
8000
8000
8000
8000
8000
8000
8000
8000
8000
8000
8000
8000
8000
ENDCHAR
STARTCHAR 0434
ENCODING 1076
SWIDTH 600 0
DWIDTH 20 0
BBX 19 21 0 -4
BITMAP
07FF00
040100
040100
040100
040100
040100
080100
080100
080100
080100
080100
080100
080100
080100
100100
100100
FFFFE0
800020
800020
800020
800020
ENDCHAR
STARTCHAR 0435
ENCODING 1077
SWIDTH 570 0
DWIDTH 19 0
BBX 16 17 2 0
BITMAP
07F0
1808
2004
4002
4002
8001
8001
8001
FFFE
8000
8000
8000
4000
4000
2002
1804
07F8
ENDCHAR
STARTCHAR 0436
ENCODING 1078
SWIDTH 750 0
DWIDTH 25 0
BBX 24 17 1 0
BITMAP
401002
401004
201004
101008
081010
081020
041020
021040
03FFC0
041040
041020
081010
101008
201008
201004
401002
801001
ENDCHAR
STARTCHAR 0437
ENCODING 1079
SWIDTH 510 0
DWIDTH 17 0
BBX 14 17 1 0
BITMAP
1FE0
6010
0008
0008
0008
0008
0010
00E0
0760
0018
0008
0004
0004
0008
8008
4010
3FE0
ENDCHAR
STARTCHAR 0438
ENCODING 1080
SWIDTH 660 0
DWIDTH 22 0
BBX 15 17 4 0
BITMAP
8006
800A
800A
8012
8022
8042
8082
8102
8102
8202
8402
8802
9002
A002
A002
C002
8002
ENDCHAR
STARTCHAR 0439
ENCODING 1081
SWIDTH 660 0
DWIDTH 22 0
BBX 15 24 4 0
BITMAP
1010
1020
0820
07C0
0000
0000
0000
8006
800A
800A
8012
8022
8042
8082
8102
8102
8202
8402
8802
9002
A002
A002
C002
8002
ENDCHAR
STARTCHAR 043A
ENCODING 1082
SWIDTH 540 0
DWIDTH 18 0
BBX 13 17 4 0
BITMAP
8018
8010
8020
8040
8080
8100
8200
8400
FC00
8200
8100
8080
8040
8040
8020
8010
8008
ENDCHAR
STARTCHAR 043B
ENCODING 1083
SWIDTH 600 0
DWIDTH 20 0
BBX 17 17 0 0
BITMAP
07FF80
040080
040080
040080
040080
040080
040080
080080
080080
080080
080080
080080
080080
080080
100080
100080
E00080
ENDCHAR
STARTCHAR 043C
ENCODING 1084
SWIDTH 750 0
DWIDTH 25 0
BBX 18 17 4 0
BITMAP
800040
C000C0
C00140
A00140
A00240
900240
880440
880840
840840
841040
821040
812040
814040
80C040
800040
800040
800040
ENDCHAR
STARTCHAR 043D
ENCODING 1085
SWIDTH 660 0
DWIDTH 22 0
BBX 14 17 4 0
BITMAP
8004
8004
8004
8004
8004
8004
8004
8004
FFFC
8004
8004
8004
8004
8004
8004
8004
8004
ENDCHAR
STARTCHAR 043E
ENCODING 1086
SWIDTH 600 0
DWIDTH 20 0
BBX 17 17 2 0
BITMAP
07F000
180C00
200200
400200
400100
800100
800080
800080
800080
800080
800080
800100
400100
400200
200200
180C00
07F000
ENDCHAR
STARTCHAR 043F
ENCODING 1087
SWIDTH 660 0
DWIDTH 22 0
BBX 14 17 4 0
BITMAP
FFFC
8004
8004
8004
8004
8004
8004
8004
8004
8004
8004
8004
8004
8004
8004
8004
8004
ENDCHAR
STARTCHAR 0440
ENCODING 1088
SWIDTH 660 0
DWIDTH 22 0
BBX 17 23 4 -6
BITMAP
87F000
980C00
A00200
C00200
800100
800100
800100
800080
800080
800080
800100
800100
C00100
C00200
A00400
900800
8FE000
800000
800000
800000
800000
800000
800000
ENDCHAR
STARTCHAR 0441
ENCODING 1089
SWIDTH 540 0
DWIDTH 18 0
BBX 15 17 2 0
BITMAP
07F0
180C
2002
4000
4000
8000
8000
8000
8000
8000
8000
8000
4000
4000
2002
180C
07F0
ENDCHAR
STARTCHAR 0442
ENCODING 1090
SWIDTH 420 0
DWIDTH 14 0
BBX 14 17 0 0
BITMAP
FFFC
0100
0100
0100
0100
0100
0100
0100
0100
0100
0100
0100
0100
0100
0100
0100
0100
ENDCHAR
STARTCHAR 0443
ENCODING 1091
SWIDTH 510 0
DWIDTH 17 0
BBX 17 24 0 -7
BITMAP
400080
400100
200100
200200
200200
100400
100400
080400
080800
040800
041000
021000
022000
012000
014000
014000
008000
008000
010000
010000
010000
020000
840000
480000
ENDCHAR
STARTCHAR 0444
ENCODING 1092
SWIDTH 720 0
DWIDTH 24 0
BBX 21 31 2 -6
BITMAP
002000
002000
002000
002000
002000
002000
002000
002000
07FE00
182180
202060
402020
402010
802010
802008
802008
802008
802008
802008
802010
402010
402020
202040
182080
07FF00
002000
002000
002000
002000
002000
002000
ENDCHAR
STARTCHAR 0445
ENCODING 1093
SWIDTH 480 0
DWIDTH 16 0
BBX 14 17 1 0
BITMAP
4004
4008
2010
1020
0840
0440
0480
0300
0300
0280
0440
0840
1020
2010
2008
4008
8004
ENDCHAR
STARTCHAR 0446
ENCODING 1094
SWIDTH 660 0
DWIDTH 22 0
BBX 17 21 4 -4
BITMAP
800400
800400
800400
800400
800400
800400
800400
800400
800400
800400
800400
800400
800400
800400
800400
800400
FFFF80
000080
000080
000080
000080
ENDCHAR
STARTCHAR 0447
ENCODING 1095
SWIDTH 570 0
DWIDTH 19 0
BBX 13 17 2 0
BITMAP
8008
8008
8008
8008
8008
8008
8008
8008
4008
2038
1F48
0008
0008
0008
0008
0008
0008
ENDCHAR
STARTCHAR 0448
ENCODING 1096
SWIDTH 900 0
DWIDTH 30 0
BBX 22 17 4 0
BITMAP
802004
802004
802004
802004
802004
802004
802004
802004
802004
802004
802004
802004
802004
802004
802004
802004
FFFFFC
ENDCHAR
STARTCHAR 0449
ENCODING 1097
SWIDTH 900 0
DWIDTH 30 0
BBX 25 21 4 -4
BITMAP
80200400
80200400
80200400
80200400
80200400
80200400
80200400
80200400
80200400
80200400
80200400
80200400
80200400
80200400
80200400
80200400
FFFFFF80
00000080
00000080
00000080
00000080
ENDCHAR
STARTCHAR 044A
ENCODING 1098
SWIDTH 570 0
DWIDTH 19 0
BBX 18 17 0 0
BITMAP
FC0000
040000
040000
040000
040000
040000
03FC00
040300
040080
040040
040040
040040
040040
040040
040080
040100
03FE00
ENDCHAR
STARTCHAR 044B
ENCODING 1099
SWIDTH 720 0
DWIDTH 24 0
BBX 17 17 4 0
BITMAP
800080
800080
800080
800080
800080
800080
FF0080
80E080
801080
801080
801080
800880
800880
801080
801080
802080
FFC080
ENDCHAR
STARTCHAR 044C
ENCODING 1100
SWIDTH 510 0
DWIDTH 17 0
BBX 13 17 4 0
BITMAP
8000
8000
8000
8000
8000
8000
FF00
80E0
8010
8010
8010
8008
8008
8010
8010
8020
FFC0
ENDCHAR
STARTCHAR 044D
ENCODING 1101
SWIDTH 540 0
DWIDTH 18 0
BBX 15 17 2 0
BITMAP
3FC0
C020
0018
0008
0004
0004
0002
0002
0FFE
0002
0002
0004
0004
0008
0010
8020
7FC0
ENDCHAR
STARTCHAR 044E
ENCODING 1102
SWIDTH 840 0
DWIDTH 28 0
BBX 22 17 4 0
BITMAP
803F80
804060
818010
810008
820008
820004
840004
840004
FC0004
840004
840004
820004
820008
810008
808010
804020
803FC0
ENDCHAR
STARTCHAR 044F
ENCODING 1103
SWIDTH 570 0
DWIDTH 19 0
BBX 14 17 2 0
BITMAP
1FFC
2004
4004
8004
8004
8004
8004
4004
4004
3004
0FFC
0804
1004
1004
2004
4004
4004
ENDCHAR
STARTCHAR 0450
ENCODING 1104
SWIDTH 600 0
DWIDTH 20 0
BBX 16 24 2 0
BITMAP
0800
0600
0100
0080
0000
0000
0000
07F0
1808
2004
4002
4002
8001
8001
8001
FFFE
8000
8000
8000
4000
4000
2002
1804
07F8
ENDCHAR
STARTCHAR 0451
ENCODING 1105
SWIDTH 570 0
DWIDTH 19 0
BBX 16 23 2 0
BITMAP
0430
0400
0000
0000
0000
0000
07F0
1808
2004
4002
4002
8001
8001
8001
FFFE
8000
8000
8000
4000
4000
2002
1804
07F8
ENDCHAR
STARTCHAR 0452
ENCODING 1106
SWIDTH 660 0
DWIDTH 22 0
BBX 19 32 0 -7
BITMAP
080000
080000
080000
080000
FFF800
080000
080000
080000
08FF00
0B0080
0C0040
0C0040
080040
080020
080020
080020
080020
080020
080020
080020
080020
080020
080020
080020
080020
000020
000020
000020
000020
000040
0018C0
000700
ENDCHAR
STARTCHAR 0453
ENCODING 1107
SWIDTH 420 0
DWIDTH 14 0
BBX 11 24 4 0
BITMAP
00C0
0100
0200
0C00
0000
0000
0000
FFE0
8000
8000
8000
8000
8000
8000
8000
8000
8000
8000
8000
8000
8000
8000
8000
8000
ENDCHAR
STARTCHAR 0454
ENCODING 1108
SWIDTH 540 0
DWIDTH 18 0
BBX 15 17 2 0
BITMAP
07F8
1806
2000
4000
4000
8000
8000
8000
FFE0
8000
8000
8000
4000
4000
2000
1806
03F8
ENDCHAR
STARTCHAR 0455
ENCODING 1109
SWIDTH 510 0
DWIDTH 17 0
BBX 13 17 2 0
BITMAP
1FE0
6010
4000
8000
8000
4000
4000
3000
0F80
0060
0010
0008
0008
0008
8008
4010
3FE0
ENDCHAR
STARTCHAR 0456
ENCODING 1110
SWIDTH 240 0
DWIDTH 8 0
BBX 2 24 3 0
BITMAP
40
C0
00
00
00
00
00
40
40
40
40
40
40
40
40
40
40
40
40
40
40
40
40
40
ENDCHAR
STARTCHAR 0457
ENCODING 1111
SWIDTH 240 0
DWIDTH 8 0
BBX 5 23 2 0
BITMAP
98
80
00
00
00
00
20
20
20
20
20
20
20
20
20
20
20
20
20
20
20
20
20
ENDCHAR
STARTCHAR 0458
ENCODING 1112
SWIDTH 240 0
DWIDTH 8 0
BBX 8 31 -3 -7
BITMAP
01
03
00
00
00
00
00
01
01
01
01
01
01
01
01
01
01
01
01
01
01
01
01
01
01
01
01
02
02
C4
38
ENDCHAR
STARTCHAR 0459
ENCODING 1113
SWIDTH 870 0
DWIDTH 29 0
BBX 29 17 0 0
BITMAP
07FF8000
04008000
04008000
04008000
04008000
04008000
0400FF00
080080E0
08008010
08008010
08008010
08008008
08008010
08008010
10008010
10008020
E000FFC0
ENDCHAR
STARTCHAR 045A
ENCODING 1114
SWIDTH 900 0
DWIDTH 30 0
BBX 26 17 4 0
BITMAP
80040000
80040000
80040000
80040000
80040000
80040000
80040000
FFFFFC00
80040300
80040080
80040040
80040040
80040040
80040040
80040080
80040100
8007FE00
ENDCHAR
STARTCHAR 045B
ENCODING 1115
SWIDTH 660 0
DWIDTH 22 0
BBX 19 25 0 0
BITMAP
080000
080000
080000
080000
FFF800
080000
080000
080000
08FF00
0B0080
0C0040
0C0040
080040
080020
080020
080020
080020
080020
080020
080020
080020
080020
080020
080020
080020
ENDCHAR
STARTCHAR 045C
ENCODING 1116
SWIDTH 540 0
DWIDTH 18 0
BBX 13 24 4 0
BITMAP
0080
0100
0600
0800
0000
0000
0000
8018
8010
8020
8040
8080
8100
8200
8400
FC00
8200
8100
8080
8040
8040
8020
8010
8008
ENDCHAR
STARTCHAR 045D
ENCODING 1117
SWIDTH 660 0
DWIDTH 22 0
BBX 15 24 4 0
BITMAP
1800
0400
0200
0100
0000
0000
0000
8006
800A
800A
8012
8022
8042
8082
8102
8102
8202
8402
8802
9002
A002
A002
C002
8002
ENDCHAR
STARTCHAR 045E
ENCODING 1118
SWIDTH 510 0
DWIDTH 17 0
BBX 17 31 0 -7
BITMAP
080800
081000
041000
03E000
000000
000000
000000
400080
400100
200100
200200
200200
100400
100400
080400
080800
040800
041000
021000
022000
012000
014000
014000
008000
008000
010000
010000
010000
020000
840000
480000
ENDCHAR
STARTCHAR 045F
ENCODING 1119
SWIDTH 600 0
DWIDTH 20 0
BBX 13 21 4 -4
BITMAP
8008
8008
8008
8008
8008
8008
8008
8008
8008
8008
8008
8008
8008
8008
8008
8008
FFF8
0200
0200
0200
0200
ENDCHAR
STARTCHAR 0462
ENCODING 1122
SWIDTH 780 0
DWIDTH 26 0
BBX 23 25 1 0
BITMAP
020000
020000
020000
020000
020000
FFFE00
020000
020000
020000
020000
03FE00
0200F0
020008
020004
020002
020002
020002
020002
020002
020002
020002
020004
020004
020018
03FFE0
ENDCHAR
STARTCHAR 0463
ENCODING 1123
SWIDTH 540 0
DWIDTH 18 0
BBX 17 24 0 1
BITMAP
080000
080000
080000
080000
080000
080000
FFF000
080000
080000
080000
080000
080000
080000
07F800
080600
080180
080080
080080
080080
080080
080080
080080
080100
07FE00
ENDCHAR
STARTCHAR 046A
ENCODING 1130
SWIDTH 840 0
DWIDTH 28 0
BBX 26 23 1 0
BITMAP
3FFFFF00
10000200
08000400
04000800
02001000
01002000
00804000
00408000
00210000
00120000
000C0000
007FC000
01843000
06040800
08040400
08040200
10040200
20040100
20040100
40040080
40040080
80040040
80040040
ENDCHAR
STARTCHAR 046B
ENCODING 1131
SWIDTH 630 0
DWIDTH 21 0
BBX 19 17 1 0
BITMAP
3FFF80
200100
100200
080200
040400
020800
011000
00A000
03F800
0C4600
104100
204100
204080
404080
404040
804040
804020
ENDCHAR
STARTCHAR 0472
ENCODING 1138
SWIDTH 840 0
DWIDTH 28 0
BBX 24 23 2 0
BITMAP
01FF80
020060
0C0010
100008
200004
200002
400002
400001
800001
800001
800001
FFFFFF
800001
800001
800001
400001
400002
200002
200004
100008
0C0010
030040
00FF80
ENDCHAR
STARTCHAR 0473
ENCODING 1139
SWIDTH 630 0
DWIDTH 21 0
BBX 17 17 2 0
BITMAP
07F000
180C00
200200
400100
400100
800080
800080
800080
FFFF80
800080
800080
800080
400100
400100
200200
180400
07F800
ENDCHAR
STARTCHAR 0474
ENCODING 1140
SWIDTH 720 0
DWIDTH 24 0
BBX 22 23 1 1
BITMAP
80001C
800020
400040
400080
200080
200080
300100
100100
100100
080200
080200
040400
040400
040400
020800
020800
010800
011000
011000
009000
00A000
006000
004000
ENDCHAR
STARTCHAR 0475
ENCODING 1141
SWIDTH 510 0
DWIDTH 17 0
BBX 16 17 1 0
BITMAP
8003
8004
4008
4008
4008
2010
2010
1010
1020
0820
0840
0440
0440
0480
0280
0300
0100
ENDCHAR
STARTCHAR 048A
ENCODING 1162
SWIDTH 840 0
DWIDTH 28 0
BBX 21 34 5 -6
BITMAP
080000
080800
041000
03E000
000000
000000
800040
8000C0
800140
800240
800240
800440
800840
801040
802040
802040
804040
808040
810040
810040
820040
840040
880040
900040
900040
A00040
C00040
800040
800078
000008
000008
000010
000010
000010
ENDCHAR
STARTCHAR 048B
ENCODING 1163
SWIDTH 660 0
DWIDTH 22 0
BBX 17 28 4 -4
BITMAP
101000
102000
082000
07C000
000000
000000
000000
800600
800A00
800A00
801200
802200
804200
808200
810200
810200
820200
840200
880200
900200
A00200
A00200
C00200
800380
000080
000080
000100
000100
ENDCHAR
STARTCHAR 048C
ENCODING 1164
SWIDTH 720 0
DWIDTH 24 0
BBX 21 25 1 0
BITMAP
080000
080000
080000
080000
080000
FFF800
080000
080000
080000
080000
0FF800
0803C0
080030
080010
080008
080008
080008
080008
080008
080008
080008
080008
080010
080020
0FFFC0
ENDCHAR
STARTCHAR 048D
ENCODING 1165
SWIDTH 540 0
DWIDTH 18 0
BBX 17 17 1 0
BITMAP
080000
080000
FFE000
080000
080000
080000
0FF000
080E00
080100
080100
080100
080080
080100
080100
080100
080200
0FFC00
ENDCHAR
STARTCHAR 048E
ENCODING 1166
SWIDTH 720 0
DWIDTH 24 0
BBX 17 23 5 0
BITMAP
FFF000
800C00
800200
800100
800100
800100
800080
810080
810080
808100
804100
802100
802200
801C00
FFE800
800400
800200
800200
800100
800000
800000
800000
800000
ENDCHAR
STARTCHAR 048F
ENCODING 1167
SWIDTH 690 0
DWIDTH 23 0
BBX 17 23 4 -6
BITMAP
87F000
980C00
A00200
C00200
800100
800100
800100
800080
800080
800080
800100
800100
C02100
C01200
A00C00
900C00
8FE400
800200
800100
800000
800000
800000
800000
ENDCHAR
STARTCHAR 0490
ENCODING 1168
SWIDTH 540 0
DWIDTH 18 0
BBX 13 28 5 0
BITMAP
0008
0008
0008
0008
0008
FFF0
8000
8000
8000
8000
8000
8000
8000
8000
8000
8000
8000
8000
8000
8000
8000
8000
8000
8000
8000
8000
8000
8000
ENDCHAR
STARTCHAR 0491
ENCODING 1169
SWIDTH 390 0
DWIDTH 13 0
BBX 10 21 4 0
BITMAP
0040
0040
0040
0040
FF80
8000
8000
8000
8000
8000
8000
8000
8000
8000
8000
8000
8000
8000
8000
8000
8000
ENDCHAR
STARTCHAR 0492
ENCODING 1170
SWIDTH 570 0
DWIDTH 19 0
BBX 17 23 2 0
BITMAP
1FFF80
100000
100000
100000
100000
100000
100000
100000
100000
100000
100000
100000
FFFC00
100000
100000
100000
100000
100000
100000
100000
100000
100000
100000
ENDCHAR
STARTCHAR 0493
ENCODING 1171
SWIDTH 450 0
DWIDTH 15 0
BBX 13 17 2 0
BITMAP
3FF8
2000
2000
2000
2000
2000
2000
2000
2000
FFE0
2000
2000
2000
2000
2000
2000
2000
ENDCHAR
STARTCHAR 0494
ENCODING 1172
SWIDTH 690 0
DWIDTH 23 0
BBX 16 28 5 -5
BITMAP
FFFC
8000
8000
8000
8000
8000
8000
8000
8000
8000
9FF0
E008
8004
8002
8002
8001
8001
8001
8001
8001
8001
8001
8002
0002
0004
0008
0030
03C0
ENDCHAR
STARTCHAR 0495
ENCODING 1173
SWIDTH 570 0
DWIDTH 19 0
BBX 14 24 4 -7
BITMAP
FFC0
8000
8000
8000
8000
8000
8000
8000
9FC0
E020
8010
8008
8008
8004
8004
8004
8004
0004
0008
0008
0010
0010
0060
0780
ENDCHAR
STARTCHAR 0496
ENCODING 1174
SWIDTH 1020 0
DWIDTH 34 0
BBX 33 29 1 -6
BITMAP
4001000800
2001001000
1001001000
1001002000
0801004000
0401004000
0401008000
0201010000
0101010000
0101020000
0081040000
00FFFC0000
0081020000
0101020000
0201010000
0401008000
0401004000
0801004000
1001002000
2001001000
2001000800
4001000800
8001000780
0000000080
0000000080
0000000080
0000000080
0000000080
0000000080
ENDCHAR
STARTCHAR 0497
ENCODING 1175
SWIDTH 810 0
DWIDTH 27 0
BBX 26 21 1 -4
BITMAP
40100200
40100400
20100400
10100800
08101000
08102000
04102000
02104000
03FFC000
04104000
04102000
08101000
10100800
20100800
20100400
40100200
801001C0
00000040
00000040
00000040
00000040
ENDCHAR
STARTCHAR 0498
ENCODING 1176
SWIDTH 600 0
DWIDTH 20 0
BBX 16 28 2 -5
BITMAP
1FF0
6008
0004
0002
0002
0002
0002
0002
0004
0008
1FE0
0018
0004
0002
0001
0001
0001
0001
0001
0002
8004
6008
1FF0
0100
0100
0100
0100
0100
ENDCHAR
STARTCHAR 0499
ENCODING 1177
SWIDTH 510 0
DWIDTH 17 0
BBX 14 21 1 -4
BITMAP
1FE0
6010
0008
0008
0008
0008
0010
00E0
0760
0018
0008
0004
0004
0008
8008
4010
3FE0
0200
0200
0200
0200
ENDCHAR
STARTCHAR 049A
ENCODING 1178
SWIDTH 720 0
DWIDTH 24 0
BBX 19 29 5 -6
BITMAP
800100
800200
800400
800800
801000
802000
802000
804000
808000
810000
820000
FE0000
810000
808000
804000
802000
802000
801000
800800
800400
800200
800100
8000E0
000020
000020
000020
000020
000020
000020
ENDCHAR
STARTCHAR 049B
ENCODING 1179
SWIDTH 540 0
DWIDTH 18 0
BBX 16 21 4 -4
BITMAP
8018
8010
8020
8040
8080
8100
8200
8400
FC00
8200
8100
8080
8040
8040
8020
8010
800F
0001
0001
0001
0001
ENDCHAR
STARTCHAR 049C
ENCODING 1180
SWIDTH 690 0
DWIDTH 23 0
BBX 17 23 5 0
BITMAP
800100
800200
800200
800400
800800
881000
881000
882000
884000
888000
890000
FF0000
888000
884000
882000
882000
881000
800800
800400
800200
800200
800100
800080
ENDCHAR
STARTCHAR 049D
ENCODING 1181
SWIDTH 540 0
DWIDTH 18 0
BBX 14 17 4 0
BITMAP
8008
8010
8020
8040
9040
9080
9100
9200
FE00
9100
9080
9080
8040
8020
8010
8008
8004
ENDCHAR
STARTCHAR 049E
ENCODING 1182
SWIDTH 690 0
DWIDTH 23 0
BBX 21 23 1 0
BITMAP
080010
080020
080020
FFF040
080080
080100
080200
080200
080400
080800
081000
0FF000
080800
080400
080400
080200
080100
080080
080040
080020
080010
080010
080008
ENDCHAR
STARTCHAR 049F
ENCODING 1183
SWIDTH 540 0
DWIDTH 18 0
BBX 16 25 1 0
BITMAP
1000
1000
1000
1000
FF80
1000
1000
1000
1003
1002
1004
1008
1010
1020
1040
1080
1F80
1040
1020
1010
1008
100C
1004
1002
1001
ENDCHAR
STARTCHAR 04A0
ENCODING 1184
SWIDTH 780 0
DWIDTH 26 0
BBX 24 23 1 0
BITMAP
FF0002
010004
010008
010010
010010
010020
010040
010080
010100
010100
010200
01FE00
010200
010100
010080
010040
010020
010010
010010
010008
010004
010002
010001
ENDCHAR
STARTCHAR 04A1
ENCODING 1185
SWIDTH 570 0
DWIDTH 19 0
BBX 19 17 0 0
BITMAP
FC0040
040080
040100
040200
040200
040400
040800
041000
03F000
040800
040800
040400
040200
040100
040080
040040
040020
ENDCHAR
STARTCHAR 04A2
ENCODING 1186
SWIDTH 840 0
DWIDTH 28 0
BBX 22 29 5 -6
BITMAP
800040
800040
800040
800040
800040
800040
800040
800040
800040
800040
800040
FFFFC0
800040
800040
800040
800040
800040
800040
800040
800040
800040
800040
80007C
000004
000004
000004
000004
000004
000004
ENDCHAR
STARTCHAR 04A3
ENCODING 1187
SWIDTH 660 0
DWIDTH 22 0
BBX 17 21 4 -4
BITMAP
800400
800400
800400
800400
800400
800400
800400
800400
FFFC00
800400
800400
800400
800400
800400
800400
800400
800380
000080
000080
000080
000080
ENDCHAR
STARTCHAR 04A4
ENCODING 1188
SWIDTH 1080 0
DWIDTH 36 0
BBX 31 23 5 0
BITMAP
80007FFE
80004000
80004000
80004000
80004000
80004000
80004000
80004000
80004000
80004000
80004000
FFFFC000
80004000
80004000
80004000
80004000
80004000
80004000
80004000
80004000
80004000
80004000
80004000
ENDCHAR
STARTCHAR 04A5
ENCODING 1189
SWIDTH 840 0
DWIDTH 28 0
BBX 24 17 4 0
BITMAP
8007FF
800400
800400
800400
800400
800400
800400
800400
FFFC00
800400
800400
800400
800400
800400
800400
800400
800400
ENDCHAR
STARTCHAR 04A6
ENCODING 1190
SWIDTH 1200 0
DWIDTH 40 0
BBX 34 28 5 -5
BITMAP
FFFFC00000
8000400000
8000400000
8000400000
8000400000
8000400000
8000400000
8000400000
8000400000
8000400000
800047F800
8000580600
8000200100
8000400080
8000400080
8000400040
8000400040
8000400040
8000400040
8000400040
8000400040
8000400080
8000400080
0000000100
0000000100
0000000200
0000000C00
000000F000
ENDCHAR
STARTCHAR 04A7
ENCODING 1191
SWIDTH 930 0
DWIDTH 31 0
BBX 27 24 4 -7
BITMAP
FFFC0000
80040000
80040000
80040000
80040000
80040000
80040000
80040000
8004FE00
80060100
80040080
80040040
80040040
80040020
80040020
80040020
80040020
00000020
00000040
00000040
00000080
00000080
00000300
00007C00
ENDCHAR
STARTCHAR 04A8
ENCODING 1192
SWIDTH 960 0
DWIDTH 32 0
BBX 27 23 2 0
BITMAP
0203FC00
04040300
10080080
10100080
20200040
40200040
40200020
40400020
80400020
80400020
80400020
80400020
80400020
80200040
40200040
40100040
40100080
20080100
10040200
08020400
04010800
0300F000
00FF9FE0
ENDCHAR
STARTCHAR 04A9
ENCODING 1193
SWIDTH 750 0
DWIDTH 25 0
BBX 21 17 2 0
BITMAP
081F80
106060
208010
408010
810010
810008
810008
810008
810008
810010
810010
808010
408020
204040
102080
081900
07FFF8
ENDCHAR
STARTCHAR 04AA
ENCODING 1194
SWIDTH 690 0
DWIDTH 23 0
BBX 20 28 2 -6
BITMAP
01FF80
060060
080010
100000
200000
200000
400000
400000
800000
800000
800000
800000
800000
800000
800000
400000
400000
200000
200000
100000
0C0010
030060
00FF80
001000
001000
001000
001000
001000
ENDCHAR
STARTCHAR 04AB
ENCODING 1195
SWIDTH 540 0
DWIDTH 18 0
BBX 15 21 2 -4
BITMAP
07F0
180C
2002
4000
4000
8000
8000
8000
8000
8000
8000
8000
4000
4000
2002
180C
07F0
0080
0080
0080
0080
ENDCHAR
STARTCHAR 04AC
ENCODING 1196
SWIDTH 540 0
DWIDTH 18 0
BBX 17 29 1 -6
BITMAP
FFFF80
008000
008000
008000
008000
008000
008000
008000
008000
008000
008000
008000
008000
008000
008000
008000
008000
008000
008000
008000
008000
008000
00F800
000800
000800
000800
000800
000800
000800
ENDCHAR
STARTCHAR 04AD
ENCODING 1197
SWIDTH 420 0
DWIDTH 14 0
BBX 14 21 0 -4
BITMAP
FFFC
0100
0100
0100
0100
0100
0100
0100
0100
0100
0100
0100
0100
0100
0100
0100
01C0
0040
0040
0040
0040
ENDCHAR
STARTCHAR 04AE
ENCODING 1198
SWIDTH 600 0
DWIDTH 20 0
BBX 19 23 1 0
BITMAP
800020
800040
400080
200080
200100
100100
100200
080400
040400
040800
021000
011000
012000
00A000
004000
004000
004000
004000
004000
004000
004000
004000
004000
ENDCHAR
STARTCHAR 04AF
ENCODING 1199
SWIDTH 510 0
DWIDTH 17 0
BBX 16 23 1 -6
BITMAP
8001
8002
4002
4004
4004
2008
2008
1008
1010
0810
0820
0420
0440
0240
0280
0380
0100
0100
0100
0100
0100
0100
0100
ENDCHAR
STARTCHAR 04B0
ENCODING 1200
SWIDTH 600 0
DWIDTH 20 0
BBX 19 23 1 0
BITMAP
800020
800040
400080
200080
200100
100100
100200
080400
040400
040800
021000
011000
012000
00A000
004000
1FFF00
004000
004000
004000
004000
004000
004000
004000
ENDCHAR
STARTCHAR 04B1
ENCODING 1201
SWIDTH 510 0
DWIDTH 17 0
BBX 16 23 1 -6
BITMAP
8001
8002
4002
4004
4004
2008
2008
1008
1010
0810
0820
0420
0440
0240
0280
0380
3FFC
0100
0100
0100
0100
0100
0100
ENDCHAR
STARTCHAR 04B2
ENCODING 1202
SWIDTH 660 0
DWIDTH 22 0
BBX 21 29 1 -6
BITMAP
400080
200100
100100
100200
080400
040400
040800
021000
012000
00A000
00C000
00C000
012000
012000
021000
040800
040400
080400
100200
200100
200080
400080
800078
000008
000008
000008
000008
000008
000008
ENDCHAR
STARTCHAR 04B3
ENCODING 1203
SWIDTH 480 0
DWIDTH 16 0
BBX 17 21 1 -4
BITMAP
400400
400800
201000
102000
084000
044000
048000
030000
030000
028000
044000
084000
102000
201000
200800
400800
800780
000080
000080
000080
000080
ENDCHAR
STARTCHAR 04B4
ENCODING 1204
SWIDTH 930 0
DWIDTH 31 0
BBX 30 29 1 -6
BITMAP
FFFF0040
00800040
00800040
00800040
00800040
00800040
00800040
00800040
00800040
00800040
00800040
00800040
00800040
00800040
00800040
00800040
00800040
00800040
00800040
00800040
00800040
00800040
00FFFFFC
00000004
00000004
00000004
00000004
00000004
00000004
ENDCHAR
STARTCHAR 04B5
ENCODING 1205
SWIDTH 720 0
DWIDTH 24 0
BBX 23 21 0 -4
BITMAP
FFFC10
010010
010010
010010
010010
010010
010010
010010
010010
010010
010010
010010
010010
010010
010010
010010
01FFFE
000002
000002
000002
000002
ENDCHAR
STARTCHAR 04B6
ENCODING 1206
SWIDTH 720 0
DWIDTH 24 0
BBX 21 28 2 -6
BITMAP
800080
800080
800080
800080
800080
800080
800080
800080
800080
800080
400080
400080
200180
1C0E80
03F080
000080
000080
000080
000080
000080
000080
000080
000078
000008
000008
000008
000008
000008
ENDCHAR
STARTCHAR 04B7
ENCODING 1207
SWIDTH 570 0
DWIDTH 19 0
BBX 16 21 2 -4
BITMAP
8008
8008
8008
8008
8008
8008
8008
8008
4008
2038
1F48
0008
0008
0008
0008
0008
0007
0001
0001
0001
0001
ENDCHAR
STARTCHAR 04B8
ENCODING 1208
SWIDTH 720 0
DWIDTH 24 0
BBX 17 23 2 0
BITMAP
800080
800080
800080
800080
800080
800080
800080
800080
808080
808080
408080
408080
208180
1C8E80
03F080
008080
008080
008080
008080
008080
000080
000080
000080
ENDCHAR
STARTCHAR 04B9
ENCODING 1209
SWIDTH 570 0
DWIDTH 19 0
BBX 13 17 2 0
BITMAP
8008
8008
8008
8008
8008
8008
8208
8208
4208
2238
1F48
0208
0208
0208
0208
0008
0008
ENDCHAR
STARTCHAR 04BA
ENCODING 1210
SWIDTH 720 0
DWIDTH 24 0
BBX 17 23 5 0
BITMAP
800000
800000
800000
800000
800000
800000
800000
800000
87E000
B81C00
C00200
800100
800100
800080
800080
800080
800080
800080
800080
800080
800080
800080
800080
ENDCHAR
STARTCHAR 04BB
ENCODING 1211
SWIDTH 660 0
DWIDTH 22 0
BBX 15 25 4 0
BITMAP
8000
8000
8000
8000
8000
8000
8000
8000
8FF0
B008
C004
C004
8004
8002
8002
8002
8002
8002
8002
8002
8002
8002
8002
8002
8002
ENDCHAR
STARTCHAR 04BC
ENCODING 1212
SWIDTH 930 0
DWIDTH 31 0
BBX 29 23 1 0
BITMAP
0007FC00
00180300
00200080
00400040
40800020
81000020
81000010
82000010
82000008
82000008
42000008
3FFFFFF8
02000000
02000000
02000000
02000000
01000000
01000000
00800000
00400000
002000C0
00180300
0007FC00
ENDCHAR
STARTCHAR 04BD
ENCODING 1213
SWIDTH 690 0
DWIDTH 23 0
BBX 21 17 1 0
BITMAP
007F00
0180C0
020020
840010
840010
880008
880008
480008
3FFFF0
080000
080000
040000
040000
020000
010010
008060
007F80
ENDCHAR
STARTCHAR 04BE
ENCODING 1214
SWIDTH 930 0
DWIDTH 31 0
BBX 29 29 1 -6
BITMAP
0007FC00
00180300
00200080
00400040
40800020
81000020
81000010
82000010
82000008
82000008
42000008
3FFFFFF8
02000000
02000000
02000000
02000000
01000000
01000000
00800000
00400000
002000C0
00180300
0007FC00
00004000
00004000
00004000
00004000
00004000
00004000
ENDCHAR
STARTCHAR 04BF
ENCODING 1215
SWIDTH 690 0
DWIDTH 23 0
BBX 21 21 1 -4
BITMAP
007F00
0180C0
020020
840010
840010
880008
880008
480008
3FFFF0
080000
080000
040000
040000
020000
010010
008060
007F80
000800
000800
000800
000800
ENDCHAR
STARTCHAR 04C0
ENCODING 1216
SWIDTH 270 0
DWIDTH 9 0
BBX 1 23 4 0
BITMAP
80
80
80
80
80
80
80
80
80
80
80
80
80
80
80
80
80
80
80
80
80
80
80
ENDCHAR
STARTCHAR 04C1
ENCODING 1217
SWIDTH 960 0
DWIDTH 32 0
BBX 30 29 1 0
BITMAP
00201000
00101000
00182000
0007C000
00000000
00000000
40010008
20010010
10010010
10010020
08010040
04010040
04010080
02010100
01010100
01010200
00810400
00FFFC00
00810200
01010200
02010100
04010080
04010040
08010040
10010020
20010010
20010008
40010008
80010004
ENDCHAR
STARTCHAR 04C2
ENCODING 1218
SWIDTH 750 0
DWIDTH 25 0
BBX 24 23 1 1
BITMAP
008100
004200
003C00
000000
000000
000000
401002
401004
201004
101008
081010
081020
041020
021040
03FFC0
041040
041020
081010
101008
201008
201004
401002
801001
ENDCHAR
STARTCHAR 04C3
ENCODING 1219
SWIDTH 660 0
DWIDTH 22 0
BBX 16 30 5 -7
BITMAP
8001
8002
8004
8008
8010
8020
8020
8040
8080
8100
8200
FE00
8180
8040
8020
8010
8010
8008
8004
8004
8002
8002
8001
0001
0001
0001
0001
0001
0042
0024
ENDCHAR
STARTCHAR 04C4
ENCODING 1220
SWIDTH 540 0
DWIDTH 18 0
BBX 13 24 4 -7
BITMAP
8018
8010
8020
8040
8080
8100
8200
8400
FC00
8300
8080
8040
8040
8020
8010
8010
8008
0008
0008
0008
0008
0008
0210
0160
ENDCHAR
STARTCHAR 04C6
ENCODING 1222
SWIDTH 600 0
DWIDTH 20 0
BBX 19 21 0 -4
BITMAP
07FF80
040080
040080
040080
040080
040080
040080
080080
080080
080080
080080
080080
080080
080080
100080
100080
E000E0
000020
000020
000040
000040
ENDCHAR
STARTCHAR 04C7
ENCODING 1223
SWIDTH 810 0
DWIDTH 27 0
BBX 18 30 5 -7
BITMAP
800040
800040
800040
800040
800040
800040
800040
800040
800040
800040
800040
FFFFC0
800040
800040
800040
800040
800040
800040
800040
800040
800040
800040
800040
000040
000040
000040
000040
000080
003180
000C00
ENDCHAR
STARTCHAR 04C8
ENCODING 1224
SWIDTH 660 0
DWIDTH 22 0
BBX 15 24 4 -7
BITMAP
8002
8002
8002
8002
8002
8002
8002
8002
FFFE
8002
8002
8002
8002
8002
8002
8002
8002
0002
0002
0002
0004
0004
0108
00B0
ENDCHAR
STARTCHAR 04C9
ENCODING 1225
SWIDTH 810 0
DWIDTH 27 0
BBX 21 28 5 -6
BITMAP
800040
800040
800040
800040
800040
800040
800040
800040
800040
800040
800040
FFFFC0
800040
800040
800040
800040
800040
800040
800040
800040
800040
800040
800078
000008
000010
000010
000010
000010
ENDCHAR
STARTCHAR 04CA
ENCODING 1226
SWIDTH 660 0
DWIDTH 22 0
BBX 17 21 4 -4
BITMAP
800400
800400
800400
800400
800400
800400
800400
800400
FFFC00
800400
800400
800400
800400
800400
800400
800400
800380
000080
000100
000100
000100
ENDCHAR
STARTCHAR 04CB
ENCODING 1227
SWIDTH 720 0
DWIDTH 24 0
BBX 17 29 2 -6
BITMAP
800080
800080
800080
800080
800080
800080
800080
800080
800080
800080
400080
400080
200180
1C0E80
03F080
000080
000080
000080
000080
000080
000080
000080
000780
000400
000400
000400
000400
000400
000400
ENDCHAR
STARTCHAR 04CC
ENCODING 1228
SWIDTH 570 0
DWIDTH 19 0
BBX 13 21 2 -4
BITMAP
8008
8008
8008
8008
8008
8008
8008
8008
8008
6038
1F48
0008
0008
0008
0008
0008
0038
0040
0040
0040
0040
ENDCHAR
STARTCHAR 04CD
ENCODING 1229
SWIDTH 960 0
DWIDTH 32 0
BBX 26 29 5 -6
BITMAP
80000200
80000600
C0000A00
C0000A00
A0001200
A0002200
90002200
88004200
88004200
84008200
84008200
82010200
82020200
81020200
80840200
80840200
80480200
80480200
80300200
80000200
80000200
80000200
800003C0
00000080
00000080
00000080
00000100
00000100
00000100
ENDCHAR
STARTCHAR 04CE
ENCODING 1230
SWIDTH 780 0
DWIDTH 26 0
BBX 21 21 4 -4
BITMAP
800040
C000C0
C00140
A00140
A00240
900240
880440
880840
840840
841040
821040
812040
814040
80C040
800040
800040
800078
000008
000010
000010
000010
ENDCHAR
STARTCHAR 04CF
ENCODING 1231
SWIDTH 240 0
DWIDTH 8 0
BBX 1 25 4 0
BITMAP
80
80
80
80
80
80
80
80
80
80
80
80
80
80
80
80
80
80
80
80
80
80
80
80
80
ENDCHAR
STARTCHAR 04D0
ENCODING 1232
SWIDTH 690 0
DWIDTH 23 0
BBX 22 29 1 0
BITMAP
020100
020200
010200
00FC00
000000
000000
003000
003000
004800
004800
008400
008400
010400
010200
020200
020100
040100
040080
080080
080040
100040
1FFFE0
100020
200010
200010
400010
400008
800008
800004
ENDCHAR
STARTCHAR 04D1
ENCODING 1233
SWIDTH 540 0
DWIDTH 18 0
BBX 14 23 2 1
BITMAP
1020
0820
07C0
0000
0000
0000
1FE0
2010
4008
0008
0008
0008
0004
0004
3FFC
4004
8004
8004
8004
800C
8014
6024
1F84
ENDCHAR
STARTCHAR 04D2
ENCODING 1234
SWIDTH 690 0
DWIDTH 23 0
BBX 22 28 1 0
BITMAP
018400
008400
000000
000000
000000
003000
003000
004800
004800
008400
008400
010400
010200
020200
020100
040100
040080
080080
080040
100040
1FFFE0
100020
200010
200010
400010
400008
800008
800004
ENDCHAR
STARTCHAR 04D3
ENCODING 1235
SWIDTH 540 0
DWIDTH 18 0
BBX 14 23 2 0
BITMAP
0860
0800
0000
0000
0000
0000
1FE0
2010
4008
0008
0008
0008
0004
0004
3FFC
4004
8004
8004
8004
800C
8014
6024
1F84
ENDCHAR
STARTCHAR 04D4
ENCODING 1236
SWIDTH 960 0
DWIDTH 32 0
BBX 30 23 1 0
BITMAP
0003FFF8
00050000
00090000
00090000
00110000
00210000
00210000
00410000
00810000
00810000
01010000
0101FFF0
02010000
04010000
04010000
0FFF0000
10010000
10010000
20010000
40010000
40010000
80010000
8001FFFC
ENDCHAR
STARTCHAR 04D5
ENCODING 1237
SWIDTH 960 0
DWIDTH 32 0
BBX 29 17 2 0
BITMAP
1FE07F00
201080C0
40090020
000A0010
000C0010
00040010
00040008
00040008
3FFFFFF0
40040000
80040000
80040000
800E0000
800A0000
80110010
60208060
1FC07F80
ENDCHAR
STARTCHAR 04D6
ENCODING 1238
SWIDTH 630 0
DWIDTH 21 0
BBX 15 29 5 0
BITMAP
2010
2010
1020
0FC0
0000
0000
FFFC
8000
8000
8000
8000
8000
8000
8000
8000
8000
8000
FFF8
8000
8000
8000
8000
8000
8000
8000
8000
8000
8000
FFFE
ENDCHAR
STARTCHAR 04D7
ENCODING 1239
SWIDTH 600 0
DWIDTH 20 0
BBX 16 23 2 1
BITMAP
0810
0420
03C0
0000
0000
0000
07F0
1808
2004
4002
4002
8001
8001
8001
FFFE
8000
8000
8000
4000
4000
2002
1804
07F8
ENDCHAR
STARTCHAR 04D8
ENCODING 1240
SWIDTH 810 0
DWIDTH 27 0
BBX 23 23 2 0
BITMAP
03FF00
0C00C0
100020
000010
000008
000004
000004
000002
000002
000002
000002
FFFFFE
800002
800002
800002
800004
800004
400004
200008
100010
080020
0600C0
01FF00
ENDCHAR
STARTCHAR 04D9
ENCODING 1241
SWIDTH 570 0
DWIDTH 19 0
BBX 16 17 2 0
BITMAP
1FE0
2018
4004
0004
0002
0002
0001
0001
FFFF
8001
8001
8002
8002
4004
2004
1018
0FE0
ENDCHAR
STARTCHAR 04DA
ENCODING 1242
SWIDTH 810 0
DWIDTH 27 0
BBX 23 28 2 0
BITMAP
00C200
000200
000000
000000
000000
03FF00
0C00C0
100020
000010
000008
000004
000004
000002
000002
000002
000002
FFFFFE
800002
800002
800002
800004
800004
400004
200008
100010
080020
0600C0
01FF00
ENDCHAR
STARTCHAR 04DB
ENCODING 1243
SWIDTH 570 0
DWIDTH 19 0
BBX 16 23 2 0
BITMAP
0C20
0420
0000
0000
0000
0000
1FE0
2018
4004
0004
0002
0002
0001
0001
FFFF
8001
8001
8002
8002
4004
2004
1018
0FE0
ENDCHAR
STARTCHAR 04DC
ENCODING 1244
SWIDTH 960 0
DWIDTH 32 0
BBX 30 28 1 0
BITMAP
00086000
00080000
00000000
00000000
00000000
40010008
20010010
10010010
10010020
08010040
04010040
04010080
02010100
01010100
01010200
00810400
00FFFC00
00810200
01010200
02010100
04010080
04010040
08010040
10010020
20010010
20010008
40010008
80010004
ENDCHAR
STARTCHAR 04DD
ENCODING 1245
SWIDTH 750 0
DWIDTH 25 0
BBX 24 23 1 0
BITMAP
00C300
004200
000000
000000
000000
000000
401002
401004
201004
101008
081010
081020
041020
021040
03FFC0
041040
041020
081010
101008
201008
201004
401002
801001
ENDCHAR
STARTCHAR 04DE
ENCODING 1246
SWIDTH 600 0
DWIDTH 20 0
BBX 16 28 2 0
BITMAP
0430
0410
0000
0000
0000
1FF0
6008
0004
0002
0002
0002
0002
0002
0004
0008
1FE0
0018
0004
0002
0001
0001
0001
0001
0001
0002
8004
6008
1FF0
ENDCHAR
STARTCHAR 04DF
ENCODING 1247
SWIDTH 510 0
DWIDTH 17 0
BBX 14 23 1 0
BITMAP
1860
0840
0000
0000
0000
0000
1FE0
6010
0008
0008
0008
0008
0010
00E0
0760
0018
0008
0004
0004
0008
8008
4010
3FE0
ENDCHAR
STARTCHAR 04E0
ENCODING 1248
SWIDTH 570 0
DWIDTH 19 0
BBX 17 23 1 0
BITMAP
7FFF00
000200
000400
000800
001000
001000
002000
004000
008000
010000
01F000
000C00
000200
000100
000100
000080
000080
000080
000080
800100
400200
300400
0FF000
ENDCHAR
STARTCHAR 04E1
ENCODING 1249
SWIDTH 480 0
DWIDTH 16 0
BBX 16 24 -1 -7
BITMAP
7FFE
0004
0008
0008
0010
0020
0040
0040
0080
0100
0100
0078
0004
0002
0002
0001
0001
0001
0001
0002
8002
6004
1818
05A0
ENDCHAR
STARTCHAR 04E2
ENCODING 1250
SWIDTH 810 0
DWIDTH 27 0
BBX 18 27 5 0
BITMAP
07F800
000000
000000
000000
800040
8000C0
800140
800240
800240
800440
800840
801040
802040
802040
804040
808040
810040
810040
820040
840040
880040
900040
900040
A00040
C00040
800040
800040
ENDCHAR
STARTCHAR 04E3
ENCODING 1251
SWIDTH 660 0
DWIDTH 22 0
BBX 15 22 4 0
BITMAP
1FE0
0000
0000
0000
0000
8006
800A
800A
8012
8022
8042
8082
8102
8102
8202
8402
8802
9002
A002
A002
C002
8002
ENDCHAR
STARTCHAR 04E4
ENCODING 1252
SWIDTH 810 0
DWIDTH 27 0
BBX 18 28 5 0
BITMAP
061000
041000
000000
000000
000000
800040
8000C0
800140
800240
800240
800440
800840
801040
802040
802040
804040
808040
810040
810040
820040
840040
880040
900040
900040
A00040
C00040
800040
800040
ENDCHAR
STARTCHAR 04E5
ENCODING 1253
SWIDTH 660 0
DWIDTH 22 0
BBX 15 23 4 0
BITMAP
0860
0800
0000
0000
0000
0000
8006
800A
800A
8012
8022
8042
8082
8102
8102
8202
8402
8802
9002
A002
A002
C002
8002
ENDCHAR
STARTCHAR 04E6
ENCODING 1254
SWIDTH 840 0
DWIDTH 28 0
BBX 24 28 2 0
BITMAP
004300
004000
000000
000000
000000
01FF80
060060
080010
100008
200004
200002
400002
400001
800001
800001
800001
800001
800001
800001
800001
400001
400002
200002
200004
100008
0C0010
020060
01FF80
ENDCHAR
STARTCHAR 04E7
ENCODING 1255
SWIDTH 600 0
DWIDTH 20 0
BBX 17 23 2 0
BITMAP
063000
041000
000000
000000
000000
000000
07F000
180C00
200200
400200
400100
800100
800080
800080
800080
800080
800080
800100
400100
400200
200200
180C00
07F000
ENDCHAR
STARTCHAR 04E8
ENCODING 1256
SWIDTH 840 0
DWIDTH 28 0
BBX 24 23 2 0
BITMAP
01FF80
020060
0C0010
100008
200004
200002
400002
400001
800001
800001
800001
FFFFFF
800001
800001
800001
400001
400002
200002
200004
100008
0C0010
030040
00FF80
ENDCHAR
STARTCHAR 04E9
ENCODING 1257
SWIDTH 630 0
DWIDTH 21 0
BBX 17 17 2 0
BITMAP
07F000
180C00
200200
400100
400100
800080
800080
800080
FFFF80
800080
800080
800080
400100
400100
200200
180400
07F800
ENDCHAR
STARTCHAR 04EA
ENCODING 1258
SWIDTH 840 0
DWIDTH 28 0
BBX 24 28 2 0
BITMAP
004300
004000
000000
000000
000000
01FF80
020060
0C0010
100008
200004
200002
400002
400001
800001
800001
800001
FFFFFF
800001
800001
800001
400001
400002
200002
200004
100008
0C0010
030040
00FF80
ENDCHAR
STARTCHAR 04EB
ENCODING 1259
SWIDTH 630 0
DWIDTH 21 0
BBX 17 23 2 0
BITMAP
061000
001000
000000
000000
000000
000000
07F000
180C00
200200
400100
400100
800080
800080
800080
FFFF80
800080
800080
800080
400100
400100
200200
180400
07F800
ENDCHAR
STARTCHAR 04EC
ENCODING 1260
SWIDTH 690 0
DWIDTH 23 0
BBX 19 28 2 0
BITMAP
043000
040000
000000
000000
000000
1FF000
600C00
800200
000100
000080
000040
000040
000020
000020
000020
000020
07FFE0
000020
000020
000020
000040
000040
000040
000080
000100
800200
600C00
1FE000
ENDCHAR
STARTCHAR 04ED
ENCODING 1261
SWIDTH 540 0
DWIDTH 18 0
BBX 15 23 2 0
BITMAP
10C0
1000
0000
0000
0000
0000
3FC0
C020
0018
0008
0004
0004
0002
0002
0FFE
0002
0002
0004
0004
0008
0010
8020
7FC0
ENDCHAR
STARTCHAR 04EE
ENCODING 1262
SWIDTH 630 0
DWIDTH 21 0
BBX 20 27 1 0
BITMAP
03FC00
000000
000000
000000
800010
400020
400020
200040
200040
100080
100080
080100
080200
040200
040400
020400
020800
010800
009000
009000
006000
006000
004000
008000
008000
010000
3E0000
ENDCHAR
STARTCHAR 04EF
ENCODING 1263
SWIDTH 510 0
DWIDTH 17 0
BBX 17 29 0 -7
BITMAP
0FF000
000000
000000
000000
000000
400080
400100
200100
200200
200200
100400
100400
080400
080800
040800
041000
021000
022000
012000
014000
014000
008000
008000
010000
010000
010000
020000
840000
480000
ENDCHAR
STARTCHAR 04F0
ENCODING 1264
SWIDTH 630 0
DWIDTH 21 0
BBX 20 28 1 0
BITMAP
030800
000800
000000
000000
000000
800010
400020
400020
200040
200040
100080
100080
080100
080200
040200
040400
020400
020800
010800
009000
009000
006000
006000
004000
008000
008000
010000
3E0000
ENDCHAR
STARTCHAR 04F1
ENCODING 1265
SWIDTH 510 0
DWIDTH 17 0
BBX 17 30 0 -7
BITMAP
043000
040000
000000
000000
000000
000000
400080
400100
200100
200200
200200
100400
100400
080400
080800
040800
041000
021000
022000
012000
014000
014000
008000
008000
010000
010000
010000
020000
840000
480000
ENDCHAR
STARTCHAR 04F2
ENCODING 1266
SWIDTH 630 0
DWIDTH 21 0
BBX 20 29 1 0
BITMAP
002100
004200
008400
010800
000000
000000
800010
400020
400020
200040
200040
100080
100080
080100
080200
040200
040400
020400
020800
010800
009000
009000
006000
006000
004000
008000
008000
010000
3E0000
ENDCHAR
STARTCHAR 04F3
ENCODING 1267
SWIDTH 510 0
DWIDTH 17 0
BBX 17 31 0 -7
BITMAP
004600
008C00
011000
022000
000000
000000
000000
400080
400100
200100
200200
200200
100400
100400
080400
080800
040800
041000
021000
022000
012000
014000
014000
008000
008000
010000
010000
010000
020000
840000
480000
ENDCHAR
STARTCHAR 04F4
ENCODING 1268
SWIDTH 720 0
DWIDTH 24 0
BBX 17 28 2 0
BITMAP
061800
021000
000000
000000
000000
800080
800080
800080
800080
800080
800080
800080
800080
800080
800080
400080
400080
200180
1C0E80
03F080
000080
000080
000080
000080
000080
000080
000080
000080
ENDCHAR
STARTCHAR 04F5
ENCODING 1269
SWIDTH 570 0
DWIDTH 19 0
BBX 13 23 2 0
BITMAP
18C0
1040
0000
0000
0000
0000
8008
8008
8008
8008
8008
8008
8008
8008
4008
2038
1F48
0008
0008
0008
0008
0008
0008
ENDCHAR
STARTCHAR 04F6
ENCODING 1270
SWIDTH 540 0
DWIDTH 18 0
BBX 13 29 5 -6
BITMAP
FFF8
8000
8000
8000
8000
8000
8000
8000
8000
8000
8000
8000
8000
8000
8000
8000
8000
8000
8000
8000
8000
8000
F000
1000
1000
1000
1000
1000
1000
ENDCHAR
STARTCHAR 04F7
ENCODING 1271
SWIDTH 420 0
DWIDTH 14 0
BBX 11 21 4 -4
BITMAP
FFE0
8000
8000
8000
8000
8000
8000
8000
8000
8000
8000
8000
8000
8000
8000
8000
E000
2000
2000
2000
2000
ENDCHAR
STARTCHAR 04F8
ENCODING 1272
SWIDTH 930 0
DWIDTH 31 0
BBX 22 28 5 0
BITMAP
018400
008400
000000
000000
000000
800004
800004
800004
800004
800004
800004
800004
800004
FFC004
803804
800604
800104
800104
800104
800084
800084
800084
800084
800104
800104
800204
800404
FFF804
ENDCHAR
STARTCHAR 04F9
ENCODING 1273
SWIDTH 720 0
DWIDTH 24 0
BBX 17 23 4 0
BITMAP
061800
021000
000000
000000
000000
000000
800080
800080
800080
800080
800080
800080
FF0080
80E080
801080
801080
801080
800880
800880
801080
801080
802080
FFC080
ENDCHAR
STARTCHAR 04FA
ENCODING 1274
SWIDTH 570 0
DWIDTH 19 0
BBX 17 30 2 -7
BITMAP
1FFF80
100000
100000
100000
100000
100000
100000
100000
100000
100000
100000
100000
FFFC00
100000
100000
100000
100000
100000
100000
100000
100000
100000
1F0000
010000
010000
010000
010000
020000
C20000
340000
ENDCHAR
STARTCHAR 04FB
ENCODING 1275
SWIDTH 450 0
DWIDTH 15 0
BBX 13 24 1 -7
BITMAP
1FF8
1000
1000
1000
1000
1000
1000
1000
1000
7FF0
1000
1000
1000
1000
1000
1000
1E00
0200
0200
0200
0200
0200
8400
6800
ENDCHAR
STARTCHAR 04FC
ENCODING 1276
SWIDTH 600 0
DWIDTH 20 0
BBX 18 30 1 -7
BITMAP
400080
200100
100100
100200
080400
040400
040800
021000
012000
00A000
004000
00C000
00A000
011000
021000
040800
040400
080200
100200
200100
200080
400080
800040
000040
000040
000040
000040
000040
001080
000B00
ENDCHAR
STARTCHAR 04FD
ENCODING 1277
SWIDTH 480 0
DWIDTH 16 0
BBX 15 24 1 -7
BITMAP
4008
2008
2010
1020
0840
0440
0480
0300
0300
0480
0440
0840
1020
2010
2008
4008
8004
0004
0002
0002
0002
0004
0188
0070
ENDCHAR
STARTCHAR 04FE
ENCODING 1278
SWIDTH 630 0
DWIDTH 21 0
BBX 17 23 2 0
BITMAP
400080
400100
200200
100400
100400
080800
041000
021000
022000
014000
008000
3FFE00
014000
022000
041000
041000
080800
100400
100200
200200
400100
800080
800080
ENDCHAR
STARTCHAR 04FF
ENCODING 1279
SWIDTH 510 0
DWIDTH 17 0
BBX 14 17 2 0
BITMAP
8008
4010
2010
1020
1040
0880
0500
0300
3FF0
0500
0880
0840
1020
2020
4010
8008
8004
ENDCHAR
STARTCHAR 0510
ENCODING 1296
SWIDTH 600 0
DWIDTH 20 0
BBX 16 23 3 1
BITMAP
0FF8
1006
6000
4000
8000
8000
8000
4000
4000
2000
1FF0
1800
6000
8000
8000
8000
8000
8000
8000
8000
4001
1006
0FF8
ENDCHAR
STARTCHAR 0511
ENCODING 1297
SWIDTH 510 0
DWIDTH 17 0
BBX 14 17 2 0
BITMAP
1FF0
2008
4000
4000
4000
4000
2000
1C00
1B80
2000
4000
8000
8000
8000
4004
2008
1FF0
ENDCHAR
STARTCHAR 0512
ENCODING 1298
SWIDTH 750 0
DWIDTH 25 0
BBX 21 30 0 -7
BITMAP
03FFF8
020008
020008
020008
020008
020008
020008
020008
020008
020008
020008
020008
020008
020008
020008
020008
040008
040008
040008
040008
080008
080008
F00008
000008
000008
000008
000008
000008
000210
0001E0
ENDCHAR
STARTCHAR 0513
ENCODING 1299
SWIDTH 600 0
DWIDTH 20 0
BBX 17 24 0 -7
BITMAP
07FF80
040080
040080
040080
040080
040080
040080
080080
080080
080080
080080
080080
080080
080080
100080
100080
E00080
000080
000080
000080
000100
000100
004200
002C00
ENDCHAR
STARTCHAR 051A
ENCODING 1306
SWIDTH 840 0
DWIDTH 28 0
BBX 25 27 2 -4
BITMAP
01FF8000
06006000
08001000
10000800
20000400
20000200
40000200
40000100
80000100
80000100
80000100
80000100
80000100
80000100
80000100
40000100
40000200
20000200
20000400
10000800
0C001000
03006000
00FF8000
00040000
00020080
00018100
00007E00
ENDCHAR
STARTCHAR 051B
ENCODING 1307
SWIDTH 660 0
DWIDTH 22 0
BBX 17 23 2 -6
BITMAP
07F080
180C80
200280
400280
400180
800080
800080
800080
800080
800080
800080
800080
400180
400280
200480
180880
07F080
000080
000080
000080
000080
000080
000080
ENDCHAR
STARTCHAR 051C
ENCODING 1308
SWIDTH 1020 0
DWIDTH 34 0
BBX 32 23 1 0
BITMAP
80008001
40018001
40014001
40024002
20024002
20022002
20042004
10042004
10041004
10081008
08081008
08080808
08100810
04100410
04100410
04200420
02200220
02200220
02400240
01400140
01400140
01800180
00800080
ENDCHAR
STARTCHAR 051D
ENCODING 1309
SWIDTH 900 0
DWIDTH 30 0
BBX 28 17 1 0
BITMAP
80060010
80060010
40090020
40090020
40090020
20108040
20108040
10204080
10204080
10204080
08402100
08402100
04801200
04801200
05001200
03000C00
01000400
ENDCHAR
STARTCHAR 0524
ENCODING 1316
SWIDTH 840 0
DWIDTH 28 0
BBX 22 29 5 -6
BITMAP
FFFFC0
800040
800040
800040
800040
800040
800040
800040
800040
800040
800040
800040
800040
800040
800040
800040
800040
800040
800040
800040
800040
800040
80003C
000004
000004
000004
000004
000004
000004
ENDCHAR
STARTCHAR 0525
ENCODING 1317
SWIDTH 660 0
DWIDTH 22 0
BBX 17 21 4 -4
BITMAP
FFFC00
800400
800400
800400
800400
800400
800400
800400
800400
800400
800400
800400
800400
800400
800400
800400
800380
000080
000080
000080
000080
ENDCHAR
STARTCHAR 0526
ENCODING 1318
SWIDTH 780 0
DWIDTH 26 0
BBX 21 29 5 -6
BITMAP
800000
800000
800000
800000
800000
800000
800000
800000
87E000
B81C00
C00200
800100
800100
800080
800080
800080
800080
800080
800080
800080
800080
800080
8000F8
000008
000008
000008
000008
000008
000008
ENDCHAR
STARTCHAR 0527
ENCODING 1319
SWIDTH 660 0
DWIDTH 22 0
BBX 17 29 4 -4
BITMAP
800000
800000
800000
800000
800000
800000
800000
800000
8FF000
B00800
C00400
C00400
800400
800200
800200
800200
800200
800200
800200
800200
800200
800200
800200
800200
800380
000080
000080
000080
000080
ENDCHAR
STARTCHAR 0528
ENCODING 1320
SWIDTH 810 0
DWIDTH 27 0
BBX 25 30 -2 -7
BITMAP
02000080
02000080
02000080
02000080
02000080
02000080
02000080
02000080
02000080
02000080
02000080
01FFFF80
02000080
02000080
02000080
02000080
02000080
02000080
02000080
02000080
02000080
02000080
02000080
02000000
02000000
02000000
02000000
02000000
84000000
78000000
ENDCHAR
STARTCHAR 0529
ENCODING 1321
SWIDTH 660 0
DWIDTH 22 0
BBX 21 24 -3 -7
BITMAP
010008
010008
010008
010008
010008
010008
010008
010008
01FFF8
010008
010008
010008
010008
010008
010008
010008
010008
010000
010000
010000
020000
020000
C40000
380000
ENDCHAR
STARTCHAR 052E
ENCODING 1326
SWIDTH 780 0
DWIDTH 26 0
BBX 25 29 0 -6
BITMAP
03FFF800
02000800
02000800
02000800
02000800
02000800
02000800
02000800
02000800
02000800
02000800
02000800
02000800
02000800
02000800
02000800
04000800
04000800
04000800
04000800
08000800
08000800
F0000780
00000080
00000080
00000080
00000080
00000080
00000080
ENDCHAR
STARTCHAR 052F
ENCODING 1327
SWIDTH 600 0
DWIDTH 20 0
BBX 19 21 0 -4
BITMAP
07FF80
040080
040080
040080
040080
040080
040080
080080
080080
080080
080080
080080
080080
080080
100080
100080
E000E0
000020
000020
000020
000020
ENDCHAR
STARTCHAR 1E08
ENCODING 7688
SWIDTH 690 0
DWIDTH 23 0
BBX 20 36 2 -7
BITMAP
000300
000400
000800
003000
000000
000000
01FF80
060060
080010
100000
200000
400000
400000
800000
800000
800000
800000
800000
800000
800000
800000
800000
400000
400000
200000
100000
080020
060040
01FF80
001000
002000
001800
000400
000400
000400
007800
ENDCHAR
STARTCHAR 1E09
ENCODING 7689
SWIDTH 540 0
DWIDTH 18 0
BBX 14 31 2 -7
BITMAP
0030
0040
0080
0100
0000
0000
0000
0FF0
100C
2000
4000
8000
8000
8000
8000
8000
8000
8000
8000
8000
4000
2004
1008
0FF0
0100
0100
0180
0040
0040
0040
0780
ENDCHAR
STARTCHAR 1E0C
ENCODING 7692
SWIDTH 810 0
DWIDTH 27 0
BBX 22 29 4 -6
BITMAP
FFFC00
800300
8000C0
800020
800020
800010
800008
800008
800008
800008
800004
800004
800004
800008
800008
800008
800010
800010
800020
800040
800080
800300
FFFC00
000000
000000
000000
000000
00C000
004000
ENDCHAR
STARTCHAR 1E0D
ENCODING 7693
SWIDTH 660 0
DWIDTH 22 0
BBX 17 31 2 -6
BITMAP
000080
000080
000080
000080
000080
000080
000080
000080
0FF080
100880
200480
400280
800180
800180
800080
800080
800080
800080
800080
800180
800180
400280
200480
100880
0FF080
000000
000000
000000
000000
00C000
00C000
ENDCHAR
STARTCHAR 1E0E
ENCODING 7694
SWIDTH 810 0
DWIDTH 27 0
BBX 22 28 4 -5
BITMAP
FFFC00
800300
8000C0
800020
800020
800010
800008
800008
800008
800008
800004
800004
800004
800008
800008
800008
800010
800010
800020
800040
800080
800300
FFFC00
000000
000000
000000
000000
07F800
ENDCHAR
STARTCHAR 1E0F
ENCODING 7695
SWIDTH 660 0
DWIDTH 22 0
BBX 17 30 2 -5
BITMAP
000080
000080
000080
000080
000080
000080
000080
000080
0FF080
100880
200480
400280
800180
800180
800080
800080
800080
800080
800080
800180
800180
400280
200480
100880
0FF080
000000
000000
000000
000000
07F800
ENDCHAR
STARTCHAR 1E14
ENCODING 7700
SWIDTH 660 0
DWIDTH 22 0
BBX 16 32 4 0
BITMAP
0400
0300
0080
0000
0000
1FF8
0000
0000
0000
FFFE
8000
8000
8000
8000
8000
8000
8000
8000
8000
8000
FFF8
8000
8000
8000
8000
8000
8000
8000
8000
8000
8000
FFFF
ENDCHAR
STARTCHAR 1E15
ENCODING 7701
SWIDTH 570 0
DWIDTH 19 0
BBX 16 27 2 0
BITMAP
0C00
0200
0180
0000
0000
1FF0
0000
0000
0000
0000
0FE0
1018
2004
4002
8002
8002
8001
8001
FFFE
8000
8000
8000
8000
4000
2002
100C
0FF0
ENDCHAR
STARTCHAR 1E16
ENCODING 7702
SWIDTH 660 0
DWIDTH 22 0
BBX 16 32 4 0
BITMAP
0020
00C0
0100
0000
0000
1FF8
0000
0000
0000
FFFE
8000
8000
8000
8000
8000
8000
8000
8000
8000
8000
FFF8
8000
8000
8000
8000
8000
8000
8000
8000
8000
8000
FFFF
ENDCHAR
STARTCHAR 1E17
ENCODING 7703
SWIDTH 570 0
DWIDTH 19 0
BBX 16 27 2 0
BITMAP
0060
0080
0100
0000
0000
1FF0
0000
0000
0000
0000
0FE0
1018
2004
4002
8002
8002
8001
8001
FFFE
8000
8000
8000
8000
4000
2002
100C
0FF0
ENDCHAR
STARTCHAR 1E1C
ENCODING 7708
SWIDTH 660 0
DWIDTH 22 0
BBX 16 35 4 -6
BITMAP
0810
0420
03C0
0000
0000
FFFE
8000
8000
8000
8000
8000
8000
8000
8000
8000
8000
FFF8
8000
8000
8000
8000
8000
8000
8000
8000
8000
8000
FFFF
0080
0100
00C0
0020
0020
0020
03C0
ENDCHAR
STARTCHAR 1E1D
ENCODING 7709
SWIDTH 570 0
DWIDTH 19 0
BBX 16 31 2 -7
BITMAP
1000
1010
0820
07C0
0000
0000
0000
0FE0
1018
2004
4002
8002
8002
8001
8001
FFFE
8000
8000
8000
8000
4000
2002
100C
0FF0
0100
0100
0180
0040
0040
0040
0780
ENDCHAR
STARTCHAR 1E20
ENCODING 7712
SWIDTH 750 0
DWIDTH 25 0
BBX 20 27 2 0
BITMAP
01FE00
000000
000000
000000
01FF80
060060
080010
100000
200000
400000
400000
800000
800000
800000
800000
800000
800010
800010
800010
800010
400010
400010
200010
100010
080010
060060
01FF80
ENDCHAR
STARTCHAR 1E21
ENCODING 7713
SWIDTH 660 0
DWIDTH 22 0
BBX 17 29 2 -7
BITMAP
0FF800
000000
000000
000000
000000
0FF080
100C80
200280
400280
800180
800080
800080
800080
800080
800080
800080
800180
400280
200280
100480
0C1880
03E080
000080
000100
000100
400100
200200
1C0C00
02F000
ENDCHAR
STARTCHAR 1E24
ENCODING 7716
SWIDTH 810 0
DWIDTH 27 0
BBX 19 29 4 -6
BITMAP
800020
800020
800020
800020
800020
800020
800020
800020
800020
800020
800020
FFFFE0
800020
800020
800020
800020
800020
800020
800020
800020
800020
800020
800020
000000
000000
000000
000000
004000
004000
ENDCHAR
STARTCHAR 1E25
ENCODING 7717
SWIDTH 660 0
DWIDTH 22 0
BBX 15 31 4 -6
BITMAP
8000
8000
8000
8000
8000
8000
8000
8000
8FE0
B018
C004
C004
8004
8002
8002
8002
8002
8002
8002
8002
8002
8002
8002
8002
8002
0000
0000
0000
0000
0300
0300
ENDCHAR
STARTCHAR 1E2A
ENCODING 7722
SWIDTH 810 0
DWIDTH 27 0
BBX 19 30 4 -7
BITMAP
800020
800020
800020
800020
800020
800020
800020
800020
800020
800020
800020
FFFFE0
800020
800020
800020
800020
800020
800020
800020
800020
800020
800020
800020
000000
000000
000000
040400
040400
030800
00D000
ENDCHAR
STARTCHAR 1E2B
ENCODING 7723
SWIDTH 660 0
DWIDTH 22 0
BBX 15 32 4 -7
BITMAP
8000
8000
8000
8000
8000
8000
8000
8000
8FE0
B018
C004
C004
8004
8002
8002
8002
8002
8002
8002
8002
8002
8002
8002
8002
8002
0000
0000
0000
2010
1020
0840
0580
ENDCHAR
STARTCHAR 1E2E
ENCODING 7726
SWIDTH 270 0
DWIDTH 9 0
BBX 7 32 1 0
BITMAP
06
08
10
00
C2
02
00
00
00
10
10
10
10
10
10
10
10
10
10
10
10
10
10
10
10
10
10
10
10
10
10
10
ENDCHAR
STARTCHAR 1E2F
ENCODING 7727
SWIDTH 240 0
DWIDTH 8 0
BBX 7 27 1 0
BITMAP
06
08
30
00
86
80
00
00
00
00
10
10
10
10
10
10
10
10
10
10
10
10
10
10
10
10
10
ENDCHAR
STARTCHAR 1E36
ENCODING 7734
SWIDTH 570 0
DWIDTH 19 0
BBX 15 29 4 -6
BITMAP
8000
8000
8000
8000
8000
8000
8000
8000
8000
8000
8000
8000
8000
8000
8000
8000
8000
8000
8000
8000
8000
8000
FFFE
0000
0000
0000
0000
0180
0180
ENDCHAR
STARTCHAR 1E37
ENCODING 7735
SWIDTH 240 0
DWIDTH 8 0
BBX 2 31 3 -6
BITMAP
40
40
40
40
40
40
40
40
40
40
40
40
40
40
40
40
40
40
40
40
40
40
40
40
40
00
00
00
00
C0
C0
ENDCHAR
STARTCHAR 1E3A
ENCODING 7738
SWIDTH 570 0
DWIDTH 19 0
BBX 15 28 4 -5
BITMAP
8000
8000
8000
8000
8000
8000
8000
8000
8000
8000
8000
8000
8000
8000
8000
8000
8000
8000
8000
8000
8000
8000
FFFE
0000
0000
0000
0000
0FF0
ENDCHAR
STARTCHAR 1E3B
ENCODING 7739
SWIDTH 240 0
DWIDTH 8 0
BBX 8 30 0 -5
BITMAP
08
08
08
08
08
08
08
08
08
08
08
08
08
08
08
08
08
08
08
08
08
08
08
08
08
00
00
00
00
FF
ENDCHAR
STARTCHAR 1E42
ENCODING 7746
SWIDTH 930 0
DWIDTH 31 0
BBX 23 29 4 -6
BITMAP
800002
C00002
A00006
A0000A
90000A
900012
880012
880022
840022
820042
820082
810082
810102
808102
808202
804202
802402
802802
801802
800002
800002
800002
800002
000000
000000
000000
000000
001800
001800
ENDCHAR
STARTCHAR 1E43
ENCODING 7747
SWIDTH 1050 0
DWIDTH 35 0
BBX 28 23 4 -6
BITMAP
8FE03F80
B010C040
C0090020
C0060020
80060010
80040010
80040010
80040010
80040010
80040010
80040010
80040010
80040010
80040010
80040010
80040010
80040010
00000000
00000000
00000000
00000000
00060000
00060000
ENDCHAR
STARTCHAR 1E44
ENCODING 7748
SWIDTH 810 0
DWIDTH 27 0
BBX 19 28 4 0
BITMAP
004000
004000
000000
000000
000000
C00020
C00020
A00020
900020
880020
840020
840020
820020
810020
808020
808020
804020
802020
801020
801020
800820
800420
800220
800120
800120
8000A0
800060
800020
ENDCHAR
STARTCHAR 1E45
ENCODING 7749
SWIDTH 660 0
DWIDTH 22 0
BBX 15 23 4 0
BITMAP
0300
0100
0000
0000
0000
0000
8FE0
B018
C004
C004
8004
8002
8002
8002
8002
8002
8002
8002
8002
8002
8002
8002
8002
ENDCHAR
STARTCHAR 1E46
ENCODING 7750
SWIDTH 810 0
DWIDTH 27 0
BBX 19 29 4 -6
BITMAP
C00020
C00020
A00020
900020
880020
840020
840020
820020
810020
808020
808020
804020
802020
801020
801020
800820
800420
800220
800120
800120
8000A0
800060
800020
000000
000000
000000
000000
004000
004000
ENDCHAR
STARTCHAR 1E47
ENCODING 7751
SWIDTH 660 0
DWIDTH 22 0
BBX 15 23 4 -6
BITMAP
8FE0
B018
C004
C004
8004
8002
8002
8002
8002
8002
8002
8002
8002
8002
8002
8002
8002
0000
0000
0000
0000
0300
0300
ENDCHAR
STARTCHAR 1E48
ENCODING 7752
SWIDTH 810 0
DWIDTH 27 0
BBX 19 28 4 -5
BITMAP
C00020
C00020
A00020
900020
880020
840020
840020
820020
810020
808020
808020
804020
802020
801020
801020
800820
800420
800220
800120
800120
8000A0
800060
800020
000000
000000
000000
000000
03FC00
ENDCHAR
STARTCHAR 1E49
ENCODING 7753
SWIDTH 660 0
DWIDTH 22 0
BBX 15 22 4 -5
BITMAP
8FE0
B018
C004
C004
8004
8002
8002
8002
8002
8002
8002
8002
8002
8002
8002
8002
8002
0000
0000
0000
0000
1FE0
ENDCHAR
STARTCHAR 1E4C
ENCODING 7756
SWIDTH 810 0
DWIDTH 27 0
BBX 24 32 2 0
BITMAP
000200
000C00
001000
000000
00F100
010F00
000000
000000
000000
01FF80
060060
080010
100008
200004
400004
400002
800002
800001
800001
800001
800001
800001
800001
800002
800002
400002
400004
200004
100008
080010
060060
01FF80
ENDCHAR
STARTCHAR 1E4D
ENCODING 7757
SWIDTH 600 0
DWIDTH 20 0
BBX 17 27 2 0
BITMAP
003000
004000
018000
000000
0F0800
10D000
002000
000000
000000
000000
0FF000
100800
200600
400200
800100
800100
800100
800100
800080
800100
800100
800100
800100
400200
200400
100800
0FF000
ENDCHAR
STARTCHAR 1E4E
ENCODING 7758
SWIDTH 810 0
DWIDTH 27 0
BBX 24 32 2 0
BITMAP
004200
004200
000000
000000
00F100
010F00
000000
000000
000000
01FF80
060060
080010
100008
200004
400004
400002
800002
800001
800001
800001
800001
800001
800001
800002
800002
400002
400004
200004
100008
080010
060060
01FF80
ENDCHAR
STARTCHAR 1E4F
ENCODING 7759
SWIDTH 600 0
DWIDTH 20 0
BBX 17 27 2 0
BITMAP
043000
043000
000000
000000
0F0800
10D000
002000
000000
000000
000000
0FF000
100800
200600
400200
800100
800100
800100
800100
800080
800100
800100
800100
800100
400200
200400
100800
0FF000
ENDCHAR
STARTCHAR 1E50
ENCODING 7760
SWIDTH 810 0
DWIDTH 27 0
BBX 24 32 2 0
BITMAP
004000
003000
000800
000000
000000
01FF00
000000
000000
000000
01FF80
060060
080010
100008
200004
400004
400002
800002
800001
800001
800001
800001
800001
800001
800002
800002
400002
400004
200004
100008
080010
060060
01FF80
ENDCHAR
STARTCHAR 1E51
ENCODING 7761
SWIDTH 600 0
DWIDTH 20 0
BBX 17 27 2 0
BITMAP
060000
010000
008000
000000
000000
0FF800
000000
000000
000000
000000
0FF000
100800
200600
400200
800100
800100
800100
800100
800080
800100
800100
800100
800100
400200
200400
100800
0FF000
ENDCHAR
STARTCHAR 1E52
ENCODING 7762
SWIDTH 810 0
DWIDTH 27 0
BBX 24 32 2 0
BITMAP
000200
000C00
001000
000000
000000
01FF00
000000
000000
000000
01FF80
060060
080010
100008
200004
400004
400002
800002
800001
800001
800001
800001
800001
800001
800002
800002
400002
400004
200004
100008
080010
060060
01FF80
ENDCHAR
STARTCHAR 1E53
ENCODING 7763
SWIDTH 600 0
DWIDTH 20 0
BBX 17 27 2 0
BITMAP
003000
004000
018000
000000
000000
0FF800
000000
000000
000000
000000
0FF000
100800
200600
400200
800100
800100
800100
800100
800080
800100
800100
800100
800100
400200
200400
100800
0FF000
ENDCHAR
STARTCHAR 1E5A
ENCODING 7770
SWIDTH 690 0
DWIDTH 23 0
BBX 18 29 4 -6
BITMAP
FFF800
800600
800100
800080
800080
800080
800080
800040
800080
800080
800080
800100
800100
800600
FFF800
801000
800800
800400
800200
800200
800100
800080
800080
000000
000000
000000
000000
018000
008000
ENDCHAR
STARTCHAR 1E5B
ENCODING 7771
SWIDTH 360 0
DWIDTH 12 0
BBX 8 23 3 -6
BITMAP
47
58
60
40
40
40
40
40
40
40
40
40
40
40
40
40
40
00
00
00
00
C0
C0
ENDCHAR
STARTCHAR 1E5E
ENCODING 7774
SWIDTH 690 0
DWIDTH 23 0
BBX 18 28 4 -5
BITMAP
FFF800
800600
800100
800080
800080
800080
800080
800040
800080
800080
800080
800100
800100
800600
FFF800
801000
800800
800400
800200
800200
800100
800080
800080
000000
000000
000000
000000
0FF000
ENDCHAR
STARTCHAR 1E5F
ENCODING 7775
SWIDTH 360 0
DWIDTH 12 0
BBX 11 22 0 -5
BITMAP
08E0
0B00
0C00
0800
0800
0800
0800
0800
0800
0800
0800
0800
0800
0800
0800
0800
0800
0000
0000
0000
0000
FF00
ENDCHAR
STARTCHAR 1E60
ENCODING 7776
SWIDTH 600 0
DWIDTH 20 0
BBX 16 28 2 0
BITMAP
0080
0080
0000
0000
0000
0FF8
3006
4000
4000
8000
8000
8000
4000
4000
3000
0C00
03C0
0038
0004
0002
0001
0001
0001
0001
8001
4002
2004
1FF8
ENDCHAR
STARTCHAR 1E61
ENCODING 7777
SWIDTH 450 0
DWIDTH 15 0
BBX 13 23 1 0
BITMAP
0300
0200
0000
0000
0000
0000
1FE0
2010
4000
4000
8000
4000
4000
3000
0B80
0070
0008
0008
0008
0008
8008
4010
3FE0
ENDCHAR
STARTCHAR 1E62
ENCODING 7778
SWIDTH 600 0
DWIDTH 20 0
BBX 16 29 2 -6
BITMAP
0FF8
3006
4000
4000
8000
8000
8000
4000
4000
3000
0C00
03C0
0038
0004
0002
0001
0001
0001
0001
8001
4002
2004
1FF8
0000
0000
0000
0000
0080
0080
ENDCHAR
STARTCHAR 1E63
ENCODING 7779
SWIDTH 450 0
DWIDTH 15 0
BBX 13 23 1 -6
BITMAP
1FE0
2010
4000
4000
8000
4000
4000
3000
0B80
0070
0008
0008
0008
0008
8008
4010
3FE0
0000
0000
0000
0000
0200
0200
ENDCHAR
STARTCHAR 1E64
ENCODING 7780
SWIDTH 600 0
DWIDTH 20 0
BBX 16 32 2 0
BITMAP
0080
0080
0000
0018
0020
0040
0180
0000
0000
0FF8
3006
4000
4000
8000
8000
8000
4000
4000
3000
0C00
03C0
0038
0004
0002
0001
0001
0001
0001
8001
4002
2004
1FF8
ENDCHAR
STARTCHAR 1E65
ENCODING 7781
SWIDTH 450 0
DWIDTH 15 0
BBX 13 27 1 0
BITMAP
0200
0200
0000
0060
0080
0100
0200
0000
0000
0000
1FE0
2010
4000
4000
8000
4000
4000
3000
0B80
0070
0008
0008
0008
0008
8008
4010
3FE0
ENDCHAR
STARTCHAR 1E66
ENCODING 7782
SWIDTH 600 0
DWIDTH 20 0
BBX 16 31 2 0
BITMAP
0080
0080
0000
0408
0230
01C0
0000
0000
0FF8
3006
4000
4000
8000
8000
8000
4000
4000
3000
0C00
03C0
0038
0004
0002
0001
0001
0001
0001
8001
4002
2004
1FF8
ENDCHAR
STARTCHAR 1E67
ENCODING 7783
SWIDTH 450 0
DWIDTH 15 0
BBX 13 26 1 0
BITMAP
0300
0200
0000
1020
0CC0
0300
0000
0000
0000
1FE0
2010
4000
4000
8000
4000
4000
3000
0B80
0070
0008
0008
0008
0008
8008
4010
3FE0
ENDCHAR
STARTCHAR 1E68
ENCODING 7784
SWIDTH 600 0
DWIDTH 20 0
BBX 16 34 2 -6
BITMAP
0080
0080
0000
0000
0000
0FF8
3006
4000
4000
8000
8000
8000
4000
4000
3000
0C00
03C0
0038
0004
0002
0001
0001
0001
0001
8001
4002
2004
1FF8
0000
0000
0000
0000
0080
0080
ENDCHAR
STARTCHAR 1E69
ENCODING 7785
SWIDTH 450 0
DWIDTH 15 0
BBX 13 29 1 -6
BITMAP
0300
0200
0000
0000
0000
0000
1FE0
2010
4000
4000
8000
4000
4000
3000
0B80
0070
0008
0008
0008
0008
8008
4010
3FE0
0000
0000
0000
0000
0200
0200
ENDCHAR
STARTCHAR 1E6C
ENCODING 7788
SWIDTH 540 0
DWIDTH 18 0
BBX 17 29 1 -6
BITMAP
FFFF80
010000
010000
010000
010000
010000
010000
010000
010000
010000
010000
010000
010000
010000
010000
010000
010000
010000
010000
010000
010000
010000
010000
000000
000000
000000
000000
018000
018000
ENDCHAR
STARTCHAR 1E6D
ENCODING 7789
SWIDTH 360 0
DWIDTH 12 0
BBX 10 27 1 -6
BITMAP
1000
1000
1000
1000
FF80
1000
1000
1000
1000
1000
1000
1000
1000
1000
1000
1000
1000
1000
1000
0800
07C0
0000
0000
0000
0000
0300
0300
ENDCHAR
STARTCHAR 1E6E
ENCODING 7790
SWIDTH 540 0
DWIDTH 18 0
BBX 17 28 1 -5
BITMAP
FFFF80
010000
010000
010000
010000
010000
010000
010000
010000
010000
010000
010000
010000
010000
010000
010000
010000
010000
010000
010000
010000
010000
010000
000000
000000
000000
000000
0FF000
ENDCHAR
STARTCHAR 1E6F
ENCODING 7791
SWIDTH 360 0
DWIDTH 12 0
BBX 11 26 1 -5
BITMAP
1000
1000
1000
1000
FF80
1000
1000
1000
1000
1000
1000
1000
1000
1000
1000
1000
1000
1000
1000
0800
07C0
0000
0000
0000
0000
1FE0
ENDCHAR
STARTCHAR 1E78
ENCODING 7800
SWIDTH 780 0
DWIDTH 26 0
BBX 18 32 4 0
BITMAP
001800
002000
00C000
000000
078400
046800
001000
000000
000000
800040
800040
800040
800040
800040
800040
800040
800040
800040
800040
800040
800040
800040
800040
800040
800040
800040
400040
400080
200080
200100
180200
07FC00
ENDCHAR
STARTCHAR 1E79
ENCODING 7801
SWIDTH 660 0
DWIDTH 22 0
BBX 14 27 4 0
BITMAP
0040
0180
0200
0000
1E20
21E0
0000
0000
0000
0000
8004
8004
8004
8004
8004
8004
8004
8004
8004
8004
8004
8004
8004
800C
4014
2024
1FC4
ENDCHAR
STARTCHAR 1E7A
ENCODING 7802
SWIDTH 780 0
DWIDTH 26 0
BBX 18 32 4 0
BITMAP
021800
021800
000000
000000
000000
07FC00
000000
000000
000000
800040
800040
800040
800040
800040
800040
800040
800040
800040
800040
800040
800040
800040
800040
800040
800040
800040
400040
400080
200080
200100
180200
07FC00
ENDCHAR
STARTCHAR 1E7B
ENCODING 7803
SWIDTH 660 0
DWIDTH 22 0
BBX 14 27 4 0
BITMAP
0840
0840
0000
0000
0000
3FF0
0000
0000
0000
0000
8004
8004
8004
8004
8004
8004
8004
8004
8004
8004
8004
8004
8004
800C
4014
2024
1FC4
ENDCHAR
STARTCHAR 1E80
ENCODING 7808
SWIDTH 1080 0
DWIDTH 36 0
BBX 32 29 2 0
BITMAP
00080000
00060000
00010000
00008000
00000000
00000000
80018001
80018001
80028001
40024002
40024002
40044002
20042004
20042004
20082008
10081008
10081008
10101010
08100810
08100810
08200420
04200420
04400420
04400240
02400240
02800240
02800180
01800180
01000080
ENDCHAR
STARTCHAR 1E81
ENCODING 7809
SWIDTH 810 0
DWIDTH 27 0
BBX 27 24 0 0
BITMAP
00200000
00180000
00040000
00020000
00000000
00000000
00000000
80060020
40060020
400A0040
40090040
20110040
20110080
10108080
10208080
10204100
08204100
08404200
04402200
04802200
04801400
02801400
03001800
01000800
ENDCHAR
STARTCHAR 1E82
ENCODING 7810
SWIDTH 1080 0
DWIDTH 36 0
BBX 32 29 2 0
BITMAP
00001000
00006000
00008000
00010000
00000000
00000000
80018001
80018001
80028001
40024002
40024002
40044002
20042004
20042004
20082008
10081008
10081008
10101010
08100810
08100810
08200420
04200420
04400420
04400240
02400240
02800240
02800180
01800180
01000080
ENDCHAR
STARTCHAR 1E83
ENCODING 7811
SWIDTH 810 0
DWIDTH 27 0
BBX 27 24 0 0
BITMAP
00004000
00018000
00020000
00040000
00000000
00000000
00000000
80060020
40060020
400A0040
40090040
20110040
20110080
10108080
10208080
10204100
08204100
08404200
04402200
04802200
04801400
02801400
03001800
01000800
ENDCHAR
STARTCHAR 1E84
ENCODING 7812
SWIDTH 1080 0
DWIDTH 36 0
BBX 32 28 2 0
BITMAP
000C3000
00042000
00000000
00000000
00000000
80018001
80018001
80028001
40024002
40024002
40044002
20042004
20042004
20082008
10081008
10081008
10101010
08100810
08100810
08200420
04200420
04400420
04400240
02400240
02800240
02800180
01800180
01000080
ENDCHAR
STARTCHAR 1E85
ENCODING 7813
SWIDTH 810 0
DWIDTH 27 0
BBX 27 23 0 0
BITMAP
0030C000
00108000
00000000
00000000
00000000
00000000
80060020
40060020
400A0040
40090040
20110040
20110080
10108080
10208080
10204100
08204100
08404200
04402200
04802200
04801400
02801400
03001800
01000800
ENDCHAR
STARTCHAR 1E8E
ENCODING 7822
SWIDTH 600 0
DWIDTH 20 0
BBX 19 28 1 0
BITMAP
00C000
004000
000000
000000
000000
800060
800040
400080
400080
200100
100200
100200
080400
040400
040800
021000
021000
012000
00C000
00C000
004000
004000
004000
004000
004000
004000
004000
004000
ENDCHAR
STARTCHAR 1E8F
ENCODING 7823
SWIDTH 480 0
DWIDTH 16 0
BBX 17 30 -1 -7
BITMAP
00C000
000000
000000
000000
000000
000000
400080
200080
200100
100100
100100
080200
080200
080400
040400
040800
020800
021000
011000
012000
00A000
00A000
004000
004000
008000
008000
010000
010000
C20000
3C0000
ENDCHAR
STARTCHAR 1E92
ENCODING 7826
SWIDTH 630 0
DWIDTH 21 0
BBX 18 29 2 -6
BITMAP
FFFF80
000080
000100
000200
000400
000400
000800
001000
002000
002000
004000
008000
010000
020000
020000
040000
080000
100000
100000
200000
400000
800000
FFFFC0
000000
000000
000000
000000
00C000
00C000
ENDCHAR
STARTCHAR 1E93
ENCODING 7827
SWIDTH 480 0
DWIDTH 16 0
BBX 13 23 2 -6
BITMAP
FFF0
0010
0020
0040
0080
0080
0100
0200
0400
0400
0800
1000
2000
2000
4000
8000
FFF8
0000
0000
0000
0000
0200
0200
ENDCHAR
STARTCHAR 1E97
ENCODING 7831
SWIDTH 360 0
DWIDTH 12 0
BBX 10 27 1 0
BITMAP
8600
8600
0000
0000
0000
0000
1000
1000
1000
1000
FF80
1000
1000
1000
1000
1000
1000
1000
1000
1000
1000
1000
1000
1000
1000
0800
07C0
ENDCHAR
STARTCHAR 1E9E
ENCODING 7838
SWIDTH 720 0
DWIDTH 24 0
BBX 19 23 4 0
BITMAP
07FC00
180300
200080
400100
400200
800400
800800
801000
802000
804000
80FC00
800300
800080
800040
800040
800040
800020
800020
800040
800040
800080
800100
81FE00
ENDCHAR
STARTCHAR 1EA0
ENCODING 7840
SWIDTH 660 0
DWIDTH 22 0
BBX 22 29 0 -6
BITMAP
001000
002800
002800
004400
004400
008200
008200
010200
010100
020100
020080
040080
040040
080040
080020
0FFFE0
100010
100010
200008
200008
400008
400004
800004
000000
000000
000000
000000
001000
001000
ENDCHAR
STARTCHAR 1EA1
ENCODING 7841
SWIDTH 570 0
DWIDTH 19 0
BBX 14 23 2 -6
BITMAP
1FE0
2010
4008
0008
0008
0008
0004
0004
3FFC
4004
8004
8004
8004
800C
8014
6024
1F84
0000
0000
0000
0000
0100
0100
ENDCHAR
STARTCHAR 1EA2
ENCODING 7842
SWIDTH 660 0
DWIDTH 22 0
BBX 22 31 0 0
BITMAP
001000
004C00
000400
000400
000800
001000
000000
000000
001000
002800
002800
004400
004400
008200
008200
010200
010100
020100
020080
040080
040040
080040
080020
0FFFE0
100010
100010
200008
200008
400008
400004
800004
ENDCHAR
STARTCHAR 1EA3
ENCODING 7843
SWIDTH 570 0
DWIDTH 19 0
BBX 14 26 2 0
BITMAP
0300
0480
0040
0040
0080
0100
0000
0000
0000
1FE0
2010
4008
0008
0008
0008
0004
0004
3FFC
4004
8004
8004
8004
800C
8014
6024
1F84
ENDCHAR
STARTCHAR 1EA4
ENCODING 7844
SWIDTH 660 0
DWIDTH 22 0
BBX 22 31 0 0
BITMAP
000060
000080
000100
003800
004400
018300
000000
000000
001000
002800
002800
004400
004400
008200
008200
010200
010100
020100
020080
040080
040040
080040
080020
0FFFE0
100010
100010
200008
200008
400008
400004
800004
ENDCHAR
STARTCHAR 1EA5
ENCODING 7845
SWIDTH 570 0
DWIDTH 19 0
BBX 14 26 2 0
BITMAP
0004
0008
0010
0320
0CC0
1020
0000
0000
0000
1FE0
2010
4008
0008
0008
0008
0004
0004
3FFC
4004
8004
8004
8004
800C
8014
6024
1F84
ENDCHAR
STARTCHAR 1EA6
ENCODING 7846
SWIDTH 660 0
DWIDTH 22 0
BBX 22 31 0 0
BITMAP
000800
000600
000100
003800
004400
018300
000000
000000
001000
002800
002800
004400
004400
008200
008200
010200
010100
020100
020080
040080
040040
080040
080020
0FFFE0
100010
100010
200008
200008
400008
400004
800004
ENDCHAR
STARTCHAR 1EA7
ENCODING 7847
SWIDTH 570 0
DWIDTH 19 0
BBX 14 26 2 0
BITMAP
0080
0040
0030
0300
0CC0
1020
0000
0000
0000
1FE0
2010
4008
0008
0008
0008
0004
0004
3FFC
4004
8004
8004
8004
800C
8014
6024
1F84
ENDCHAR
STARTCHAR 1EA8
ENCODING 7848
SWIDTH 660 0
DWIDTH 22 0
BBX 22 31 0 0
BITMAP
000700
000080
000100
003800
004400
018300
000000
000000
001000
002800
002800
004400
004400
008200
008200
010200
010100
020100
020080
040080
040040
080040
080020
0FFFE0
100010
100010
200008
200008
400008
400004
800004
ENDCHAR
STARTCHAR 1EA9
ENCODING 7849
SWIDTH 570 0
DWIDTH 19 0
BBX 14 26 2 0
BITMAP
0070
0010
0010
0320
0CC0
1020
0000
0000
0000
1FE0
2010
4008
0008
0008
0008
0004
0004
3FFC
4004
8004
8004
8004
800C
8014
6024
1F84
ENDCHAR
STARTCHAR 1EAA
ENCODING 7850
SWIDTH 660 0
DWIDTH 22 0
BBX 22 31 0 0
BITMAP
01F100
010E00
000000
003800
004400
018300
000000
000000
001000
002800
002800
004400
004400
008200
008200
010200
010100
020100
020080
040080
040040
080040
080020
0FFFE0
100010
100010
200008
200008
400008
400004
800004
ENDCHAR
STARTCHAR 1EAB
ENCODING 7851
SWIDTH 570 0
DWIDTH 19 0
BBX 14 26 2 0
BITMAP
1E20
01E0
0000
0300
0CC0
1020
0000
0000
0000
1FE0
2010
4008
0008
0008
0008
0004
0004
3FFC
4004
8004
8004
8004
800C
8014
6024
1F84
ENDCHAR
STARTCHAR 1EAC
ENCODING 7852
SWIDTH 660 0
DWIDTH 22 0
BBX 22 35 0 -6
BITMAP
003000
004C00
008200
010100
000000
000000
001000
002800
002800
004400
004400
008200
008200
010200
010100
020100
020080
040080
040040
080040
080020
0FFFE0
100010
100010
200008
200008
400008
400004
800004
000000
000000
000000
000000
001000
001000
ENDCHAR
STARTCHAR 1EAD
ENCODING 7853
SWIDTH 570 0
DWIDTH 19 0
BBX 14 30 2 -6
BITMAP
0300
0480
0840
1020
0000
0000
0000
1FE0
2010
4008
0008
0008
0008
0004
0004
3FFC
4004
8004
8004
8004
800C
8014
6024
1F84
0000
0000
0000
0000
0100
0100
ENDCHAR
STARTCHAR 1EAE
ENCODING 7854
SWIDTH 660 0
DWIDTH 22 0
BBX 22 32 0 0
BITMAP
000200
000400
001800
002000
010100
008200
007C00
000000
000000
001000
002800
002800
004400
004400
008200
008200
010200
010100
020100
020080
040080
040040
080040
080020
0FFFE0
100010
100010
200008
200008
400008
400004
800004
ENDCHAR
STARTCHAR 1EAF
ENCODING 7855
SWIDTH 570 0
DWIDTH 19 0
BBX 14 27 2 0
BITMAP
0020
00C0
0100
0200
0000
1020
0FC0
0000
0000
0000
1FE0
2010
4008
0008
0008
0008
0004
0004
3FFC
4004
8004
8004
8004
800C
8014
6024
1F84
ENDCHAR
STARTCHAR 1EB0
ENCODING 7856
SWIDTH 660 0
DWIDTH 22 0
BBX 22 32 0 0
BITMAP
008000
004000
003000
000800
010100
008200
007C00
000000
000000
001000
002800
002800
004400
004400
008200
008200
010200
010100
020100
020080
040080
040040
080040
080020
0FFFE0
100010
100010
200008
200008
400008
400004
800004
ENDCHAR
STARTCHAR 1EB1
ENCODING 7857
SWIDTH 570 0
DWIDTH 19 0
BBX 14 27 2 0
BITMAP
1800
0400
0200
0100
0000
1020
0FC0
0000
0000
0000
1FE0
2010
4008
0008
0008
0008
0004
0004
3FFC
4004
8004
8004
8004
800C
8014
6024
1F84
ENDCHAR
STARTCHAR 1EB2
ENCODING 7858
SWIDTH 660 0
DWIDTH 22 0
BBX 22 32 0 0
BITMAP
003800
000800
000800
000800
010100
008200
007C00
000000
000000
001000
002800
002800
004400
004400
008200
008200
010200
010100
020100
020080
040080
040040
080040
080020
0FFFE0
100010
100010
200008
200008
400008
400004
800004
ENDCHAR
STARTCHAR 1EB3
ENCODING 7859
SWIDTH 570 0
DWIDTH 19 0
BBX 14 27 2 0
BITMAP
0300
0080
0080
0100
0000
1020
0FC0
0000
0000
0000
1FE0
2010
4008
0008
0008
0008
0004
0004
3FFC
4004
8004
8004
8004
800C
8014
6024
1F84
ENDCHAR
STARTCHAR 1EB4
ENCODING 7860
SWIDTH 660 0
DWIDTH 22 0
BBX 22 31 0 0
BITMAP
00E100
011E00
000000
010100
008200
007C00
000000
000000
001000
002800
002800
004400
004400
008200
008200
010200
010100
020100
020080
040080
040040
080040
080020
0FFFE0
100010
100010
200008
200008
400008
400004
800004
ENDCHAR
STARTCHAR 1EB5
ENCODING 7861
SWIDTH 570 0
DWIDTH 19 0
BBX 14 26 2 0
BITMAP
1E20
21E0
0000
0000
1020
0FC0
0000
0000
0000
1FE0
2010
4008
0008
0008
0008
0004
0004
3FFC
4004
8004
8004
8004
800C
8014
6024
1F84
ENDCHAR
STARTCHAR 1EB6
ENCODING 7862
SWIDTH 660 0
DWIDTH 22 0
BBX 22 35 0 -6
BITMAP
010100
010100
008200
003C00
000000
000000
001000
002800
002800
004400
004400
008200
008200
010200
010100
020100
020080
040080
040040
080040
080020
0FFFE0
100010
100010
200008
200008
400008
400004
800004
000000
000000
000000
000000
001000
001000
ENDCHAR
STARTCHAR 1EB7
ENCODING 7863
SWIDTH 570 0
DWIDTH 19 0
BBX 14 29 2 -5
BITMAP
1020
0820
07C0
0000
0000
0000
1FE0
2010
4008
0008
0008
0008
0004
0004
3FFC
4004
8004
8004
8004
800C
8014
6024
1F84
0000
0000
0000
0000
0100
0100
ENDCHAR
STARTCHAR 1EB8
ENCODING 7864
SWIDTH 660 0
DWIDTH 22 0
BBX 16 29 4 -6
BITMAP
FFFE
8000
8000
8000
8000
8000
8000
8000
8000
8000
8000
FFF8
8000
8000
8000
8000
8000
8000
8000
8000
8000
8000
FFFF
0000
0000
0000
0000
0080
0080
ENDCHAR
STARTCHAR 1EB9
ENCODING 7865
SWIDTH 570 0
DWIDTH 19 0
BBX 16 23 2 -6
BITMAP
0FE0
1018
2004
4002
8002
8002
8001
8001
FFFE
8000
8000
8000
8000
4000
2002
100C
0FF0
0000
0000
0000
0000
0100
0100
ENDCHAR
STARTCHAR 1EBA
ENCODING 7866
SWIDTH 660 0
DWIDTH 22 0
BBX 16 31 4 0
BITMAP
0180
0240
0040
0040
0040
0080
0000
0000
FFFE
8000
8000
8000
8000
8000
8000
8000
8000
8000
8000
FFF8
8000
8000
8000
8000
8000
8000
8000
8000
8000
8000
FFFF
ENDCHAR
STARTCHAR 1EBB
ENCODING 7867
SWIDTH 570 0
DWIDTH 19 0
BBX 16 26 2 0
BITMAP
0180
0240
0040
0040
0040
0080
0000
0000
0000
0FE0
1018
2004
4002
8002
8002
8001
8001
FFFE
8000
8000
8000
8000
4000
2002
100C
0FF0
ENDCHAR
STARTCHAR 1EBC
ENCODING 7868
SWIDTH 660 0
DWIDTH 22 0
BBX 16 28 4 1
BITMAP
0B10
1090
0060
0000
0000
FFFE
8000
8000
8000
8000
8000
8000
8000
8000
8000
8000
FFF8
8000
8000
8000
8000
8000
8000
8000
8000
8000
8000
FFFF
ENDCHAR
STARTCHAR 1EBD
ENCODING 7869
SWIDTH 570 0
DWIDTH 19 0
BBX 16 24 2 0
BITMAP
0400
0B10
1090
0060
0000
0000
0000
0FE0
1018
2004
4002
8002
8002
8001
8001
FFFE
8000
8000
8000
8000
4000
2002
100C
0FF0
ENDCHAR
STARTCHAR 1EBE
ENCODING 7870
SWIDTH 660 0
DWIDTH 22 0
BBX 16 31 4 0
BITMAP
0002
0004
0018
0180
0660
0810
0000
0000
FFFE
8000
8000
8000
8000
8000
8000
8000
8000
8000
8000
FFF8
8000
8000
8000
8000
8000
8000
8000
8000
8000
8000
FFFF
ENDCHAR
STARTCHAR 1EBF
ENCODING 7871
SWIDTH 570 0
DWIDTH 19 0
BBX 16 26 2 0
BITMAP
0002
0004
0018
0180
0640
0830
0000
0000
0000
0FE0
1018
2004
4002
8002
8002
8001
8001
FFFE
8000
8000
8000
8000
4000
2002
100C
0FF0
ENDCHAR
STARTCHAR 1EC0
ENCODING 7872
SWIDTH 660 0
DWIDTH 22 0
BBX 16 31 4 0
BITMAP
0040
0020
0010
0180
0660
0810
0000
0000
FFFE
8000
8000
8000
8000
8000
8000
8000
8000
8000
8000
FFF8
8000
8000
8000
8000
8000
8000
8000
8000
8000
8000
FFFF
ENDCHAR
STARTCHAR 1EC1
ENCODING 7873
SWIDTH 570 0
DWIDTH 19 0
BBX 16 26 2 0
BITMAP
00C0
0020
0010
0188
0640
0830
0000
0000
0000
0FE0
1018
2004
4002
8002
8002
8001
8001
FFFE
8000
8000
8000
8000
4000
2002
100C
0FF0
ENDCHAR
STARTCHAR 1EC2
ENCODING 7874
SWIDTH 660 0
DWIDTH 22 0
BBX 16 31 4 0
BITMAP
0038
0008
0008
0190
0660
0810
0000
0000
FFFE
8000
8000
8000
8000
8000
8000
8000
8000
8000
8000
FFF8
8000
8000
8000
8000
8000
8000
8000
8000
8000
8000
FFFF
ENDCHAR
STARTCHAR 1EC3
ENCODING 7875
SWIDTH 570 0
DWIDTH 19 0
BBX 16 26 2 0
BITMAP
0038
0008
0008
0190
0640
0830
0000
0000
0000
0FE0
1018
2004
4002
8002
8002
8001
8001
FFFE
8000
8000
8000
8000
4000
2002
100C
0FF0
ENDCHAR
STARTCHAR 1EC4
ENCODING 7876
SWIDTH 660 0
DWIDTH 22 0
BBX 16 31 4 0
BITMAP
0F10
00F0
0000
0180
0660
0810
0000
0000
FFFE
8000
8000
8000
8000
8000
8000
8000
8000
8000
8000
FFF8
8000
8000
8000
8000
8000
8000
8000
8000
8000
8000
FFFF
ENDCHAR
STARTCHAR 1EC5
ENCODING 7877
SWIDTH 570 0
DWIDTH 19 0
BBX 16 26 2 0
BITMAP
0F10
10E0
0000
0180
0640
0830
0000
0000
0000
0FE0
1018
2004
4002
8002
8002
8001
8001
FFFE
8000
8000
8000
8000
4000
2002
100C
0FF0
ENDCHAR
STARTCHAR 1EC6
ENCODING 7878
SWIDTH 660 0
DWIDTH 22 0
BBX 16 35 4 -6
BITMAP
0180
0240
0420
0810
0000
0000
FFFE
8000
8000
8000
8000
8000
8000
8000
8000
8000
8000
FFF8
8000
8000
8000
8000
8000
8000
8000
8000
8000
8000
FFFF
0000
0000
0000
0000
0080
0080
ENDCHAR
STARTCHAR 1EC7
ENCODING 7879
SWIDTH 570 0
DWIDTH 19 0
BBX 16 30 2 -6
BITMAP
0180
0240
0420
1810
0000
0000
0000
0FE0
1018
2004
4002
8002
8002
8001
8001
FFFE
8000
8000
8000
8000
4000
2002
100C
0FF0
0000
0000
0000
0000
0100
0100
ENDCHAR
STARTCHAR 1EC8
ENCODING 7880
SWIDTH 270 0
DWIDTH 9 0
BBX 4 31 3 0
BITMAP
40
90
10
10
10
20
00
00
40
40
40
40
40
40
40
40
40
40
40
40
40
40
40
40
40
40
40
40
40
40
40
ENDCHAR
STARTCHAR 1EC9
ENCODING 7881
SWIDTH 240 0
DWIDTH 8 0
BBX 5 26 2 0
BITMAP
60
90
08
08
10
20
00
00
00
20
20
20
20
20
20
20
20
20
20
20
20
20
20
20
20
20
ENDCHAR
STARTCHAR 1ECA
ENCODING 7882
SWIDTH 270 0
DWIDTH 9 0
BBX 1 29 4 -6
BITMAP
80
80
80
80
80
80
80
80
80
80
80
80
80
80
80
80
80
80
80
80
80
80
80
00
00
00
00
80
80
ENDCHAR
STARTCHAR 1ECB
ENCODING 7883
SWIDTH 240 0
DWIDTH 8 0
BBX 2 30 3 -6
BITMAP
40
C0
00
00
00
00
00
40
40
40
40
40
40
40
40
40
40
40
40
40
40
40
40
40
00
00
00
00
C0
C0
ENDCHAR
STARTCHAR 1ECC
ENCODING 7884
SWIDTH 810 0
DWIDTH 27 0
BBX 24 29 2 -6
BITMAP
01FF80
060060
080010
100008
200004
400004
400002
800002
800001
800001
800001
800001
800001
800001
800002
800002
400002
400004
200004
100008
080010
060060
01FF80
000000
000000
000000
000000
001800
001800
ENDCHAR
STARTCHAR 1ECD
ENCODING 7885
SWIDTH 600 0
DWIDTH 20 0
BBX 17 23 2 -6
BITMAP
0FF000
100800
200600
400200
800100
800100
800100
800100
800080
800100
800100
800100
800100
400200
200400
100800
0FF000
000000
000000
000000
000000
018000
018000
ENDCHAR
STARTCHAR 1ECE
ENCODING 7886
SWIDTH 810 0
DWIDTH 27 0
BBX 24 31 2 0
BITMAP
001800
002400
000400
000400
000400
000800
000000
000000
01FF80
060060
080010
100008
200004
400004
400002
800002
800001
800001
800001
800001
800001
800001
800002
800002
400002
400004
200004
100008
080010
060060
01FF80
ENDCHAR
STARTCHAR 1ECF
ENCODING 7887
SWIDTH 600 0
DWIDTH 20 0
BBX 17 26 2 0
BITMAP
018000
024000
002000
002000
004000
008000
000000
000000
000000
0FF000
100800
200600
400200
800100
800100
800100
800100
800080
800100
800100
800100
800100
400200
200400
100800
0FF000
ENDCHAR
STARTCHAR 1ED0
ENCODING 7888
SWIDTH 810 0
DWIDTH 27 0
BBX 24 31 2 0
BITMAP
000020
000040
000180
001800
006600
008100
000000
000000
01FF80
060060
080010
100008
200004
400004
400002
800002
800001
800001
800001
800001
800001
800001
800002
800002
400002
400004
200004
100008
080010
060060
01FF80
ENDCHAR
STARTCHAR 1ED1
ENCODING 7889
SWIDTH 600 0
DWIDTH 20 0
BBX 17 26 2 0
BITMAP
000300
000400
000800
019000
026000
0C1000
000000
000000
000000
0FF000
100800
200600
400200
800100
800100
800100
800100
800080
800100
800100
800100
800100
400200
200400
100800
0FF000
ENDCHAR
STARTCHAR 1ED2
ENCODING 7890
SWIDTH 810 0
DWIDTH 27 0
BBX 24 31 2 0
BITMAP
000400
000200
000100
001880
006600
008100
000000
000000
01FF80
060060
080010
100008
200004
400004
400002
800002
800001
800001
800001
800001
800001
800001
800002
800002
400002
400004
200004
100008
080010
060060
01FF80
ENDCHAR
STARTCHAR 1ED3
ENCODING 7891
SWIDTH 600 0
DWIDTH 20 0
BBX 17 26 2 0
BITMAP
004000
002000
001800
018000
026000
0C1000
000000
000000
000000
0FF000
100800
200600
400200
800100
800100
800100
800100
800080
800100
800100
800100
800100
400200
200400
100800
0FF000
ENDCHAR
STARTCHAR 1ED4
ENCODING 7892
SWIDTH 810 0
DWIDTH 27 0
BBX 24 31 2 0
BITMAP
000380
000080
000080
001900
006600
008100
000000
000000
01FF80
060060
080010
100008
200004
400004
400002
800002
800001
800001
800001
800001
800001
800001
800002
800002
400002
400004
200004
100008
080010
060060
01FF80
ENDCHAR
STARTCHAR 1ED5
ENCODING 7893
SWIDTH 600 0
DWIDTH 20 0
BBX 17 26 2 0
BITMAP
003800
000800
000800
019000
026000
0C1000
000000
000000
000000
0FF000
100800
200600
400200
800100
800100
800100
800100
800080
800100
800100
800100
800100
400200
200400
100800
0FF000
ENDCHAR
STARTCHAR 1ED6
ENCODING 7894
SWIDTH 810 0
DWIDTH 27 0
BBX 24 31 2 0
BITMAP
00F100
010F00
000000
001800
006600
008100
000000
000000
01FF80
060060
080010
100008
200004
400004
400002
800002
800001
800001
800001
800001
800001
800001
800002
800002
400002
400004
200004
100008
080010
060060
01FF80
ENDCHAR
STARTCHAR 1ED7
ENCODING 7895
SWIDTH 600 0
DWIDTH 20 0
BBX 17 26 2 0
BITMAP
0F1000
00F000
000000
018000
026000
0C1000
000000
000000
000000
0FF000
100800
200600
400200
800100
800100
800100
800100
800080
800100
800100
800100
800100
400200
200400
100800
0FF000
ENDCHAR
STARTCHAR 1ED8
ENCODING 7896
SWIDTH 810 0
DWIDTH 27 0
BBX 24 35 2 -6
BITMAP
001800
002400
004200
008100
000000
000000
01FF80
060060
080010
100008
200004
400004
400002
800002
800001
800001
800001
800001
800001
800001
800002
800002
400002
400004
200004
100008
080010
060060
01FF80
000000
000000
000000
000000
001800
001800
ENDCHAR
STARTCHAR 1ED9
ENCODING 7897
SWIDTH 600 0
DWIDTH 20 0
BBX 17 30 2 -6
BITMAP
018000
024000
042000
081000
000000
000000
000000
0FF000
100800
200600
400200
800100
800100
800100
800100
800080
800100
800100
800100
800100
400200
200400
100800
0FF000
000000
000000
000000
000000
018000
018000
ENDCHAR
STARTCHAR 1EDA
ENCODING 7898
SWIDTH 810 0
DWIDTH 27 0
BBX 24 29 2 0
BITMAP
000100
000602
000802
001002
000002
000006
01FFF8
060060
080010
100008
200004
400004
400002
800002
800001
800001
800001
800001
800001
800001
800002
800002
400002
400004
200004
100008
080030
060040
01FF80
ENDCHAR
STARTCHAR 1EDB
ENCODING 7899
SWIDTH 600 0
DWIDTH 20 0
BBX 17 24 2 0
BITMAP
001000
002000
00C100
010100
000100
000100
000200
0FFC00
100800
200400
400200
800100
800100
800100
800100
800080
800100
800100
800100
800100
400200
200400
100800
0FF000
ENDCHAR
STARTCHAR 1EDC
ENCODING 7900
SWIDTH 810 0
DWIDTH 27 0
BBX 24 29 2 0
BITMAP
008000
006002
001002
000802
000002
000006
01FFF8
060060
080010
100008
200004
400004
400002
800002
800001
800001
800001
800001
800001
800001
800002
800002
400002
400004
200004
100008
080030
060040
01FF80
ENDCHAR
STARTCHAR 1EDD
ENCODING 7901
SWIDTH 600 0
DWIDTH 20 0
BBX 17 24 2 0
BITMAP
0C0000
020000
010100
008100
000100
000100
000200
0FFC00
100800
200400
400200
800100
800100
800100
800100
800080
800100
800100
800100
800100
400200
200400
100800
0FF000
ENDCHAR
STARTCHAR 1EDE
ENCODING 7902
SWIDTH 810 0
DWIDTH 27 0
BBX 24 31 2 0
BITMAP
001800
002400
000400
000402
000402
000802
000002
000006
01FFF8
060060
080010
100008
200004
400004
400002
800002
800001
800001
800001
800001
800001
800001
800002
800002
400002
400004
200004
100008
080030
060040
01FF80
ENDCHAR
STARTCHAR 1EDF
ENCODING 7903
SWIDTH 600 0
DWIDTH 20 0
BBX 17 26 2 0
BITMAP
018000
024000
002000
002000
004100
008100
000100
000100
000200
0FFC00
100800
200400
400200
800100
800100
800100
800100
800080
800100
800100
800100
800100
400200
200400
100800
0FF000
ENDCHAR
STARTCHAR 1EE0
ENCODING 7904
SWIDTH 810 0
DWIDTH 27 0
BBX 24 28 2 1
BITMAP
00B102
010902
000602
000002
000006
01FFF8
060060
080010
100008
200004
400004
400002
800002
800001
800001
800001
800001
800001
800001
800002
800002
400002
400004
200004
100008
080030
060040
01FF80
ENDCHAR
STARTCHAR 1EE1
ENCODING 7905
SWIDTH 600 0
DWIDTH 20 0
BBX 17 23 2 1
BITMAP
0D0800
08D100
002100
000100
000100
000200
0FFC00
100800
200400
400200
800100
800100
800100
800100
800080
800100
800100
800100
800100
400200
200400
100800
0FF000
ENDCHAR
STARTCHAR 1EE2
ENCODING 7906
SWIDTH 810 0
DWIDTH 27 0
BBX 24 34 2 -6
BITMAP
000002
000002
000002
000002
000006
01FFF8
060060
080010
100008
200004
400004
400002
800002
800001
800001
800001
800001
800001
800001
800002
800002
400002
400004
200004
100008
080030
060040
01FF80
000000
000000
000000
000000
001800
001800
ENDCHAR
STARTCHAR 1EE3
ENCODING 7907
SWIDTH 600 0
DWIDTH 20 0
BBX 17 28 2 -6
BITMAP
000100
000100
000100
000100
000200
0FFC00
100800
200400
400200
800100
800100
800100
800100
800080
800100
800100
800100
800100
400200
200400
100800
0FF000
000000
000000
000000
000000
018000
018000
ENDCHAR
STARTCHAR 1EE4
ENCODING 7908
SWIDTH 780 0
DWIDTH 26 0
BBX 18 29 4 -6
BITMAP
800040
800040
800040
800040
800040
800040
800040
800040
800040
800040
800040
800040
800040
800040
800040
800040
800040
400040
400080
200080
200100
180200
07FC00
000000
000000
000000
000000
004000
004000
ENDCHAR
STARTCHAR 1EE5
ENCODING 7909
SWIDTH 660 0
DWIDTH 22 0
BBX 14 23 4 -6
BITMAP
8004
8004
8004
8004
8004
8004
8004
8004
8004
8004
8004
8004
8004
800C
4014
2024
1FC4
0000
0000
0000
0000
0300
0300
ENDCHAR
STARTCHAR 1EE6
ENCODING 7910
SWIDTH 780 0
DWIDTH 26 0
BBX 18 31 4 0
BITMAP
00C000
012000
001000
001000
002000
004000
000000
000000
800040
800040
800040
800040
800040
800040
800040
800040
800040
800040
800040
800040
800040
800040
800040
800040
800040
400040
400080
200080
200100
180200
07FC00
ENDCHAR
STARTCHAR 1EE7
ENCODING 7911
SWIDTH 660 0
DWIDTH 22 0
BBX 14 26 4 0
BITMAP
0300
0480
0080
0080
0080
0100
0000
0000
0000
8004
8004
8004
8004
8004
8004
8004
8004
8004
8004
8004
8004
8004
800C
4014
2024
1FC4
ENDCHAR
STARTCHAR 1EE8
ENCODING 7912
SWIDTH 780 0
DWIDTH 26 0
BBX 21 29 4 0
BITMAP
000800
001008
006008
008008
000008
000018
800040
800040
800040
800040
800040
800040
800040
800040
800040
800040
800040
800040
800040
800040
800040
800040
800040
400040
400080
200080
200100
180200
07FC00
ENDCHAR
STARTCHAR 1EE9
ENCODING 7913
SWIDTH 660 0
DWIDTH 22 0
BBX 17 24 4 0
BITMAP
002000
00C000
010080
020080
000080
000080
000100
800600
800400
800400
800400
800400
800400
800400
800400
800400
800400
800400
800400
800400
800C00
401400
202400
1FC400
ENDCHAR
STARTCHAR 1EEA
ENCODING 7914
SWIDTH 780 0
DWIDTH 26 0
BBX 21 29 4 0
BITMAP
060000
010008
008008
004008
000008
000018
800040
800040
800040
800040
800040
800040
800040
800040
800040
800040
800040
800040
800040
800040
800040
800040
800040
400040
400080
200080
200100
180200
07FC00
ENDCHAR
STARTCHAR 1EEB
ENCODING 7915
SWIDTH 660 0
DWIDTH 22 0
BBX 17 24 4 0
BITMAP
100000
0C0000
020080
010080
000080
000080
000100
800600
800400
800400
800400
800400
800400
800400
800400
800400
800400
800400
800400
800400
800C00
401400
202400
1FC400
ENDCHAR
STARTCHAR 1EEC
ENCODING 7916
SWIDTH 780 0
DWIDTH 26 0
BBX 21 31 4 0
BITMAP
00C000
012000
001000
001008
002008
004008
000008
000018
800040
800040
800040
800040
800040
800040
800040
800040
800040
800040
800040
800040
800040
800040
800040
800040
800040
400040
400080
200080
200100
180200
07FC00
ENDCHAR
STARTCHAR 1EED
ENCODING 7917
SWIDTH 660 0
DWIDTH 22 0
BBX 17 26 4 0
BITMAP
030000
048000
008000
008000
008080
010080
000080
000080
000100
800600
800400
800400
800400
800400
800400
800400
800400
800400
800400
800400
800400
800400
800C00
401400
202400
1FC400
ENDCHAR
STARTCHAR 1EEE
ENCODING 7918
SWIDTH 780 0
DWIDTH 26 0
BBX 21 28 4 1
BITMAP
068408
086808
001008
000008
000018
800040
800040
800040
800040
800040
800040
800040
800040
800040
800040
800040
800040
800040
800040
800040
800040
800040
400040
400080
200080
200100
180200
07FC00
ENDCHAR
STARTCHAR 1EEF
ENCODING 7919
SWIDTH 660 0
DWIDTH 22 0
BBX 17 23 4 1
BITMAP
162000
212080
00C080
000080
000080
000100
800600
800400
800400
800400
800400
800400
800400
800400
800400
800400
800400
800400
800400
800C00
401400
202400
1FC400
ENDCHAR
STARTCHAR 1EF0
ENCODING 7920
SWIDTH 780 0
DWIDTH 26 0
BBX 21 34 4 -6
BITMAP
000008
000008
000008
000008
000018
800040
800040
800040
800040
800040
800040
800040
800040
800040
800040
800040
800040
800040
800040
800040
800040
800040
400040
400080
200080
200100
180200
07FC00
000000
000000
000000
000000
004000
004000
ENDCHAR
STARTCHAR 1EF1
ENCODING 7921
SWIDTH 660 0
DWIDTH 22 0
BBX 17 28 4 -6
BITMAP
000080
000080
000080
000080
000100
800600
800400
800400
800400
800400
800400
800400
800400
800400
800400
800400
800400
800400
800C00
401400
202400
1FC400
000000
000000
000000
000000
030000
030000
ENDCHAR
STARTCHAR 1EF2
ENCODING 7922
SWIDTH 600 0
DWIDTH 20 0
BBX 19 29 1 0
BITMAP
060000
010000
008000
004000
000000
000000
800060
800040
400080
400080
200100
100200
100200
080400
040400
040800
021000
021000
012000
00C000
00C000
004000
004000
004000
004000
004000
004000
004000
004000
ENDCHAR
STARTCHAR 1EF3
ENCODING 7923
SWIDTH 480 0
DWIDTH 16 0
BBX 17 31 -1 -7
BITMAP
040000
030000
008000
004000
000000
000000
000000
400080
200080
200100
100100
100100
080200
080200
080400
040400
040800
020800
021000
011000
012000
00A000
00A000
004000
004000
008000
008000
010000
010000
C20000
3C0000
ENDCHAR
STARTCHAR 1EF4
ENCODING 7924
SWIDTH 600 0
DWIDTH 20 0
BBX 19 29 1 -6
BITMAP
800060
800040
400080
400080
200100
100200
100200
080400
040400
040800
021000
021000
012000
00C000
00C000
004000
004000
004000
004000
004000
004000
004000
004000
000000
000000
000000
000000
00C000
00C000
ENDCHAR
STARTCHAR 1EF5
ENCODING 7925
SWIDTH 480 0
DWIDTH 16 0
BBX 17 24 -1 -7
BITMAP
400080
200080
200100
100100
100100
080200
080200
080400
040400
040800
020800
021000
011000
012000
00A000
00A000
004000
004000
008000
008000
010000
010800
C20800
3C0000
ENDCHAR
STARTCHAR 1EF6
ENCODING 7926
SWIDTH 600 0
DWIDTH 20 0
BBX 19 31 1 0
BITMAP
00C000
012000
001000
001000
002000
004000
000000
000000
800060
800040
400080
400080
200100
100200
100200
080400
040400
040800
021000
021000
012000
00C000
00C000
004000
004000
004000
004000
004000
004000
004000
004000
ENDCHAR
STARTCHAR 1EF7
ENCODING 7927
SWIDTH 480 0
DWIDTH 16 0
BBX 17 33 -1 -7
BITMAP
00C000
012000
002000
002000
002000
004000
000000
000000
000000
400080
200080
200100
100100
100100
080200
080200
080400
040400
040800
020800
021000
011000
012000
00A000
00A000
004000
004000
008000
008000
010000
010000
C20000
3C0000
ENDCHAR
STARTCHAR 1EF8
ENCODING 7928
SWIDTH 600 0
DWIDTH 20 0
BBX 19 28 1 1
BITMAP
068400
086800
001000
000000
000000
800060
800040
400080
400080
200100
100200
100200
080400
040400
040800
021000
021000
012000
00C000
00C000
004000
004000
004000
004000
004000
004000
004000
004000
ENDCHAR
STARTCHAR 1EF9
ENCODING 7929
SWIDTH 480 0
DWIDTH 16 0
BBX 17 30 -1 -6
BITMAP
058800
084800
003000
000000
000000
000000
400080
200080
200100
100100
100100
080200
080200
080400
040400
040800
020800
021000
011000
012000
00A000
00A000
004000
004000
008000
008000
010000
010000
C20000
3C0000
ENDCHAR
STARTCHAR 2007
ENCODING 8199
SWIDTH 690 0
DWIDTH 23 0
BBX 0 0 0 0
BITMAP
ENDCHAR
STARTCHAR 2008
ENCODING 8200
SWIDTH 180 0
DWIDTH 6 0
BBX 0 0 0 0
BITMAP
ENDCHAR
STARTCHAR 2009
ENCODING 8201
SWIDTH 120 0
DWIDTH 4 0
BBX 0 0 0 0
BITMAP
ENDCHAR
STARTCHAR 200A
ENCODING 8202
SWIDTH 90 0
DWIDTH 3 0
BBX 0 0 0 0
BITMAP
ENDCHAR
STARTCHAR 200B
ENCODING 8203
SWIDTH 0 0
DWIDTH 0 0
BBX 0 0 0 0
BITMAP
ENDCHAR
STARTCHAR 2010
ENCODING 8208
SWIDTH 360 0
DWIDTH 12 0
BBX 9 1 2 8
BITMAP
FF80
ENDCHAR
STARTCHAR 2012
ENCODING 8210
SWIDTH 690 0
DWIDTH 23 0
BBX 19 1 2 11
BITMAP
FFFFE0
ENDCHAR
STARTCHAR 2013
ENCODING 8211
SWIDTH 480 0
DWIDTH 16 0
BBX 17 1 0 8
BITMAP
FFFF80
ENDCHAR
STARTCHAR 2014
ENCODING 8212
SWIDTH 990 0
DWIDTH 33 0
BBX 33 1 0 8
BITMAP
FFFFFFFF80
ENDCHAR
STARTCHAR 2015
ENCODING 8213
SWIDTH 990 0
DWIDTH 33 0
BBX 33 1 0 8
BITMAP
FFFFFFFF80
ENDCHAR
STARTCHAR 2018
ENCODING 8216
SWIDTH 180 0
DWIDTH 6 0
BBX 2 6 2 18
BITMAP
40
40
40
80
80
C0
ENDCHAR
STARTCHAR 2019
ENCODING 8217
SWIDTH 180 0
DWIDTH 6 0
BBX 2 6 2 19
BITMAP
C0
C0
40
80
80
80
ENDCHAR
STARTCHAR 201A
ENCODING 8218
SWIDTH 180 0
DWIDTH 6 0
BBX 2 6 2 -4
BITMAP
C0
40
80
80
80
80
ENDCHAR
STARTCHAR 201C
ENCODING 8220
SWIDTH 300 0
DWIDTH 10 0
BBX 6 7 2 18
BITMAP
40
44
44
84
88
CC
04
ENDCHAR
STARTCHAR 201D
ENCODING 8221
SWIDTH 300 0
DWIDTH 10 0
BBX 6 6 2 19
BITMAP
C4
C4
44
84
88
88
ENDCHAR
STARTCHAR 201E
ENCODING 8222
SWIDTH 300 0
DWIDTH 10 0
BBX 6 7 2 -5
BITMAP
04
C4
44
84
84
88
88
ENDCHAR
STARTCHAR 2020
ENCODING 8224
SWIDTH 510 0
DWIDTH 17 0
BBX 15 29 1 -6
BITMAP
0100
0100
0100
0100
0100
0100
0100
0100
0100
FFFE
0100
0100
0100
0100
0100
0100
0100
0100
0100
0100
0100
0100
0100
0100
0100
0100
0100
0100
0100
ENDCHAR
STARTCHAR 2021
ENCODING 8225
SWIDTH 510 0
DWIDTH 17 0
BBX 15 29 1 -6
BITMAP
0100
0100
0100
0100
0100
0100
0100
0100
0100
FFFE
0100
0100
0100
0100
0100
0100
0100
0100
0100
0100
FFFE
0100
0100
0100
0100
0100
0100
0100
0100
ENDCHAR
STARTCHAR 2022
ENCODING 8226
SWIDTH 240 0
DWIDTH 8 0
BBX 3 2 3 7
BITMAP
E0
E0
ENDCHAR
STARTCHAR 2026
ENCODING 8230
SWIDTH 540 0
DWIDTH 18 0
BBX 14 2 2 0
BITMAP
4104
C304
ENDCHAR
STARTCHAR 2030
ENCODING 8240
SWIDTH 1140 0
DWIDTH 38 0
BBX 35 23 2 0
BITMAP
3E00200000
4100400000
8080400000
8080800000
8081000000
8041000000
8042000000
8084000000
8084000000
8088000000
4110000000
3E11F81F00
0022042080
0044044040
0044024040
0084028020
0104028020
0104028020
0204028040
0404024040
0802044040
0802042080
1001F81F00
ENDCHAR
STARTCHAR 2032
ENCODING 8242
SWIDTH 180 0
DWIDTH 6 0
BBX 1 8 3 15
BITMAP
80
80
80
80
80
80
80
80
ENDCHAR
STARTCHAR 2033
ENCODING 8243
SWIDTH 330 0
DWIDTH 11 0
BBX 5 8 3 15
BITMAP
88
88
88
88
88
88
88
88
ENDCHAR
STARTCHAR 2039
ENCODING 8249
SWIDTH 270 0
DWIDTH 9 0
BBX 6 12 2 3
BITMAP
08
10
20
40
80
80
40
40
20
10
08
04
ENDCHAR
STARTCHAR 203A
ENCODING 8250
SWIDTH 270 0
DWIDTH 9 0
BBX 5 12 2 2
BITMAP
80
80
40
20
10
10
08
10
20
20
40
80
ENDCHAR
STARTCHAR 2044
ENCODING 8260
SWIDTH 150 0
DWIDTH 5 0
BBX 17 23 -6 0
BITMAP
000180
000100
000200
000400
000400
000800
001000
001000
002000
004000
004000
008000
010000
010000
020000
040000
040000
080000
100000
200000
200000
400000
800000
ENDCHAR
STARTCHAR 2052
ENCODING 8274
SWIDTH 450 0
DWIDTH 15 0
BBX 9 23 3 0
BITMAP
C080
4080
0100
0100
0200
0200
0200
0400
0400
0400
0800
0800
0800
1000
1000
1000
2000
2000
2000
4000
4000
4180
8180
ENDCHAR
STARTCHAR 2070
ENCODING 8304
SWIDTH 420 0
DWIDTH 14 0
BBX 12 14 1 11
BITMAP
0700
10C0
6020
4020
8010
8010
8010
8010
8010
8010
4020
4020
2040
1F80
ENDCHAR
STARTCHAR 2074
ENCODING 8308
SWIDTH 420 0
DWIDTH 14 0
BBX 12 14 1 11
BITMAP
0100
0200
0400
0400
0800
1000
2080
2080
4080
8080
7FF0
0080
0080
0080
ENDCHAR
STARTCHAR 2075
ENCODING 8309
SWIDTH 420 0
DWIDTH 14 0
BBX 10 14 2 11
BITMAP
7F80
4000
4000
4000
4000
8000
8000
7F80
0040
0040
0040
0040
8040
7F80
ENDCHAR
STARTCHAR 2076
ENCODING 8310
SWIDTH 420 0
DWIDTH 14 0
BBX 11 14 2 11
BITMAP
0F80
3000
4000
8000
8000
8000
9F00
E0C0
C040
8020
8020
8020
4040
3F80
ENDCHAR
STARTCHAR 2077
ENCODING 8311
SWIDTH 420 0
DWIDTH 14 0
BBX 12 14 1 11
BITMAP
FFF0
8010
8020
8020
0040
0040
0080
0100
0100
0200
0200
0400
0400
0800
ENDCHAR
STARTCHAR 2078
ENCODING 8312
SWIDTH 420 0
DWIDTH 14 0
BBX 12 14 1 11
BITMAP
0F80
3060
4020
8010
4020
4020
39C0
3640
4020
8010
8010
8010
4020
3FC0
ENDCHAR
STARTCHAR 2079
ENCODING 8313
SWIDTH 420 0
DWIDTH 14 0
BBX 11 14 2 11
BITMAP
1C00
6180
8080
8040
8040
8040
80A0
6120
1E20
0040
0040
0080
0080
7F00
ENDCHAR
STARTCHAR 2080
ENCODING 8320
SWIDTH 420 0
DWIDTH 14 0
BBX 12 13 1 -2
BITMAP
19C0
2060
4020
8010
8010
8010
8010
8010
8010
8010
4020
2040
1F80
ENDCHAR
STARTCHAR 2081
ENCODING 8321
SWIDTH 420 0
DWIDTH 14 0
BBX 9 14 3 -3
BITMAP
F800
0800
0800
0800
0800
0800
0800
0800
0800
0800
0800
0800
0800
FF80
ENDCHAR
STARTCHAR 2082
ENCODING 8322
SWIDTH 420 0
DWIDTH 14 0
BBX 10 14 2 -3
BITMAP
0C00
E300
0080
0080
0080
0080
0080
0100
0200
0C00
1000
2000
4000
FFC0
ENDCHAR
STARTCHAR 2083
ENCODING 8323
SWIDTH 420 0
DWIDTH 14 0
BBX 11 14 1 -3
BITMAP
FFC0
0040
0080
0100
0200
0400
0400
0380
0040
0020
0020
0020
8040
7F80
ENDCHAR
STARTCHAR 2084
ENCODING 8324
SWIDTH 420 0
DWIDTH 14 0
BBX 12 14 1 -3
BITMAP
0100
0200
0200
0400
0800
1000
1080
2080
4080
8080
7FF0
0080
0080
0080
ENDCHAR
STARTCHAR 2085
ENCODING 8325
SWIDTH 420 0
DWIDTH 14 0
BBX 10 14 2 -3
BITMAP
7F80
4000
4000
4000
4000
8000
8000
7F00
00C0
0040
0040
0040
8040
7F80
ENDCHAR
STARTCHAR 2086
ENCODING 8326
SWIDTH 420 0
DWIDTH 14 0
BBX 11 14 2 -3
BITMAP
0200
1CC0
6000
8000
8000
8000
8F00
B0C0
C040
8020
8020
8020
4040
3F80
ENDCHAR
ENDFONT
